<svg width="18" height="18" viewBox="0 0 18 18" fill="none" xmlns="http://www.w3.org/2000/svg">
<path fill-rule="evenodd" clip-rule="evenodd" d="M9.0013 1.29102C4.71478 1.29102 1.29297 4.7429 1.29297 8.99935C1.29297 9.34453 1.01315 9.62435 0.667969 9.62435C0.322791 9.62435 0.0429688 9.34453 0.0429688 8.99935C0.0429688 4.0558 4.02116 0.0410156 9.0013 0.0410156C11.966 0.0410156 14.1862 1.27935 15.6527 2.50275C16.0622 2.84436 16.4144 3.18589 16.7096 3.50103V1.13268C16.7096 0.787504 16.9895 0.507682 17.3346 0.507682C17.6798 0.507682 17.9596 0.787504 17.9596 1.13268V5.29935C17.9596 5.64453 17.6798 5.92435 17.3346 5.92435H13.6346C13.2895 5.92435 13.0096 5.64453 13.0096 5.29935C13.0096 4.95417 13.2895 4.67435 13.6346 4.67435H16.084C15.773 4.31384 15.3621 3.88815 14.852 3.46261C13.5414 2.36935 11.5949 1.29102 9.0013 1.29102ZM17.3346 8.37435C17.6798 8.37435 17.9596 8.65417 17.9596 8.99935C17.9596 13.9445 13.9465 17.9577 9.0013 17.9577C6.48425 17.9577 4.48837 16.6908 3.15224 15.479C2.79758 15.1573 2.48543 14.836 2.21797 14.5372V16.866C2.21797 17.2112 1.93815 17.491 1.59297 17.491C1.24779 17.491 0.967969 17.2112 0.967969 16.866V12.6994C0.967969 12.3542 1.24779 12.0744 1.59297 12.0744H5.35964C5.70481 12.0744 5.98464 12.3542 5.98464 12.6994C5.98464 13.0445 5.70481 13.3244 5.35964 13.3244H2.82389C3.12454 13.6899 3.51666 14.1219 3.99203 14.5531C5.21006 15.6578 6.91835 16.7077 9.0013 16.7077C13.2561 16.7077 16.7096 13.2542 16.7096 8.99935C16.7096 8.65417 16.9895 8.37435 17.3346 8.37435Z" fill="currentColor"/>
</svg>
