<svg width="54" height="54" viewBox="0 0 54 54" fill="none" xmlns="http://www.w3.org/2000/svg">
<path fill-rule="evenodd" clip-rule="evenodd" d="M39.76 29.1707C40.2101 30.1709 41.5104 30.471 42.3106 29.7208L43.711 28.3204C45.1614 26.87 47.512 26.87 48.9124 28.3204C50.3628 29.7708 50.3628 32.1214 48.9124 33.5218L37.6594 44.7748C34.9587 47.9756 30.9076 50.0262 26.3564 50.0262C21.6552 50.0262 17.4041 47.8256 14.7034 44.3747L3.85048 33.5218C2.4001 32.0714 2.4001 29.7208 3.85048 28.3204C5.30087 26.87 7.65149 26.87 9.05186 28.3204L10.4022 29.6708C11.1524 30.421 12.4528 30.0709 12.8529 29.1206C12.9529 28.9206 13.0029 28.7205 13.0029 28.5205V11.666C13.0029 9.61548 14.6533 7.96504 16.7039 7.96504C18.7544 7.96504 20.4049 9.61548 20.4049 11.666V20.1683C20.4049 20.9185 21.1551 21.4186 21.8552 21.1685C22.3054 21.0185 22.6054 20.6184 22.6054 20.1683V6.46465C22.6054 4.4141 24.2559 2.76367 26.3064 2.76367C28.357 2.76367 30.0074 4.4141 30.0074 6.46465V20.1683C30.0074 20.6184 30.3075 21.0185 30.7576 21.1685C31.4578 21.3686 32.208 20.8685 32.208 20.1683V11.666C32.208 9.61548 33.8584 7.96504 35.909 7.96504C37.9595 7.96504 39.6099 9.61548 39.6099 11.666V28.5205C39.6599 28.7705 39.71 28.9706 39.76 29.1707Z" fill="#E94A4D"/>
<path d="M38.159 36.8229C38.159 36.8229 32.8576 44.2248 26.3559 44.2248C19.8541 44.2248 14.5527 36.8229 14.5527 36.8229C14.5527 36.8229 19.8541 29.4209 26.3559 29.4209C32.9076 29.4209 38.159 36.8229 38.159 36.8229Z" fill="#D1DA4E"/>
<path d="M31.9076 36.823C31.9076 39.8738 29.407 42.3744 26.3562 42.3744C23.3053 42.3744 20.8047 39.8738 20.8047 36.823C20.8047 33.7721 23.3053 31.2715 26.3562 31.2715C29.407 31.2715 31.9076 33.7221 31.9076 36.823Z" fill="#010202"/>
<path fill-rule="evenodd" clip-rule="evenodd" d="M26.3562 31.4551C23.4068 31.4551 20.9883 33.8736 20.9883 36.823C20.9883 39.7724 23.4068 42.1908 26.3562 42.1908C29.3056 42.1908 31.724 39.7724 31.724 36.823C31.724 33.8246 29.3066 31.4551 26.3562 31.4551ZM20.6211 36.823C20.6211 33.6708 23.204 31.0879 26.3562 31.0879C29.5073 31.0879 32.0912 33.6197 32.0912 36.823C32.0912 39.9752 29.5084 42.558 26.3562 42.558C23.204 42.558 20.6211 39.9752 20.6211 36.823Z" fill="#E94A4D"/>
<path d="M29.7072 36.8226C29.7072 38.6731 28.2068 40.1235 26.4063 40.1235C24.5559 40.1235 23.1055 38.6231 23.1055 36.8226C23.1055 35.0221 24.6059 33.5217 26.4063 33.5217C28.2068 33.4717 29.7072 34.9721 29.7072 36.8226Z" fill="#010202"/>
<path fill-rule="evenodd" clip-rule="evenodd" d="M29.5236 36.8226C29.5236 35.0706 28.1037 33.6583 26.4115 33.7053L26.4064 33.7054V33.7053C24.7073 33.7053 23.2891 35.1235 23.2891 36.8226C23.2891 38.5235 24.6591 39.9399 26.4064 39.9399C28.1072 39.9399 29.5236 38.5699 29.5236 36.8226ZM26.4038 33.3381C28.3113 33.2866 29.8908 34.8745 29.8908 36.8226C29.8908 38.7763 28.3064 40.3071 26.4064 40.3071C24.4527 40.3071 22.9219 38.7227 22.9219 36.8226C22.9219 34.9216 24.5031 33.3395 26.4038 33.3381Z" fill="#E94A4D"/>
<path d="M34.1076 36.8233C34.1076 41.1245 30.6567 44.5754 26.3556 44.5754C22.0544 44.5754 18.6035 41.1245 18.6035 36.8233C18.6035 32.5222 22.0544 29.0713 26.3556 29.0713C30.6567 29.0713 34.1076 32.5222 34.1076 36.8233Z" fill="#010202"/>
<path fill-rule="evenodd" clip-rule="evenodd" d="M26.3556 29.2549C22.1558 29.2549 18.7871 32.6236 18.7871 36.8233C18.7871 41.0231 22.1558 44.3918 26.3556 44.3918C30.5553 44.3918 33.924 41.0231 33.924 36.8233C33.924 32.6236 30.5553 29.2549 26.3556 29.2549ZM18.4199 36.8233C18.4199 32.4208 21.953 28.8877 26.3556 28.8877C30.7581 28.8877 34.2912 32.4208 34.2912 36.8233C34.2912 41.2259 30.7581 44.759 26.3556 44.759C21.953 44.759 18.4199 41.2259 18.4199 36.8233Z" fill="#E94A4D"/>
<path d="M36.3086 36.8232C36.3086 42.3246 31.8574 46.7758 26.3559 46.7758C20.8545 46.7758 16.4033 42.3246 16.4033 36.8232C16.4033 31.3217 20.8545 26.8705 26.3559 26.8705C31.8574 26.8205 36.3086 31.3217 36.3086 36.8232Z" fill="#010202"/>
<path fill-rule="evenodd" clip-rule="evenodd" d="M36.125 36.8232C36.125 31.4216 31.7549 27.0051 26.3576 27.0541L26.356 27.0541C20.9559 27.0541 16.5869 31.4231 16.5869 36.8232C16.5869 42.2232 20.9559 46.5922 26.356 46.5922C31.756 46.5922 36.125 42.2232 36.125 36.8232ZM26.3551 26.6869C31.9604 26.6364 36.4922 31.2221 36.4922 36.8232C36.4922 42.426 31.9588 46.9594 26.356 46.9594C20.7531 46.9594 16.2197 42.426 16.2197 36.8232C16.2197 31.2206 20.7527 26.6874 26.3551 26.6869Z" fill="#E94A4D"/>
<path d="M27.4564 36.8225C27.4564 37.4227 26.9563 37.9228 26.3561 37.9228C25.756 37.9228 25.2559 37.4227 25.2559 36.8225C25.2559 36.2223 25.756 35.7222 26.3561 35.7222C26.9563 35.6722 27.4564 36.1723 27.4564 36.8225Z" fill="#2F4B9B"/>
<path fill-rule="evenodd" clip-rule="evenodd" d="M27.2728 36.8226C27.2728 36.2645 26.8498 35.8654 26.3714 35.9052L26.3638 35.9059H26.3562C25.8574 35.9059 25.4395 36.3238 25.4395 36.8226C25.4395 37.3213 25.8574 37.7393 26.3562 37.7393C26.8549 37.7393 27.2728 37.3213 27.2728 36.8226ZM26.3485 35.5387C27.0669 35.4834 27.6401 36.0829 27.6401 36.8226C27.6401 37.5241 27.0577 38.1065 26.3562 38.1065C25.6546 38.1065 25.0723 37.5241 25.0723 36.8226C25.0723 36.1236 25.6504 35.5429 26.3485 35.5387Z" fill="#E94A4D"/>
<path d="M26.3559 38.2733C27.1561 38.2733 27.8563 37.6231 27.8563 36.7729C27.8563 35.9226 27.2061 35.2725 26.3559 35.2725C25.5557 35.2725 24.8555 35.9226 24.8555 36.7729C24.8555 37.6231 25.5557 38.2733 26.3559 38.2733Z" fill="#E94A4D"/>
<path d="M15.1037 36.8734C15.0537 36.8233 15.0537 36.8233 15.0537 36.7733C15.0537 36.7233 15.1037 36.7233 15.1037 36.6733C15.2538 36.4733 15.5038 36.1732 15.8039 35.8731C16.4041 35.1729 17.2543 34.2727 18.3046 33.3724C20.4051 31.572 23.3059 29.7715 26.4067 29.7715C29.5075 29.7715 32.4083 31.5219 34.5089 33.3724C35.5591 34.2727 36.4094 35.1729 37.0095 35.8731C37.3096 36.2232 37.5096 36.4733 37.7097 36.6733C37.7597 36.7233 37.7597 36.7233 37.7597 36.7733C37.7597 36.8233 37.7097 36.8233 37.7097 36.8734C37.5597 37.0734 37.3096 37.3735 37.0095 37.6736C36.4094 38.3738 35.5591 39.274 34.5089 40.1742C32.4083 41.9747 29.5075 43.7752 26.4067 43.7752C23.3059 43.7752 20.4051 42.0247 18.3046 40.1742C17.2543 39.274 16.4041 38.3738 15.8039 37.6736C15.4538 37.3735 15.2538 37.0734 15.1037 36.8734Z" fill="#010202"/>
<path fill-rule="evenodd" clip-rule="evenodd" d="M26.4059 29.9551C23.3719 29.9551 20.5135 31.7202 18.4233 33.5118C17.3814 34.4048 16.5378 35.2981 15.9425 35.9926L15.9333 36.0033L15.933 36.0029C15.6549 36.2809 15.421 36.5588 15.2737 36.7519C15.2705 36.7615 15.2666 36.7708 15.2622 36.7798C15.2796 36.8031 15.2974 36.8273 15.3157 36.8523C15.4588 37.0469 15.6369 37.2893 15.9226 37.5342L15.9333 37.5434L15.9425 37.5541C16.5378 38.2486 17.3814 39.1418 18.4233 40.0348L18.4252 40.0365C20.5123 41.8752 23.3708 43.5916 26.4059 43.5916C29.44 43.5916 32.2983 41.8265 34.3886 40.0348C35.4304 39.1418 36.274 38.2486 36.8693 37.5541L36.8785 37.5434L36.8789 37.5438C37.1569 37.2657 37.3908 36.9878 37.5381 36.7948C37.5409 36.7867 37.544 36.7789 37.5476 36.7713C37.4055 36.6256 37.2603 36.4538 37.0853 36.2468C37.0182 36.1674 36.9467 36.0829 36.8693 35.9926C36.274 35.2981 35.4304 34.4048 34.3886 33.5118L34.3867 33.5102L34.3867 33.5102C32.2995 31.6715 29.441 29.9551 26.4059 29.9551ZM18.1843 33.233C20.2952 31.4237 23.2384 29.5879 26.4059 29.5879C29.572 29.5879 32.5146 31.3718 34.6285 33.2338C35.6868 34.141 36.5433 35.0479 37.1481 35.7536C37.2317 35.8511 37.3067 35.9399 37.3756 36.0213C37.5588 36.2381 37.6981 36.4029 37.8387 36.5435L37.8408 36.5455C37.8515 36.5562 37.8639 36.5687 37.8743 36.5802C37.8857 36.5928 37.903 36.6133 37.9169 36.6412C37.9442 36.6958 37.943 36.7523 37.9426 36.7697C37.9426 36.7712 37.9425 36.7725 37.9425 36.7733C37.9425 36.8198 37.93 36.8618 37.9085 36.8975C37.9034 36.9061 37.8979 36.914 37.8925 36.921V36.9346L37.8558 36.9835C37.7017 37.189 37.4479 37.4935 37.1436 37.7984C36.5388 38.5035 35.6836 39.4084 34.6276 40.3136C32.5167 42.123 29.5735 43.9588 26.4059 43.9588C23.2399 43.9588 20.2972 42.1748 18.1834 40.3128C17.1303 39.4102 16.2771 38.5078 15.6728 37.8037C15.3591 37.5325 15.159 37.2597 15.0177 37.067C14.9987 37.0411 14.9808 37.0166 14.9638 36.9938C14.955 36.985 14.9456 36.9755 14.9376 36.9665C14.9262 36.9539 14.9089 36.9333 14.895 36.9055C14.8677 36.8509 14.8689 36.7943 14.8693 36.777C14.8693 36.7755 14.8693 36.7742 14.8693 36.7733C14.8693 36.7269 14.8819 36.6849 14.9033 36.6492C14.9085 36.6406 14.914 36.6327 14.9193 36.6257V36.6121L14.9561 36.5632C15.1102 36.3577 15.3639 36.0532 15.6683 35.7483C16.2731 35.0432 17.1282 34.1382 18.1843 33.233Z" fill="#D1DA4E"/>
</svg>
