<svg width="20" height="17" viewBox="0 0 20 17" fill="none" xmlns="http://www.w3.org/2000/svg">
<path d="M1 8.62502H19M10 7.12502V10.125M5.5 4.12502L6.58375 1.95752C6.7085 1.70646 6.9011 1.49539 7.13972 1.34824C7.37834 1.2011 7.65341 1.12376 7.93375 1.12501H12.0588C12.3391 1.12376 12.6142 1.2011 12.8528 1.34824C13.0914 1.49539 13.284 1.70646 13.4088 1.95752L14.5 4.12502M2.33333 16.125H17.6667C18.403 16.125 19 15.5281 19 14.7917V5.45835C19 4.72197 18.403 4.12502 17.6667 4.12502H2.33333C1.59695 4.12502 1 4.72197 1 5.45835V14.7917C1 15.5281 1.59695 16.125 2.33333 16.125Z" stroke="currentColor" stroke-width="1.5" stroke-linecap="round"/>
</svg>
