<svg width="38" height="52" viewBox="0 0 38 52" fill="none" xmlns="http://www.w3.org/2000/svg">
<path fill-rule="evenodd" clip-rule="evenodd" d="M16.8109 3.79102C12.3988 3.79102 8.81961 7.37497 8.83759 11.7794L8.83762 11.786C8.8376 16.0826 12.1939 19.5686 16.4315 19.7569C16.6884 19.739 16.9599 19.7381 17.2159 19.7567C21.4331 19.5662 24.8059 16.0785 24.8059 11.786C24.8059 7.37515 21.2218 3.79102 16.8109 3.79102ZM5.5876 11.7893C5.56406 5.5786 10.6075 0.541016 16.8109 0.541016C23.0167 0.541016 28.0559 5.58022 28.0559 11.786C28.0559 17.8626 23.2443 22.8055 17.2341 23.0084C17.1618 23.0109 17.0895 23.0085 17.0176 23.0013C16.9131 22.9908 16.757 22.9894 16.6114 23.0027C16.5443 23.0088 16.477 23.0107 16.4097 23.0084C10.3762 22.8056 5.58935 17.8618 5.5876 11.7893ZM16.8001 28.0144C13.1148 28.0144 9.51546 28.9529 6.85959 30.7299L6.85604 30.7323C4.57362 32.2508 3.64844 34.093 3.64844 35.7304C3.64844 37.3685 4.57448 39.217 6.85865 40.7465C9.52706 42.5249 13.1166 43.4627 16.8109 43.4627C17.7084 43.4627 18.4359 44.1902 18.4359 45.0877C18.4359 45.9851 17.7084 46.7127 16.8109 46.7127C12.6193 46.7127 8.366 45.6574 5.05455 43.4498L5.05198 43.448C2.09373 41.4677 0.398438 38.7016 0.398438 35.7304C0.398438 32.7588 2.09425 29.9974 5.05406 28.0276C8.35628 25.8188 12.6212 24.7644 16.8001 24.7644C20.9798 24.7644 25.2455 25.8191 28.5479 28.0288C29.2938 28.5279 29.4939 29.5371 28.9948 30.283C28.4958 31.0289 27.4865 31.229 26.7406 30.7299C24.0848 28.9529 20.4854 28.0144 16.8001 28.0144Z" fill="currentColor"/>
<path fill-rule="evenodd" clip-rule="evenodd" d="M25.3169 36.962C24.8522 37.4812 24.6326 38.2951 24.6326 39.541V39.8686C24.7406 39.8668 24.849 39.866 24.9576 39.866H32.5409C32.6496 39.866 32.758 39.8668 32.8659 39.8686V39.541C32.8659 38.2951 32.6464 37.4812 32.1816 36.962C31.7404 36.469 30.8237 35.966 28.7493 35.966C26.6749 35.966 25.7581 36.469 25.3169 36.962ZM35.4659 40.2985V39.541C35.4659 38.0975 35.2341 36.4739 34.119 35.228C32.9804 33.9559 31.1888 33.366 28.7493 33.366C26.3098 33.366 24.5182 33.9559 23.3796 35.228C22.2644 36.4739 22.0326 38.0975 22.0326 39.541V40.2985C21.6626 40.4546 21.3238 40.6649 21.0277 40.9469C20.0245 41.9023 19.8659 43.3333 19.8659 44.7771V46.2216C19.8659 47.6654 20.0245 49.0964 21.0277 50.0518C22.0084 50.9858 23.4578 51.1327 24.9576 51.1327H32.5409C34.0408 51.1327 35.4901 50.9858 36.4708 50.0518C37.474 49.0964 37.6326 47.6654 37.6326 46.2216V44.7771C37.6326 43.3333 37.474 41.9023 36.4708 40.9469C36.1747 40.6649 35.8359 40.4546 35.4659 40.2985ZM22.8208 42.8296C22.6865 42.9575 22.4659 43.332 22.4659 44.7771V46.2216C22.4659 47.6667 22.6865 48.0412 22.8208 48.1691C22.9776 48.3184 23.4241 48.5327 24.9576 48.5327H32.5409C34.0744 48.5327 34.5209 48.3184 34.6777 48.1691C34.812 48.0412 35.0326 47.6667 35.0326 46.2216V44.7771C35.0326 43.332 34.812 42.9575 34.6777 42.8296C34.5209 42.6803 34.0744 42.466 32.5409 42.466H24.9576C23.4241 42.466 22.9776 42.6803 22.8208 42.8296Z" fill="currentColor"/>
</svg>
