<svg width="54" height="54" viewBox="0 0 54 54" fill="none" xmlns="http://www.w3.org/2000/svg">
<path d="M8 40.4106V1.96689C8 0.880606 8.88061 0 9.96689 0C11.0532 0 11.9338 0.872371 11.9338 1.95865V39.6954C11.9338 41.1258 13.1258 41.4834 13.7219 41.4834H29.0993C31.245 41.4834 34.8212 39.1947 34.8212 34.3311C34.8212 29.4676 31.245 27.1788 28.7417 27.1788H21.2318C19.4437 27.1788 16.2252 25.7483 16.2252 20.7417C16.2252 17.4989 18.4131 15.9126 20.1318 15.2997C20.8449 15.0454 21.6109 15.0199 22.368 15.0199H29.457C35.1788 15.0199 47.6954 18.9536 47.3378 35.0464C47.0517 47.9205 36.6093 54 29.457 54H18.3709C17.1858 54 16.2252 53.0393 16.2252 51.8543C16.2252 50.6693 17.1858 49.7086 18.3709 49.7086H29.457C33.3907 49.7086 42.7994 45.4172 43.0464 35.0464C43.3325 23.0305 33.8676 19.3113 29.0993 18.9536H23.6288H23.6129C22.7363 18.9536 21.81 18.9536 21.0858 19.4465C20.5836 19.7883 20.1589 20.3199 20.1589 21.0993C20.1589 21.8787 20.5836 22.4104 21.0858 22.7522C21.81 23.2451 22.7361 23.2451 23.6127 23.245H23.6286H29.0993C33.7483 23.245 39.1126 27.1354 39.1126 34.3311C39.1126 41.4834 33.0331 45.4172 29.457 45.4172H13.7219C9.14437 45.4172 8 42.0795 8 40.4106Z" fill="#E33F71"/>
</svg>
