<svg width="54" height="54" viewBox="0 0 54 54" fill="none" xmlns="http://www.w3.org/2000/svg">
<path d="M51 27C51 40.2548 40.2548 51 27 51C13.7452 51 3 40.2548 3 27C3 13.7452 13.7452 3 27 3C40.2548 3 51 13.7452 51 27ZM13.0235 27C13.0235 34.719 19.281 40.9765 27 40.9765C34.719 40.9765 40.9765 34.719 40.9765 27C40.9765 19.281 34.719 13.0235 27 13.0235C19.281 13.0235 13.0235 19.281 13.0235 27Z" fill="#2059EB"/>
<path d="M22.5557 23.0557C22.5557 22.7795 22.7795 22.5557 23.0557 22.5557H30.9446C31.2207 22.5557 31.4446 22.7795 31.4446 23.0557V30.9446C31.4446 31.2207 31.2207 31.4446 30.9446 31.4446H23.0557C22.7795 31.4446 22.5557 31.2207 22.5557 30.9446V23.0557Z" fill="#2059EB"/>
</svg>
