<svg width="177" height="60" viewBox="0 0 177 60" fill="none" xmlns="http://www.w3.org/2000/svg">
<path d="M17.7657 27.3538H12.5471C12.51 26.9227 12.4113 26.5316 12.251 26.1805C12.0967 25.8295 11.8809 25.5277 11.6033 25.2751C11.3318 25.0165 11.0018 24.8194 10.6132 24.6839C10.2246 24.5422 9.78344 24.4714 9.29 24.4714C8.42639 24.4714 7.6954 24.6808 7.09705 25.0996C6.50485 25.5184 6.05454 26.1189 5.74611 26.9011C5.44385 27.6833 5.29271 28.6226 5.29271 29.7188C5.29271 30.8767 5.44693 31.8467 5.75536 32.6289C6.06996 33.4049 6.52336 33.9901 7.11555 34.3842C7.70775 34.7723 8.42023 34.9662 9.25299 34.9662C9.72796 34.9662 10.1537 34.9078 10.5299 34.7907C10.9061 34.6676 11.2332 34.492 11.5108 34.2641C11.7883 34.0362 12.0134 33.7621 12.1862 33.4419C12.3651 33.1155 12.4854 32.749 12.5471 32.3425L17.7657 32.3795C17.7041 33.1801 17.4789 33.9962 17.0903 34.8277C16.7016 35.653 16.1496 36.4167 15.434 37.1187C14.7246 37.8148 13.8455 38.3752 12.7969 38.8002C11.7482 39.2251 10.5299 39.4376 9.14196 39.4376C7.4024 39.4376 5.84173 39.065 4.45995 38.3198C3.08433 37.5746 1.99556 36.4782 1.19364 35.0309C0.397881 33.5836 0 31.8129 0 29.7188C0 27.6125 0.407131 25.8387 1.22139 24.3975C2.03566 22.9501 3.13368 21.8569 4.51547 21.1178C5.89724 20.3726 7.43941 20 9.14196 20C10.3387 20 11.4398 20.1632 12.4453 20.4896C13.4508 20.8161 14.3329 21.2934 15.0917 21.9216C15.8504 22.5436 16.4611 23.3104 16.9238 24.222C17.3864 25.1335 17.667 26.1774 17.7657 27.3538Z" fill="#4E5658"/>
<path d="M38.4593 29.7188C38.4593 31.8252 38.049 33.602 37.2286 35.0493C36.4082 36.4906 35.301 37.5838 33.9068 38.329C32.5127 39.0681 30.9582 39.4376 29.2433 39.4376C27.5161 39.4376 25.9554 39.065 24.5613 38.3198C23.1733 37.5684 22.0692 36.472 21.2487 35.0309C20.4345 33.5836 20.0273 31.8129 20.0273 29.7188C20.0273 27.6125 20.4345 25.8387 21.2487 24.3975C22.0692 22.9501 23.1733 21.8569 24.5613 21.1178C25.9554 20.3726 27.5161 20 29.2433 20C30.9582 20 32.5127 20.3726 33.9068 21.1178C35.301 21.8569 36.4082 22.9501 37.2286 24.3975C38.049 25.8387 38.4593 27.6125 38.4593 29.7188ZM33.1666 29.7188C33.1666 28.5856 33.0155 27.6309 32.7132 26.8549C32.4171 26.0727 31.9761 25.4814 31.39 25.0811C30.8101 24.6746 30.0946 24.4714 29.2433 24.4714C28.392 24.4714 27.6734 24.6746 27.0873 25.0811C26.5075 25.4814 26.0665 26.0727 25.7642 26.8549C25.4681 27.6309 25.3201 28.5856 25.3201 29.7188C25.3201 30.8521 25.4681 31.8098 25.7642 32.592C26.0665 33.368 26.5075 33.9593 27.0873 34.3658C27.6734 34.7661 28.392 34.9662 29.2433 34.9662C30.0946 34.9662 30.8101 34.7661 31.39 34.3658C31.9761 33.9593 32.4171 33.368 32.7132 32.592C33.0155 31.8098 33.1666 30.8521 33.1666 29.7188Z" fill="#4E5658"/>
<path d="M59.1975 29.7188C59.1975 31.8252 58.7873 33.602 57.9669 35.0493C57.1464 36.4906 56.0391 37.5838 54.645 38.329C53.251 39.0681 51.6964 39.4376 49.9816 39.4376C48.2543 39.4376 46.6937 39.065 45.2995 38.3198C43.9116 37.5684 42.8074 36.472 41.987 35.0309C41.1728 33.5836 40.7656 31.8129 40.7656 29.7188C40.7656 27.6125 41.1728 25.8387 41.987 24.3975C42.8074 22.9501 43.9116 21.8569 45.2995 21.1178C46.6937 20.3726 48.2543 20 49.9816 20C51.6964 20 53.251 20.3726 54.645 21.1178C56.0391 21.8569 57.1464 22.9501 57.9669 24.3975C58.7873 25.8387 59.1975 27.6125 59.1975 29.7188ZM53.9048 29.7188C53.9048 28.5856 53.7537 27.6309 53.4514 26.8549C53.1553 26.0727 52.7142 25.4814 52.1283 25.0811C51.5484 24.6746 50.8328 24.4714 49.9816 24.4714C49.1303 24.4714 48.4117 24.6746 47.8256 25.0811C47.2457 25.4814 46.8047 26.0727 46.5024 26.8549C46.2063 27.6309 46.0583 28.5856 46.0583 29.7188C46.0583 30.8521 46.2063 31.8098 46.5024 32.592C46.8047 33.368 47.2457 33.9593 47.8256 34.3658C48.4117 34.7661 49.1303 34.9662 49.9816 34.9662C50.8328 34.9662 51.5484 34.7661 52.1283 34.3658C52.7142 33.9593 53.1553 33.368 53.4514 32.592C53.7537 31.8098 53.9048 30.8521 53.9048 29.7188Z" fill="#4E5658"/>
<path d="M61.5742 39.1791V20.2588H69.7539C71.1603 20.2588 72.391 20.5144 73.4458 21.0256C74.5007 21.5368 75.321 22.2728 75.9071 23.2336C76.4931 24.1944 76.7862 25.346 76.7862 26.6887C76.7862 28.0437 76.4839 29.1862 75.8793 30.1162C75.281 31.0462 74.4389 31.7483 73.3532 32.2225C72.2737 32.6968 71.0123 32.9338 69.5688 32.9338H64.6832V28.9429H68.5325C69.137 28.9429 69.6521 28.8689 70.0777 28.7212C70.5095 28.5672 70.8396 28.3239 71.0678 27.9914C71.3022 27.6588 71.4194 27.2246 71.4194 26.6887C71.4194 26.1468 71.3022 25.7063 71.0678 25.3676C70.8396 25.0227 70.5095 24.7702 70.0777 24.6101C69.6521 24.4438 69.137 24.3606 68.5325 24.3606H66.7188V39.1791H61.5742ZM72.6778 30.4949L77.4153 39.1791H71.8265L67.2 30.4949H72.6778Z" fill="#4E5658"/>
<path d="M86.2679 39.1791H78.9766V20.2588H86.1939C88.1431 20.2588 89.8272 20.6376 91.246 21.3951C92.6709 22.1465 93.769 23.2305 94.5401 24.647C95.3173 26.0574 95.7059 27.7481 95.7059 29.7189C95.7059 31.6898 95.3203 33.3835 94.5493 34.8C93.7782 36.2105 92.6864 37.2945 91.2738 38.0519C89.8611 38.8033 88.1925 39.1791 86.2679 39.1791ZM84.1212 34.8186H86.0828C87.0204 34.8186 87.8192 34.6677 88.4793 34.3659C89.1455 34.0641 89.6513 33.5436 89.9968 32.8045C90.3484 32.0655 90.5242 31.0369 90.5242 29.7189C90.5242 28.4009 90.3453 27.3724 89.9876 26.6332C89.6359 25.8942 89.1178 25.3738 88.4331 25.072C87.7545 24.7702 86.9217 24.6193 85.9347 24.6193H84.1212V34.8186Z" fill="#4E5658"/>
<path d="M103.235 20.2588V39.1791H98.0898V20.2588H103.235Z" fill="#4E5658"/>
<path d="M122.068 20.2588V39.1791H117.774L110.928 29.2386H110.816V39.1791H105.672V20.2588H110.039L116.775 30.1623H116.923V20.2588H122.068Z" fill="#4E5658"/>
<path d="M129.427 39.1791H123.875L130.13 20.2588H137.163L143.417 39.1791H137.865L133.72 25.4693H133.572L129.427 39.1791ZM128.39 31.7144H138.828V35.5576H128.39V31.7144Z" fill="#4E5658"/>
<path d="M145.246 39.1791V20.2588H153.426C154.833 20.2588 156.063 20.5359 157.118 21.0903C158.172 21.6446 158.993 22.4237 159.579 23.4276C160.164 24.4315 160.458 25.6048 160.458 26.9474C160.458 28.3024 160.156 29.4756 159.551 30.4673C158.953 31.4588 158.11 32.2225 157.025 32.7584C155.946 33.2942 154.684 33.5621 153.241 33.5621H148.355V29.5711H152.204C152.809 29.5711 153.324 29.4664 153.749 29.257C154.181 29.0414 154.511 28.7366 154.739 28.3424C154.974 27.9482 155.091 27.4832 155.091 26.9474C155.091 26.4054 154.974 25.9435 154.739 25.5616C154.511 25.1737 154.181 24.878 153.749 24.6747C153.324 24.4653 152.809 24.3606 152.204 24.3606H150.391V39.1791H145.246Z" fill="#4E5658"/>
<path d="M162.344 39.1791V20.2588H176.002V24.3976H167.489V27.6495H175.298V31.7883H167.489V35.0402H175.964V39.1791H162.344Z" fill="#4E5658"/>
</svg>
