<svg width="176" height="60" viewBox="0 0 176 60" fill="none" xmlns="http://www.w3.org/2000/svg">
<path d="M134.055 54.2304C133.843 54.2304 133.672 54.0594 133.672 53.8486V7.86928C133.672 7.68826 133.8 7.53215 133.977 7.4955L142.036 5.83519C142.274 5.78622 142.497 5.9671 142.497 6.20897V53.8486C142.497 54.0594 142.326 54.2304 142.114 54.2304H134.055Z" fill="#1C4396"/>
<path d="M32.8229 55.2027C29.6054 55.2027 26.7326 54.4241 24.2046 52.8669C21.6766 51.3096 19.6771 49.1798 18.2063 46.4775C16.7354 43.7753 16 40.7067 16 37.2715C16 33.8366 16.7354 30.7907 18.2063 28.1343C19.6771 25.432 21.6766 23.3252 24.2046 21.8137C26.7326 20.2565 29.6054 19.4779 32.8229 19.4779C35.3969 19.4779 37.6492 19.9588 39.5796 20.9206C41.1302 21.6931 42.4436 22.7168 43.5196 23.9916C43.7621 24.2788 44.2681 24.1155 44.2681 23.7402V7.04211C44.2681 6.86111 44.3955 6.705 44.5735 6.66835L52.6326 5.00804C52.8702 4.95907 53.0932 5.13995 53.0932 5.38182V53.9966C53.0932 54.2074 52.9215 54.3782 52.7102 54.3782H45.548C45.3651 54.3782 45.2078 54.2493 45.1722 54.0704L44.4376 50.358C44.373 50.031 43.9429 49.9338 43.7288 50.1897C42.7004 51.419 41.4091 52.5175 39.8553 53.4851C38.0629 54.6301 35.7186 55.2027 32.8229 55.2027ZM34.6845 47.5081C37.5341 47.5081 39.8553 46.5692 41.648 44.6913C43.4866 42.7677 44.4058 40.3173 44.4058 37.3403C44.4058 34.3632 43.4866 31.9358 41.648 30.0579C39.8553 28.1343 37.5341 27.1724 34.6845 27.1724C31.8806 27.1724 29.5594 28.1113 27.7209 29.9892C25.8823 31.8671 24.963 34.2944 24.963 37.2715C24.963 40.2486 25.8823 42.699 27.7209 44.6226C29.5594 46.5462 31.8806 47.5081 34.6845 47.5081Z" fill="#1C4396"/>
<path d="M74.6139 55.2081C71.1664 55.2081 68.1098 54.4753 65.4439 53.0098C62.778 51.5441 60.6866 49.483 59.1699 46.8266C57.6529 44.1702 56.8945 41.1015 56.8945 37.6207C56.8945 34.0939 57.63 30.9565 59.1009 28.2085C60.6177 25.4604 62.6861 23.3307 65.3061 21.8192C67.972 20.262 71.0975 19.4834 74.6828 19.4834C78.0381 19.4834 81.0029 20.2162 83.5769 21.6819C86.1509 23.1475 88.1503 25.1627 89.5752 27.7276C91.0461 30.2465 91.7815 33.0635 91.7815 36.1778C91.7815 36.6816 91.7584 37.2085 91.7126 37.7579C91.7126 38.1982 91.6978 38.6532 91.6682 39.123C91.6558 39.3219 91.489 39.4755 91.2888 39.4755H66.0611C65.8393 39.4755 65.6632 39.6633 65.6853 39.8833C65.9318 42.3461 66.8395 44.2942 68.4086 45.7274C70.1094 47.2388 72.1547 47.9945 74.5449 47.9945C76.3376 47.9945 77.8314 47.6051 79.0264 46.8266C80.1959 46.0497 81.0797 45.0694 81.6778 43.8856C81.7449 43.7529 81.8797 43.6664 82.0288 43.6664H90.2334C90.4898 43.6664 90.6736 43.9122 90.5929 44.1547C89.9369 46.1176 88.9083 47.9243 87.5068 49.5746C86.0358 51.315 84.1973 52.6892 81.9911 53.6967C79.8308 54.7043 77.3717 55.2081 74.6139 55.2081ZM74.6828 26.6284C72.5225 26.6284 70.615 27.2466 68.9603 28.4833C67.4073 29.6009 66.3808 31.2828 65.8805 33.5298C65.8285 33.7628 66.0096 33.9795 66.2492 33.9795H82.4111C82.632 33.9795 82.8078 33.7938 82.7857 33.575C82.5773 31.5196 81.7608 29.8681 80.3364 28.6207C78.8194 27.2925 76.9351 26.6284 74.6828 26.6284Z" fill="#1C4396"/>
<path d="M113.001 55.2081C109.553 55.2081 106.497 54.4753 103.831 53.0098C101.165 51.5441 99.0734 49.483 97.5566 46.8266C96.0396 44.1702 95.2812 41.1015 95.2812 37.6207C95.2812 34.0939 96.0167 30.9565 97.4876 28.2085C99.0044 25.4604 101.073 23.3307 103.693 21.8192C106.359 20.262 109.484 19.4834 113.07 19.4834C116.425 19.4834 119.39 20.2162 121.964 21.6819C124.538 23.1475 126.537 25.1627 127.962 27.7276C129.433 30.2465 130.168 33.0635 130.168 36.1778C130.168 36.6816 130.145 37.2085 130.099 37.7579C130.099 38.1982 130.085 38.6532 130.055 39.123C130.042 39.3219 129.876 39.4755 129.675 39.4755H104.448C104.226 39.4755 104.05 39.6633 104.072 39.8833C104.319 42.3461 105.226 44.2942 106.795 45.7274C108.496 47.2388 110.541 47.9945 112.932 47.9945C114.724 47.9945 116.218 47.6051 117.413 46.8266C118.583 46.0497 119.466 45.0694 120.064 43.8856C120.132 43.7529 120.266 43.6664 120.416 43.6664H128.62C128.877 43.6664 129.06 43.9122 128.979 44.1547C128.324 46.1176 127.295 47.9243 125.893 49.5746C124.423 51.315 122.584 52.6892 120.378 53.6967C118.218 54.7043 115.758 55.2081 113.001 55.2081ZM113.07 26.6284C110.909 26.6284 109.002 27.2466 107.347 28.4833C105.794 29.6009 104.768 31.2828 104.267 33.5298C104.215 33.7628 104.396 33.9795 104.636 33.9795H120.798C121.019 33.9795 121.194 33.7938 121.172 33.575C120.964 31.5196 120.148 29.8681 118.723 28.6207C117.206 27.2925 115.322 26.6284 113.07 26.6284Z" fill="#1C4396"/>
<path d="M154.059 54.2403C157.34 54.2403 160 51.5896 160 48.3198C160 45.0501 157.34 42.3994 154.059 42.3994C150.777 42.3994 148.117 45.0501 148.117 48.3198C148.117 51.5896 150.777 54.2403 154.059 54.2403Z" fill="#2C71F0"/>
</svg>
