<svg width="176" height="60" viewBox="0 0 176 60" fill="none" xmlns="http://www.w3.org/2000/svg">
<path fill-rule="evenodd" clip-rule="evenodd" d="M117.791 51.3409C121.183 51.3409 123.444 46.9119 123.444 40.295C123.444 33.5704 121.183 29.2481 117.845 29.2481C114.561 29.2481 112.3 33.6779 112.3 40.4009C112.3 47.0186 114.508 51.3409 117.791 51.3409ZM118.061 25.8867C126.728 25.8867 132.381 31.5967 132.381 40.0814C132.381 48.6729 126.566 54.6493 117.791 54.6493C109.231 54.6493 103.363 48.8327 103.363 40.2942C103.363 31.6496 109.286 25.8867 118.061 25.8867Z" fill="#1E1E1E"/>
<path fill-rule="evenodd" clip-rule="evenodd" d="M85.9042 51.3409C89.2962 51.3409 91.557 46.9119 91.557 40.295C91.557 33.5704 89.2962 29.2481 85.9586 29.2481C82.6743 29.2481 80.4135 33.6779 80.4135 40.4009C80.4135 47.0186 82.62 51.3409 85.9042 51.3409ZM86.174 25.8867C94.8413 25.8867 100.494 31.5967 100.494 40.0814C100.494 48.6729 94.6794 54.6493 85.9042 54.6493C77.3446 54.6493 71.4766 48.8327 71.4766 40.2942C71.4766 31.6496 77.399 25.8867 86.174 25.8867Z" fill="#1E1E1E"/>
<path fill-rule="evenodd" clip-rule="evenodd" d="M53.626 51.343C50.3426 51.343 48.1386 47.0175 48.1386 40.4021C48.1386 33.6735 50.3953 29.243 53.6796 29.243C56.1306 29.243 57.9987 31.5763 58.8213 35.4804C59.1225 36.893 59.282 38.516 59.282 40.2969C59.282 43.1921 58.848 45.6666 58.078 47.5352L58.069 47.5441C57.078 49.9479 55.5289 51.343 53.626 51.343ZM68.6108 51.0708C67.6278 51.009 67.1857 50.5531 67.1501 49.4832L69.5396 10.775C69.602 9.70431 69.3979 8.60791 68.8052 7.71296C67.8497 6.28265 66.2205 5.50168 64.1144 5.37005C59.8747 5.09795 57.6707 7.60781 57.5735 9.01163C58.0779 8.24832 58.9273 8.30049 58.9273 8.30049C60.0609 8.37915 60.4764 8.96749 60.3792 10.4235L59.3613 26.7597C57.7241 26.1809 55.8917 25.8823 53.9006 25.8823C45.1207 25.8823 39.1992 31.6469 39.1992 40.2969C39.1992 48.8339 45.0673 54.6506 53.626 54.6506C56.1751 54.6506 58.4674 54.1418 60.4415 53.2115C61.2731 53.6762 62.282 53.9395 63.4327 54.01C67.6724 54.2734 69.8764 51.7723 69.9647 50.3693C69.4602 51.1237 68.6108 51.0708 68.6108 51.0708Z" fill="#1E1E1E"/>
<path fill-rule="evenodd" clip-rule="evenodd" d="M164.316 37.4127C161.625 39.3341 156.725 40.2411 156.725 44.8307C156.725 47.4986 158.394 49.1528 160.117 49.1528C162.056 49.1528 163.993 47.0716 164.316 43.9236V37.4127ZM173.252 36.2922V49.6329C173.252 51.0206 173.684 51.5543 174.759 51.5543C174.759 51.5543 175.568 51.5543 175.998 50.8072C175.998 52.1411 174.06 54.6493 170.022 54.6493C167.115 54.6493 165.07 53.3146 164.477 50.5936C162.701 53.2616 159.794 54.6493 156.564 54.6493C151.612 54.6493 147.789 51.4476 147.789 46.6446C147.789 36.8259 163.563 37.8935 163.939 33.4637C162.862 29.9425 160.009 28.7682 158.125 28.7682C157.372 28.7682 156.833 28.928 156.564 29.1414C157.478 29.8887 158.125 31.063 158.125 32.3969C158.125 34.638 156.241 36.5056 153.872 36.5056C151.504 36.5056 149.619 34.638 149.619 32.1835C149.619 28.501 153.657 25.8867 160.441 25.8867C166.47 25.8867 173.252 27.9671 173.252 36.2922Z" fill="#1E1E1E"/>
<path fill-rule="evenodd" clip-rule="evenodd" d="M145.165 51.6945C144.183 51.6327 143.742 51.1783 143.703 50.1069L146.089 11.3963C146.155 10.3263 145.948 9.23074 145.352 8.335C144.405 6.90629 142.775 6.12372 140.662 5.99048C136.422 5.7232 134.219 8.22904 134.129 9.62966C134.631 8.87357 135.479 8.92735 135.479 8.92735C136.61 8.99797 137.026 9.58712 136.933 11.0447L134.556 49.224C134.489 50.2946 134.696 51.3911 135.291 52.2868C136.24 53.7156 137.869 54.4981 139.982 54.6314C144.221 54.8986 146.425 52.3928 146.515 50.9921C146.013 51.7483 145.165 51.6945 145.165 51.6945Z" fill="#1E1E1E"/>
<path fill-rule="evenodd" clip-rule="evenodd" d="M25.8673 51.6908C24.8957 51.629 24.5296 51.1746 24.6706 50.1023L33.5315 11.3701C33.776 10.2993 33.7517 9.20293 33.3071 8.30719C32.5971 6.87768 31.099 6.0943 29.0083 5.96106C24.813 5.69459 22.1903 8.20124 21.8665 9.60265C22.4948 8.84656 23.3337 8.89954 23.3337 8.89954C24.4528 8.97096 24.771 9.56011 24.4342 11.0185L15.6714 49.2186C15.4259 50.2902 15.4495 51.3873 15.8948 52.2831C16.6048 53.7134 18.1029 54.496 20.1928 54.6292C24.388 54.8965 27.0116 52.3891 27.3354 50.9877C26.7062 51.7445 25.8673 51.6908 25.8673 51.6908Z" fill="#E1BB61"/>
<path fill-rule="evenodd" clip-rule="evenodd" d="M10.3517 51.6908C9.38007 51.629 9.01407 51.1746 9.15497 50.1023L18.0157 11.3701C18.2604 10.2993 18.2361 9.20293 17.7915 8.30719C17.0814 6.87768 15.5833 6.0943 13.4927 5.96106C9.29748 5.69459 6.67477 8.20124 6.35088 9.60265C6.97923 8.84656 7.81811 8.89954 7.81811 8.89954C8.93714 8.97096 9.25538 9.56011 8.91771 11.0185L0.155661 49.2186C-0.0896869 50.2902 -0.0662048 51.3873 0.379145 52.2831C1.08928 53.7134 2.58727 54.496 4.67718 54.6292C8.87237 54.8965 11.4959 52.3891 11.8198 50.9877C11.1906 51.7445 10.3517 51.6908 10.3517 51.6908Z" fill="#E1BB61"/>
</svg>
