<svg width="54" height="54" viewBox="0 0 54 54" fill="none" xmlns="http://www.w3.org/2000/svg">
<path fill-rule="evenodd" clip-rule="evenodd" d="M33.406 42.8743C32.7108 42.8299 32.449 42.5034 32.5498 41.7329L38.8893 13.9009C39.0642 13.1315 39.0468 12.3437 38.7288 11.7C38.2207 10.6728 37.1489 10.1099 35.6532 10.0141C32.6517 9.82264 30.7754 11.6239 30.5437 12.6309C30.9932 12.0876 31.5934 12.1256 31.5934 12.1256C32.394 12.177 32.6217 12.6003 32.3807 13.6483L26.1114 41.0979C25.9358 41.8679 25.9527 42.6563 26.2712 43.3C26.7793 44.3277 27.8511 44.8901 29.3462 44.9858C32.3477 45.1779 34.2246 43.3761 34.4563 42.3691C34.0062 42.913 33.406 42.8743 33.406 42.8743Z" fill="#E1BB61"/>
<path fill-rule="evenodd" clip-rule="evenodd" d="M22.4061 42.8743C21.7109 42.8299 21.449 42.5034 21.5498 41.7329L27.8892 13.9009C28.0642 13.1315 28.0469 12.3437 27.7288 11.7C27.2208 10.6728 26.149 10.1099 24.6532 10.0141C21.6518 9.82264 19.7754 11.6239 19.5437 12.6309C19.9932 12.0876 20.5934 12.1256 20.5934 12.1256C21.394 12.177 21.6217 12.6003 21.3801 13.6483L15.1114 41.0979C14.9358 41.8679 14.9526 42.6563 15.2713 43.3C15.7793 44.3277 16.851 44.8901 18.3462 44.9858C21.3477 45.1779 23.2246 43.3761 23.4564 42.3691C23.0062 42.913 22.4061 42.8743 22.4061 42.8743Z" fill="#E1BB61"/>
</svg>
