<svg width="54" height="54" viewBox="0 0 54 54" fill="none" xmlns="http://www.w3.org/2000/svg">
<g clip-path="url(#clip0_557_78871)">
<path d="M8.94679 21.1866C9.02222 21.4213 9.06802 21.7958 9.33091 21.8919C9.42625 21.9263 9.52888 21.9344 9.62725 21.9597C9.72553 21.985 9.83978 22.0336 9.93483 21.985C10.0188 21.9405 10.0577 21.8302 10.111 21.7583C10.682 20.9578 11.4479 20.5166 12.4401 20.5723C12.8063 20.5925 12.8499 20.4761 12.879 20.1442C12.8792 20.1371 12.8798 20.131 12.8808 20.1249C13.4639 16.9371 14.7893 16.4229 14.7893 16.4229L14.6578 15.9331L13.7235 16.0363C13.7235 16.0363 13.5821 16.0576 13.5417 15.8694C13.5011 15.6811 13.6146 15.6457 13.6991 15.6295L14.5699 15.4737C14.5721 15.3755 14.5799 15.2763 14.5934 15.1781C14.6716 14.7774 14.8178 14.3938 15.0255 14.0427C15.3468 13.4982 15.753 13.0084 16.2018 12.5641C16.73 12.0409 17.3187 11.5925 17.891 11.1209C18.4474 10.6615 18.9953 10.1443 19.2806 9.46628C19.4747 9.00581 19.5321 8.46843 19.3447 8.00492C19.1455 7.50902 18.7002 7.1882 18.1949 7.05562C17.5297 6.88156 16.8566 7.0961 16.4032 7.6092C16.033 8.03121 15.7386 8.51396 15.5334 9.03617C15.0519 10.2526 14.7055 11.5096 14.3491 12.7625C14.2145 13.232 14.0513 13.6925 13.8601 14.1418C13.7197 14.4738 13.4149 14.6124 13.0662 14.5507C12.6984 14.4859 12.5346 14.2218 12.5143 13.8544C12.4891 13.4132 12.5797 12.9861 12.6697 12.56C12.7341 12.2554 12.7867 11.9508 12.7356 11.6391C12.6627 11.1938 12.4509 11.0916 12.0595 11.3082C11.4472 11.6462 11.2293 12.2321 11.1035 12.8667C10.9473 13.6459 11.0083 14.4373 10.9946 15.2237C10.9946 15.8147 11.0019 16.4078 10.9921 16.9968C10.9865 17.3651 10.8881 17.7254 10.7061 18.0452C10.4858 18.4359 10.1527 18.5087 9.79327 18.2497C9.56335 18.0847 9.42999 17.8398 9.26498 17.6182C9.11403 17.4157 9.03203 17.018 8.73669 17.104C8.47057 17.181 8.43488 17.5099 8.40394 17.7902C8.39039 17.9309 8.38403 18.0725 8.38483 18.2142C8.39636 18.8903 8.50455 19.5612 8.66804 20.217C8.74832 20.5429 8.84366 20.8657 8.94679 21.1866ZM9.49268 19.9691C9.52726 19.8365 9.59227 19.713 9.68256 19.6098C10.0453 19.1969 10.4017 19.2232 10.9921 19.2414C11.2611 19.2495 11.7541 19.3285 11.7358 19.6928C11.7358 19.6928 10.7896 19.6503 10.3929 19.7049C10.3004 19.7191 10.2129 19.7555 10.1382 19.8112C10.0634 19.8679 10.0041 19.9417 9.96526 20.0268C9.92694 20.1209 9.89994 20.2191 9.88478 20.3192H9.4489C9.45062 20.2008 9.46528 20.0834 9.49268 19.9691Z" fill="white"/>
<path d="M15.226 16.2476C15.226 16.2476 15.8704 16.2426 16.1377 16.2476C16.381 16.2527 16.5944 16.3134 16.831 16.3579C16.8812 16.3691 16.933 16.3721 16.984 16.365C17.1681 16.3337 17.3593 16.0523 17.4796 15.9228C17.6502 15.7457 17.802 15.5504 17.9323 15.3409C18.0256 15.185 18.1039 15.0089 18.0851 14.8288C18.0662 14.6476 17.9198 14.4756 17.7384 14.4756C17.2067 14.4756 16.6764 15.0798 16.38 15.4228C16.7873 15.522 16.8579 15.8803 16.8417 15.9875C16.8456 15.9612 16.567 15.7183 16.1406 15.8013C15.884 15.8509 15.1895 15.9268 15.1895 15.9268L15.226 16.2476Z" fill="white"/>
<path d="M13.3372 23.9561C13.3315 24.0958 13.4052 24.1919 13.5785 24.2081C13.7043 24.195 13.7873 24.109 13.791 23.9683C13.794 23.8448 13.7156 23.7568 13.5898 23.7456C13.4471 23.7325 13.3435 23.8074 13.3372 23.9561Z" fill="white"/>
<path d="M5.34479 34.0925C5.31507 34.0288 5.28969 33.9418 5.2089 33.9752C5.15683 33.9964 5.1174 34.0754 5.09496 34.1371C4.92722 34.5976 4.77676 35.0651 4.59871 35.5215C4.41652 35.9881 4.19115 36.4394 3.90562 36.8503C3.65942 37.2066 3.17612 37.8087 2.88887 37.7014C2.746 37.6478 2.69515 38.2894 2.91404 38.2024C3.13284 38.1143 3.65214 37.7591 3.89631 37.495C3.96274 37.4231 4.05 37.3422 4.14383 37.3695C4.22461 37.3928 4.26212 37.4818 4.29155 37.5527C4.51924 38.1002 4.72874 38.6538 4.98788 39.1881C5.00749 39.2276 5.03136 39.2721 5.07412 39.2853C5.12195 39.3004 5.17473 39.2691 5.19991 39.2256C5.22174 39.18 5.23307 39.1304 5.23307 39.0798C5.3274 37.8866 6.07884 35.2675 6.07884 35.2675C5.73699 34.9548 5.53194 34.4974 5.34479 34.0925Z" fill="white"/>
<path d="M6.75843 29.8912C6.27321 29.7141 5.7978 29.5117 5.33412 29.284C5.15505 29.196 4.97619 29.1039 4.78318 29.0533C4.17066 28.8923 3.84064 29.3731 3.51214 29.8092C2.95665 30.544 2.48549 31.1552 2.07327 31.9122C1.49917 32.9647 1.12841 34.1468 0.906272 34.9473C0.676149 35.7782 0.482427 36.3884 0.698294 36.4714C0.986251 36.5817 1.56186 35.6041 1.87196 35.1871C2.75241 34.0021 2.87819 33.2987 3.25047 33.2683C3.54176 33.2451 3.1713 34.672 3.05978 35.5515C3.02763 35.8055 2.77961 37.024 3.01226 37.0776C3.26989 37.1363 3.80869 35.8429 3.9277 35.596C4.50806 34.3907 4.76558 32.4577 5.12078 32.4152C5.24656 32.4 5.32006 32.5862 5.38265 32.7168C5.64856 33.2764 5.89203 33.8492 6.16553 34.4059C6.29809 34.2328 6.3363 34.0071 6.36269 33.7916C6.41456 33.3716 6.43822 32.9465 6.3999 32.5255C6.363 32.1217 6.26886 31.726 6.15572 31.3374C6.1174 31.2058 5.8068 30.5095 6.02539 30.4266C6.1169 30.3922 6.2543 30.5207 6.30031 30.5855C6.43468 30.7727 6.61304 30.8891 6.77249 30.6553C6.84862 30.544 6.92496 30.4327 7.0014 30.3203C7.00696 30.3132 7.01221 30.3051 7.01747 30.297C7.03972 30.2656 7.0567 30.2302 7.06782 30.1938C7.11716 30.0137 6.88441 29.9368 6.75843 29.8912Z" fill="white"/>
<path d="M15.1766 21.0567C15.2361 21.0183 15.2846 20.9646 15.3177 20.9019C15.3507 20.8391 15.3671 20.7693 15.3653 20.6985C15.3617 20.6003 15.3218 20.5072 15.2535 20.4373C15.1851 20.3675 15.0933 20.326 14.9957 20.32C14.7694 20.3028 14.5837 20.4242 14.5621 20.6721C14.5339 20.995 14.8979 21.2328 15.1766 21.0567Z" fill="white"/>
<path d="M20.7166 29.8871C19.7127 30.2676 18.9957 30.4842 17.8887 30.6694C17.453 30.7423 16.4008 31.8889 15.8644 32.4688C15.6762 32.6722 15.4831 32.9009 15.2134 32.9637C14.8519 33.0477 14.5043 32.8068 14.2012 32.5922C12.5437 31.4223 9.59325 30.7038 8.59561 30.5267C8.16135 30.4498 7.64651 30.4204 7.28899 30.6775C6.63775 31.1481 6.79042 32.1429 7.01226 32.9151C7.171 32.5163 7.45501 32.1186 7.77977 31.8494C6.70013 34.7924 5.47854 38.0268 5.86801 41.1378C5.98499 42.0709 6.25061 43.0151 6.84148 43.7468C7.51193 44.5756 8.52686 45.0452 9.53613 45.3883C13.352 46.6857 17.6376 46.5461 21.3604 45.0007C22.9625 44.3358 24.5752 43.2813 25.1069 41.6286C25.3914 40.7441 25.2466 39.7959 25.1434 38.8719C24.9887 37.4874 24.2092 36.111 23.3544 34.7003C21.7993 32.1318 20.1463 30.385 20.4246 30.2545C20.7553 30.0996 22.0156 31.6177 22.0156 31.6177L27.0802 31.6764V28.5664L23.2158 28.6433C23.2158 28.6433 21.5536 29.5703 20.7166 29.8871Z" fill="white"/>
<path d="M23.9229 28.0709L27.0838 28.0911V27.748L24.2846 27.8118L23.9229 28.0709Z" fill="white"/>
<path d="M13.6874 26.4992C13.5968 26.5963 13.5852 26.6844 13.669 26.7471C13.7528 26.8109 13.8253 26.7319 13.8882 26.6307C13.9815 26.4799 13.9296 26.3564 13.9296 26.3564C13.9296 26.3564 13.8184 26.3575 13.6874 26.4992Z" fill="white"/>
<path d="M12.8287 21.01C11.8914 20.7104 10.86 21.1537 10.37 22.0675C9.84752 23.0421 10.0933 24.0481 11.0346 24.799C11.8504 25.4487 12.9527 25.5034 13.6181 24.9275C13.0704 24.6168 12.883 24.2494 13.0725 23.8608C13.2921 23.4095 13.6794 23.3305 14.3651 23.6159C14.5156 22.3337 13.9367 21.3642 12.8287 21.01Z" fill="white"/>
<path d="M17.3542 17.2184C16.3276 16.2752 15.1335 16.4412 14.3356 17.5979C13.8073 18.366 13.5193 19.2242 13.3719 20.132C13.2632 20.801 13.2798 20.803 13.9794 21.0591C14.1555 20.131 14.7363 19.624 15.4887 19.7455C16.1548 19.8517 16.6433 20.5004 16.5704 21.1815C16.4859 21.9557 15.8303 22.3808 14.7987 22.2846C15.0065 22.8858 15.0156 23.4525 14.8103 24.0142C14.7439 24.1963 14.7763 24.333 14.94 24.4514C15.4631 24.8309 16.0336 25.0292 16.6801 24.8967C17.5756 24.7125 18.1391 24.1387 18.5234 23.3311C19.013 22.3049 19.3063 21.2544 19.0517 20.1158C18.7946 18.9712 18.2118 18.0058 17.3542 17.2184Z" fill="white"/>
<path d="M6.41534 26.2744C6.48652 26.1044 6.15317 25.3606 5.98118 25.3535C5.94994 25.3727 5.89362 25.392 5.85783 25.4304C5.68686 25.6146 5.5271 25.8099 5.35229 25.9911C5.20811 26.1399 5.26574 26.2481 5.37918 26.3807C5.87926 26.9657 6.13689 26.9414 6.41534 26.2744Z" fill="white"/>
<path d="M21.6787 25.042C21.5628 25.2879 21.3998 25.4954 21.2439 25.7089C21.1245 25.8729 21.1905 26.0014 21.2886 26.1238C21.3867 26.2473 21.5079 26.3637 21.6365 26.5023C21.8566 26.2554 22.0545 26.0389 22.2462 25.8172C22.6178 25.3871 22.6077 25.3243 22.0953 25.0663C21.9666 25.0015 21.801 24.7819 21.6787 25.042Z" fill="white"/>
<path d="M20.9126 26.5831C20.7909 26.4131 20.7239 26.5912 20.6756 26.66C20.4324 27.0112 20.2012 27.3705 19.9658 27.7267C20.4259 27.5982 20.7547 27.2996 21.0726 27.0031C21.2756 26.8129 21.0007 26.7056 20.9126 26.5831Z" fill="white"/>
<path d="M4.96503 25.7044C5.15825 25.4858 5.35046 25.2652 5.5459 25.0476C5.60495 24.9818 5.63367 24.9252 5.60525 24.826C5.39242 24.0811 5.12479 23.9506 4.41116 24.2562C4.33382 24.2876 4.25828 24.323 4.18468 24.3625C3.73899 24.6114 3.72635 24.6813 4.06193 25.076C4.22472 25.2672 4.39549 25.4514 4.55706 25.6437C4.62238 25.7206 4.69012 25.7864 4.68082 25.7844C4.87424 25.8137 4.91853 25.7571 4.96503 25.7044Z" fill="white"/>
<path d="M22.6221 24.8088C22.7442 24.8695 22.8171 24.8847 22.9011 24.7693C23.1361 24.4495 23.246 24.07 23.4012 23.7138C23.4263 23.652 23.4012 23.5791 23.345 23.5235C23.1202 23.3049 22.8757 23.1258 22.5261 23.0903C22.3751 23.0529 22.2974 23.1298 22.2684 23.3019C22.2433 23.4537 22.1887 23.5994 22.1457 23.7471C21.9359 24.4758 21.9381 24.4697 22.6221 24.8088Z" fill="white"/>
<path d="M15.05 26.2852C15.05 26.2852 14.9982 26.4137 15.0319 26.6414C15.0526 26.7821 15.1645 26.8367 15.2664 26.8084C15.3682 26.78 15.3768 26.6627 15.3084 26.524C15.2277 26.3601 15.05 26.2852 15.05 26.2852Z" fill="white"/>
<path d="M6.72124 26.6464C6.60578 26.8184 6.30559 27.0046 6.60972 27.2425C7.03589 27.5764 7.49573 27.8618 8.04081 28.0369C7.70756 27.6068 7.37926 27.1726 7.0364 26.7506C6.96643 26.6646 6.8995 26.3822 6.72124 26.6464Z" fill="white"/>
<path d="M26.3581 22.9936C26.3279 22.3004 26.0092 21.8065 25.4004 21.6648C23.556 21.2367 21.7416 21.3724 19.9792 22.0696C19.6388 22.2032 19.4106 22.44 19.3027 22.8499C18.9646 24.1382 18.21 25.0511 16.8312 25.3243C16.1936 25.4498 15.5951 25.3051 14.9992 25.0855C15.5171 25.6583 16.1993 25.9346 17.003 26.221C15.8725 26.3262 15.0787 25.8688 14.3437 25.2555C13.3397 26.2888 11.293 26.6926 10.3656 25.972C11.2584 26.0388 12.0879 26.0985 12.9566 25.7342C12.6975 25.7342 12.529 25.7332 12.3611 25.7342C10.8722 25.7494 9.73697 24.6351 9.71988 23.1404C9.71129 22.4178 9.7121 22.4137 9.00565 22.2791C6.76388 21.851 4.55324 21.9128 2.40721 22.7598C1.68125 23.0462 1.01667 23.4359 0.607886 24.1493C0.428317 24.4631 0.421949 24.7363 0.648128 25.044C1.21969 25.8222 1.93301 26.4466 2.6892 27.0336C4.70541 28.5972 6.83779 29.4989 9.31262 30.093C9.77752 30.2043 10.3824 30.4097 10.8551 30.4897C10.4778 30.1082 10.0665 29.8207 9.69218 29.4898C9.23942 29.089 8.78433 28.7267 8.16726 28.5932C7.85959 28.5264 7.57163 28.3513 7.28681 28.2035C5.84642 27.4627 4.64555 26.4132 3.55207 25.2373C3.34045 25.0106 3.2182 25.0156 3.00942 25.212C2.85553 25.3557 2.68748 25.5166 2.43087 25.5338C2.66504 24.8983 3.21224 24.4236 3.79078 24.1048C4.22919 23.8629 4.71047 23.7041 5.19943 23.6018C5.84672 23.4652 6.50372 23.5067 6.85973 23.5543C6.9123 23.5614 7.05416 23.7172 6.63334 23.7172C6.42203 23.7172 5.92892 23.7648 5.88221 23.9226C5.83843 24.0664 5.9176 24.2252 5.98281 24.3305C6.3098 24.8537 6.62778 25.383 7.00664 25.8688C9.09119 28.5405 11.7248 30.5666 14.5836 32.3346C15.0032 32.5947 15.2213 32.5087 15.5219 32.1808C17.0698 30.4958 18.5908 28.7885 19.8965 26.9031C20.653 25.8111 21.3972 24.705 21.7274 23.3883C21.8467 22.9127 21.7778 22.8438 21.289 22.8762C20.9658 22.8975 20.6528 23.0462 20.3157 22.9461C20.9242 22.4704 21.6214 22.3813 22.3533 22.5058C23.264 22.6606 24.089 23.2486 24.2875 23.8731C23.9632 23.7223 23.8347 23.8478 23.7135 24.1554C23.5421 24.5855 23.3178 24.9934 23.0456 25.3678C22.1222 26.6379 21.2092 27.9303 19.6224 28.4758C19.5609 28.497 19.506 28.5547 19.4622 28.6073C19.0781 29.0688 18.6975 29.5333 18.2517 30.0748C18.6442 30.0009 18.9475 29.9645 19.2393 29.8845C21.9111 29.1589 24.0883 27.7198 25.6069 25.3729C26.0702 24.6594 26.3968 23.8771 26.3581 22.9936ZM14.0604 26.8717C13.8874 27.0731 13.6297 27.1318 13.4544 27.0073C13.2791 26.8828 13.2783 26.5387 13.4982 26.3525C13.7562 26.1339 14.1334 26.0125 14.1334 26.0125C14.1334 26.0125 14.2629 26.6359 14.0604 26.8717ZM15.3866 27.1095C15.1484 27.2057 14.801 27.0569 14.7554 26.7158C14.7021 26.3151 14.9063 25.9275 14.9063 25.9275C14.9063 25.9275 15.4723 26.1147 15.5793 26.472C15.6696 26.7766 15.625 27.0124 15.3866 27.1095Z" fill="white"/>
<path d="M27.0823 27.7478V27.339L24.8081 27.3299C25.5572 26.5091 26.4548 25.5882 26.814 24.5357C27.1731 23.4821 27.0152 22.1685 26.1438 21.4794C25.605 21.0533 24.8901 20.9278 24.2046 20.8833C22.6413 20.7801 21.0746 21.0179 19.6115 21.5785C19.6766 19.7528 18.9194 17.915 17.5886 16.6651C18.0464 16.2826 18.5245 15.8707 18.7152 15.305C18.9059 14.7382 18.6707 13.9843 18.0927 13.8365C17.2305 13.6159 16.1763 14.8921 15.8063 15.305L15.2192 15.3778C15.3774 14.2484 16.2141 13.3386 17.0932 12.611C17.9724 11.8843 18.9532 11.2417 19.5982 10.3005C20.2432 9.36034 20.4555 7.9931 19.7224 7.11871C18.9024 6.14109 17.2608 6.26859 16.2736 7.0772C15.2866 7.88581 14.8162 9.15793 14.4856 10.3916C14.1551 11.6242 13.9071 12.9136 13.215 13.9853C12.7404 13.036 13.8515 11.7062 13.1472 10.9138C12.8327 10.5596 12.2611 10.5272 11.839 10.7407C11.4169 10.9553 11.1246 11.3631 10.9171 11.7882C10.1166 13.4307 10.3818 15.3617 10.4568 17.1874C10.462 17.3199 10.463 17.4646 10.3834 17.5699C10.1896 17.8269 9.76296 17.6063 9.62039 17.3189C9.47773 17.0305 9.43223 16.6682 9.17188 16.4789C8.85743 16.2502 8.38141 16.4273 8.16282 16.7481C7.94422 17.07 7.91864 17.4819 7.91783 17.8705C7.9152 19.1608 8.10792 20.444 8.4894 21.6767C6.28129 21.4642 3.96944 21.3842 1.93443 22.2677C0.895038 22.7201 -0.147693 23.6562 0.0173158 24.7776C0.107909 25.3929 0.545607 25.8938 0.986541 26.331C1.85112 27.1862 2.80468 27.9472 3.83093 28.599C3.79311 28.5737 3.16331 29.4035 3.10335 29.4825C2.86857 29.7921 2.64644 30.1119 2.43674 30.4409C1.59845 31.7565 0.976938 33.1996 0.595962 34.7126C0.459567 35.2551 -0.113215 36.7316 0.566436 37.0767C0.947311 37.269 1.52889 36.431 1.78429 36.1912C2.11532 35.8805 2.48406 35.335 2.68982 34.9322C2.65514 35.5759 2.41116 36.1851 2.43826 36.8834C2.45342 37.2862 2.48184 37.4259 2.46768 37.6303C2.46121 37.7254 2.45534 37.8185 2.45059 37.9106C2.44079 38.0948 2.3603 38.3822 2.47577 38.5269C2.68405 38.789 3.43347 38.4865 3.76015 38.1292C4.94049 39.6655 5.31125 41.6561 6.07877 43.4363C7.08652 45.773 9.98813 46.2355 9.98813 46.2355C9.98813 46.2355 11.2273 49.1917 11.6395 50.2948C9.50645 50.3545 7.40157 50.7988 5.42621 51.6064L9.22466 51.0356C9.23224 51.0376 9.23952 51.0406 9.247 51.0427C8.03815 51.407 6.91999 52.0233 5.96654 52.8512C8.353 51.7126 11.4955 50.6854 13.4945 50.6763C13.7264 50.6763 13.8753 50.6824 13.9222 50.563C13.9556 50.4779 13.9139 50.396 13.7186 50.3211C13.3584 50.1845 12.1794 50.2462 12.1794 50.2462L10.8296 46.4703C13.5463 46.7588 15.8279 47.0958 19.1081 46.3428C19.196 47.0431 18.7371 49.6805 18.7371 49.6805C18.7371 49.6805 17.3284 49.9072 16.8591 50.0438C16.64 50.1076 16.4469 50.1642 16.4457 50.3515C16.4457 50.5458 16.5715 50.5781 16.7999 50.5478C17.2489 50.486 17.9631 50.3363 18.762 50.317C20.6235 50.2725 22.6005 51.0629 24.4828 51.5983C23.2593 50.7573 21.9706 50.0873 20.4932 49.9446C22.162 49.8981 23.6852 50.1713 25.3288 50.4648C23.4828 49.4932 21.3589 49.1856 19.3135 49.5955C19.3385 49.5924 19.8837 46.194 19.8837 46.194C19.8837 46.194 23.8857 45.2336 25.2631 42.5578C25.3275 42.4313 25.3912 42.3058 25.4475 42.1783C26.1866 40.4822 26.013 38.4662 25.2463 36.7822C24.4937 35.1275 23.3123 33.4253 22.3444 32.14L27.0803 32.1623V31.6765L22.0181 31.6188C22.0181 31.6188 20.7578 30.1008 20.4271 30.2556C20.1488 30.3862 21.8017 32.1329 23.3569 34.7005C24.2122 36.1122 24.992 37.4866 25.1459 38.873C25.249 39.796 25.3939 40.7453 25.1094 41.6298C24.5777 43.2825 22.965 44.336 21.3628 45.0009C17.6398 46.5462 13.3544 46.6869 9.53981 45.3885C8.53065 45.0454 7.51562 44.5768 6.84527 43.748C6.25429 43.0173 5.99 42.0721 5.8717 41.139C5.48132 38.027 6.7018 34.7936 7.78356 31.8496C7.4588 32.1198 7.17478 32.5165 7.01604 32.9163C6.79391 32.1431 6.64123 31.1493 7.29278 30.6787C7.6502 30.4206 8.16514 30.4499 8.5993 30.5279C9.59694 30.704 12.5487 31.4235 14.2049 32.5934C14.5068 32.808 14.8557 33.0488 15.2172 32.9638C15.4868 32.9021 15.68 32.6734 15.8682 32.47C16.4045 31.8911 17.4567 30.7435 17.8924 30.6706C18.9992 30.4854 19.7164 30.2688 20.7204 29.8873C21.5573 29.5705 23.2208 28.6445 23.2208 28.6445L27.0852 28.5676V28.0919L23.9239 28.0717L24.2859 27.8126L27.0823 27.7478ZM19.0498 20.1151C19.3054 21.2537 19.0121 22.3042 18.5216 23.3304C18.1362 24.138 17.5737 24.7118 16.6782 24.896C16.0317 25.0285 15.4611 24.8302 14.9382 24.4507C14.7744 24.3323 14.7419 24.1956 14.8084 24.0135C15.0136 23.4508 15.0046 22.8851 14.7968 22.2839C15.8282 22.3801 16.4839 21.955 16.5685 21.1808C16.6427 20.5007 16.1541 19.851 15.4868 19.7448C14.7321 19.6243 14.1516 20.1303 13.9775 21.0584C13.2779 20.8023 13.2613 20.8003 13.37 20.1313C13.5174 19.2235 13.805 18.3653 14.3337 17.5972C15.1309 16.4395 16.325 16.2745 17.3524 17.2177C18.2101 18.0051 18.793 18.9705 19.0498 20.1151ZM14.5616 20.6707C14.5832 20.4228 14.7676 20.3014 14.9953 20.3186C15.0928 20.3246 15.1847 20.3661 15.253 20.4359C15.3214 20.5058 15.3612 20.5989 15.3648 20.6971C15.3666 20.7679 15.3502 20.8377 15.3172 20.9005C15.2842 20.9632 15.2356 21.0169 15.1761 21.0553C14.8971 21.2324 14.5332 20.9946 14.5614 20.6707H14.5616ZM13.0716 23.8596C12.8823 24.2493 13.0696 24.6156 13.6173 24.9273C12.9519 25.5032 11.8496 25.4485 11.0338 24.7978C10.0916 24.0479 9.84678 23.0419 10.3692 22.0673C10.8593 21.1535 11.8906 20.7092 12.8279 21.0098C13.9347 21.365 14.5149 22.3335 14.3644 23.6158C13.6784 23.3293 13.291 23.4083 13.0714 23.8596H13.0716ZM13.7911 23.9679C13.7873 24.1086 13.7041 24.1946 13.5785 24.2078C13.4052 24.1906 13.3315 24.0944 13.3372 23.9558C13.3436 23.808 13.4473 23.7331 13.5908 23.7463C13.7154 23.7564 13.7938 23.8445 13.7908 23.9679H13.7911ZM16.1386 15.8009C16.5662 15.7179 16.8429 15.9608 16.8396 15.9871C16.8562 15.8798 16.7853 15.5215 16.3781 15.4224C16.6746 15.0803 17.2049 14.4751 17.7365 14.4751C17.9178 14.4751 18.0635 14.6482 18.0831 14.8283C18.1027 15.0085 18.0237 15.1846 17.9304 15.3404C17.8001 15.5499 17.6483 15.7452 17.4776 15.9233C17.3573 16.0519 17.1662 16.3332 16.982 16.3646C16.931 16.3717 16.8793 16.3696 16.8291 16.3575C16.5923 16.3129 16.3791 16.2533 16.1358 16.2472C15.8684 16.2411 15.2239 16.2472 15.2239 16.2472L15.1869 15.9264C15.1869 15.9264 15.8817 15.8505 16.1384 15.8009H16.1386ZM8.38394 18.2135C8.38313 18.0719 8.3896 17.9302 8.40305 17.7895C8.43328 17.5092 8.46978 17.1803 8.7359 17.1034C9.03093 17.0183 9.11324 17.4151 9.26419 17.6175C9.42869 17.8391 9.56196 18.084 9.79238 18.249C10.1526 18.5081 10.485 18.4352 10.7053 18.0445C10.8873 17.7247 10.9857 17.3645 10.9913 16.9961C11.0011 16.4061 10.9939 15.815 10.9939 15.224C11.0074 14.4367 10.9465 13.6452 11.1027 12.866C11.2285 12.2325 11.4474 11.6465 12.0586 11.3075C12.45 11.0909 12.6623 11.1931 12.7348 11.6384C12.7851 11.9501 12.7333 12.2547 12.6689 12.5594C12.5788 12.9864 12.489 13.4125 12.5134 13.8537C12.5338 14.2211 12.6976 14.4863 13.0654 14.55C13.414 14.6117 13.7194 14.4731 13.8593 14.1412C14.0504 13.6918 14.2137 13.2313 14.3483 12.7628C14.7047 11.5078 15.0511 10.2509 15.5326 9.0365C15.7378 8.51328 16.0321 8.03053 16.4025 7.60953C16.8552 7.09441 17.5289 6.87885 18.194 7.05494C18.6994 7.18752 19.1446 7.50834 19.3439 8.00423C19.5302 8.46875 19.4739 9.00512 19.2797 9.46559C18.9945 10.1437 18.4466 10.6608 17.8902 11.1202C17.3179 11.5918 16.7292 12.0412 16.2009 12.5634C15.7522 13.0077 15.3457 13.4975 15.0247 14.043C14.817 14.3931 14.6708 14.7777 14.5925 15.1775C14.5791 15.2756 14.5712 15.3748 14.5691 15.474L13.6983 15.6288C13.6138 15.645 13.5008 15.6815 13.5408 15.8687C13.5808 16.0569 13.7227 16.0357 13.7227 16.0357L14.6569 15.9324L14.7885 16.4233C14.7885 16.4233 13.463 16.9364 12.8799 20.1243C12.879 20.1303 12.8784 20.1374 12.8782 20.1435C12.849 20.4754 12.8055 20.5918 12.4392 20.5716C11.4471 20.5159 10.6811 20.9582 10.1102 21.7577C10.0578 21.8315 10.0191 21.9408 9.93404 21.9844C9.83899 22.035 9.72171 21.9844 9.62636 21.9591C9.53102 21.9338 9.42516 21.9267 9.33001 21.8913C9.06723 21.7951 9.02143 21.4217 8.9459 21.1869C8.84277 20.8661 8.74743 20.5432 8.66593 20.2174C8.50376 19.5606 8.39557 18.8896 8.38394 18.2135ZM5.23381 39.0795C5.23371 39.1301 5.22238 39.1797 5.20054 39.2252C5.17547 39.2688 5.12309 39.3011 5.07476 39.286C5.03199 39.2728 5.00813 39.2283 4.98852 39.1878C4.72938 38.6534 4.51988 38.1009 4.29218 37.5534C4.26276 37.4825 4.22535 37.3935 4.14456 37.3692C4.05074 37.3419 3.96348 37.4228 3.89705 37.4957C3.65277 37.7598 3.13661 38.114 2.91468 38.2021C2.69285 38.2901 2.74543 37.6485 2.88961 37.7011C3.17807 37.8094 3.66005 37.2062 3.90635 36.851C4.19188 36.4391 4.41726 35.9878 4.59935 35.5222C4.7775 35.0658 4.92785 34.5983 5.09569 34.1378C5.11804 34.0761 5.15757 33.9961 5.20964 33.9748C5.29043 33.9425 5.31581 34.0285 5.34543 34.0932C5.53258 34.4981 5.73763 34.9555 6.08028 35.2682C6.07948 35.2672 5.32814 37.8873 5.23381 39.0795ZM7.06781 30.1919C7.05679 30.2293 7.03981 30.2638 7.01756 30.2951C7.0123 30.3032 7.00695 30.3113 7.00149 30.3194C6.92535 30.4307 6.84901 30.542 6.77258 30.6544C6.61303 30.8871 6.43467 30.7708 6.3004 30.5835C6.25429 30.5188 6.11699 30.3912 6.02538 30.4257C5.80679 30.5076 6.11749 31.2039 6.15571 31.3355C6.26895 31.7241 6.36299 32.1198 6.39999 32.5236C6.43872 32.9446 6.41455 33.3696 6.36278 33.7906C6.33761 34.0062 6.29807 34.2309 6.16552 34.4039C5.89212 33.8473 5.64855 33.2755 5.38274 32.7159C5.32005 32.5833 5.24715 32.3971 5.12087 32.4133C4.76567 32.4558 4.50805 34.3898 3.92769 35.5941C3.80878 35.841 3.26987 37.1344 3.01235 37.0757C2.7796 37.0221 3.02772 35.8036 3.05987 35.5496C3.17129 34.6701 3.54186 33.2442 3.25056 33.2674C2.87848 33.2968 2.75321 34.0001 1.87205 35.1852C1.56185 35.6032 0.986341 36.5818 0.698283 36.4695C0.482416 36.3865 0.676138 35.7763 0.906362 34.9454C1.1285 34.1449 1.49926 32.9638 2.07326 31.9103C2.48558 31.1533 2.95674 30.5421 3.51213 29.8073C3.84073 29.3722 4.17075 28.8925 4.78327 29.0513C4.97618 29.1019 5.15504 29.1951 5.33411 29.2821C5.79779 29.5098 6.2733 29.7132 6.75842 29.8893C6.88319 29.9359 7.11594 30.0128 7.06781 30.1909V30.1919ZM19.2413 29.8842C18.9495 29.9642 18.646 30.0006 18.2536 30.0745C18.6994 29.5331 19.08 29.0695 19.4641 28.6081C19.5079 28.5544 19.5627 28.4967 19.6244 28.4755C21.2104 27.931 22.124 26.6376 23.0475 25.3676C23.3196 24.9931 23.5439 24.5853 23.7153 24.1551C23.8374 23.8475 23.9652 23.722 24.2894 23.8728C24.092 23.2484 23.2658 22.6604 22.3552 22.5055C21.6234 22.3811 20.9263 22.4701 20.3176 22.9458C20.6547 23.047 20.9676 22.8972 21.2908 22.876C21.7796 22.8436 21.8486 22.9124 21.7293 23.388C21.399 24.7047 20.655 25.8108 19.8983 26.9038C18.5928 28.7882 17.0716 30.4955 15.5238 32.1815C15.2232 32.5084 15.0051 32.5944 14.5855 32.3343C11.7266 30.5663 9.09312 28.5402 7.00846 25.8685C6.62961 25.3827 6.31142 24.8545 5.98464 24.3302C5.91871 24.225 5.83955 24.0661 5.88404 23.9234C5.93206 23.7655 6.42385 23.717 6.63517 23.717C7.05527 23.717 6.91342 23.5611 6.86155 23.554C6.50464 23.5064 5.84753 23.4649 5.20135 23.6016C4.71178 23.7048 4.23061 23.8637 3.79261 24.1045C3.21406 24.4243 2.66697 24.898 2.4328 25.5335C2.6886 25.5163 2.85664 25.3574 3.01134 25.2117C3.22013 25.0164 3.34237 25.0103 3.55389 25.237C4.64788 26.413 5.84834 27.4624 7.28873 28.2033C7.57477 28.351 7.86273 28.5261 8.16919 28.5929C8.78625 28.7265 9.24104 29.0888 9.6941 29.4895C10.0684 29.8205 10.4809 30.1089 10.857 30.4894C10.3843 30.4095 9.77934 30.204 9.31444 30.0927C6.83971 29.4987 4.70733 28.5969 2.69113 27.0333C1.93494 26.4464 1.22152 25.822 0.649953 25.0437C0.423572 24.7361 0.430143 24.4628 0.609711 24.1501C1.01849 23.4356 1.68308 23.046 2.40914 22.7596C4.55557 21.9135 6.7657 21.8508 9.00758 22.2788C9.71392 22.4145 9.7119 22.4175 9.72171 23.1411C9.73981 24.6348 10.8751 25.7491 12.3631 25.7339C12.5311 25.7329 12.6994 25.7339 12.9585 25.7339C12.0889 26.0972 11.2593 26.0385 10.3675 25.9727C11.295 26.6923 13.3416 26.2885 14.3455 25.2552C15.0806 25.8685 15.8745 26.326 17.005 26.2207C16.2012 25.9353 15.519 25.658 15.0011 25.0852C15.597 25.3048 16.1955 25.4505 16.8331 25.324C18.2119 25.0518 18.9666 24.138 19.3047 22.8496C19.4125 22.4388 19.6406 22.203 19.9811 22.0694C21.7414 21.3721 23.5556 21.2365 25.4 21.6646C26.0088 21.8062 26.3275 22.3001 26.3577 22.9933C26.3964 23.8768 26.0698 24.6591 25.6088 25.3726C24.0901 27.7195 21.913 29.1586 19.2413 29.8842ZM19.9647 27.7266C20.2002 27.3704 20.4313 27.0111 20.6746 26.6609C20.7229 26.5911 20.7897 26.414 20.9116 26.584C20.9993 26.7065 21.2743 26.8138 21.0712 27.003C20.7536 27.2995 20.4247 27.5981 19.9647 27.7266ZM22.0935 25.065C22.607 25.324 22.6171 25.3858 22.2445 25.8159C22.0528 26.0385 21.8548 26.2541 21.6347 26.501C21.5062 26.3634 21.3877 26.25 21.2869 26.1235C21.186 25.998 21.1228 25.8716 21.2421 25.7086C21.398 25.4951 21.561 25.2876 21.677 25.0417C21.8002 24.7816 21.9657 25.0012 22.0935 25.065ZM22.1461 23.7473C22.1892 23.5995 22.2435 23.4528 22.2689 23.302C22.2979 23.13 22.3758 23.053 22.5265 23.0905C22.8761 23.1259 23.1207 23.305 23.3456 23.5236C23.4029 23.5793 23.4281 23.6522 23.4017 23.7139C23.2465 24.0701 23.1365 24.4497 22.9016 24.7695C22.8176 24.8838 22.7446 24.8696 22.6226 24.8089C21.9378 24.4699 21.9356 24.476 22.1461 23.7473ZM8.04108 28.0363C7.49601 27.8612 7.03616 27.5758 6.60999 27.2418C6.30586 27.004 6.60605 26.8178 6.72152 26.6458C6.89906 26.3816 6.9667 26.664 7.03667 26.75C7.37953 27.172 7.70783 27.6072 8.04108 28.0363ZM4.55608 25.6428C4.39461 25.4505 4.22383 25.2664 4.06105 25.0751C3.72547 24.6804 3.73801 24.6106 4.18379 24.3626C4.2574 24.3231 4.33293 24.2867 4.41018 24.2553C5.1239 23.9497 5.39123 24.0813 5.60437 24.8251C5.63278 24.9243 5.60437 24.981 5.54492 25.0467C5.34947 25.2643 5.15727 25.485 4.96415 25.7046C4.91754 25.7572 4.87336 25.8139 4.67913 25.7835C4.68914 25.7855 4.62149 25.7197 4.55608 25.6428ZM5.35281 25.991C5.52884 25.8108 5.68738 25.6155 5.85835 25.4303C5.89415 25.3919 5.95046 25.3726 5.9816 25.3534C6.15369 25.3605 6.48704 26.1043 6.41586 26.2743C6.13741 26.9412 5.87979 26.9655 5.37971 26.3816C5.26626 26.248 5.20863 26.1397 5.35281 25.991Z" fill="currentColor"/>
<path d="M9.9678 20.0271C10.0065 19.9421 10.066 19.8672 10.1407 19.8115C10.2154 19.7549 10.303 19.7184 10.3955 19.7043C10.7921 19.6496 11.7382 19.6921 11.7382 19.6921C11.7566 19.3278 11.2635 19.2488 10.9947 19.2407C10.4043 19.2225 10.0478 19.1972 9.6851 19.6091C9.59481 19.7134 9.5298 19.8358 9.49512 19.9694C9.46802 20.0838 9.45367 20.2012 9.45215 20.3186H9.88803C9.90299 20.2184 9.92979 20.1202 9.9678 20.0271Z" fill="currentColor"/>
<path d="M14.9056 25.9277C14.9056 25.9277 14.7023 26.3143 14.7547 26.7161C14.8002 27.0561 15.1476 27.2059 15.3858 27.1098C15.6241 27.0136 15.6688 26.7768 15.5775 26.4722C15.4716 26.115 14.9056 25.9277 14.9056 25.9277ZM15.2676 26.8092C15.1669 26.8375 15.0538 26.7829 15.0332 26.6422C14.9994 26.4145 15.0513 26.286 15.0513 26.286C15.0513 26.286 15.2273 26.3609 15.3096 26.5248C15.3778 26.6635 15.3713 26.7809 15.2676 26.8092Z" fill="currentColor"/>
<path d="M13.4973 26.3537C13.2782 26.5389 13.2784 26.882 13.4535 27.0075C13.6286 27.134 13.8865 27.0743 14.0595 26.8719C14.2608 26.6361 14.1325 26.0137 14.1325 26.0137C14.1325 26.0137 13.7554 26.1351 13.4973 26.3537ZM13.8879 26.63C13.825 26.7312 13.7501 26.8081 13.6688 26.7474C13.5876 26.6867 13.5966 26.5966 13.6872 26.4984C13.8182 26.3578 13.9295 26.3557 13.9295 26.3557C13.9295 26.3557 13.9812 26.4802 13.8879 26.63Z" fill="currentColor"/>
<path d="M39.0301 24.4237C39.1615 24.3215 39.3104 24.2395 39.2337 24.0189C39.0294 23.4329 39.0198 22.8389 39.2352 22.1942C38.2066 22.4189 37.6446 21.8501 37.4886 21.2631C37.3065 20.578 37.7714 19.8473 38.4734 19.6904C39.165 19.5366 39.8729 20.0234 39.9973 20.7338C40.013 20.8229 39.9599 20.9443 40.0781 20.9959C40.2085 21.0526 40.7261 20.6174 40.7085 20.4586C40.5799 19.2947 40.2512 18.1987 39.5011 17.2778C38.8032 16.4216 37.8575 16.3153 36.9604 16.9397C36.0634 17.5631 35.4704 18.4588 35.1306 19.4445C34.5828 21.0334 34.918 22.5666 35.8996 23.9146C36.6741 24.9793 38.072 25.1726 39.0301 24.4237Z" fill="white"/>
<path d="M40.1838 26.335C40.1838 26.335 40.1319 26.4635 40.1657 26.6922C40.1863 26.8319 40.2986 26.8865 40.4004 26.8582C40.5023 26.8308 40.5106 26.7135 40.4422 26.5748C40.361 26.4099 40.1838 26.335 40.1838 26.335Z" fill="white"/>
<path d="M38.8231 26.548C38.7325 26.6451 38.721 26.7332 38.8047 26.7959C38.8885 26.8587 38.9609 26.7807 39.0238 26.6795C39.1171 26.5287 39.0653 26.4053 39.0653 26.4053C39.0653 26.4053 38.9534 26.4073 38.8231 26.548Z" fill="white"/>
<path d="M38.6564 20.6397C38.6609 20.8745 38.8136 21.0121 39.0483 21.0637C39.2746 21.0273 39.4391 20.9069 39.4635 20.6701C39.4927 20.3857 39.2975 20.2571 39.0553 20.2521C38.8244 20.247 38.6513 20.3907 38.6564 20.6397Z" fill="white"/>
<path d="M41.1641 20.1658C41.1709 20.2943 41.0785 20.5463 41.3402 20.4916C41.5862 20.44 41.9637 20.7062 42.0657 20.2305C42.1749 19.7215 42.2905 19.1841 42.5529 18.7307C42.6467 18.5688 42.7793 18.3562 42.7793 18.3562C42.7793 18.3562 42.5665 18.3036 42.4055 18.3239C42.1007 18.3634 41.8772 18.4605 41.9117 18.2368C41.9778 17.7915 43.0102 17.8553 43.0102 17.8553C43.0102 17.8553 43.627 17.1631 43.9689 16.903C44.4169 16.563 45.2958 16.0225 45.4053 15.7675C45.6205 15.2635 45.3135 14.6512 44.7764 14.7281C44.2036 14.8091 43.7282 15.1147 43.267 15.4396C43.1302 15.5357 42.9859 15.5944 42.8376 15.5074C42.7064 15.4295 42.7554 15.2757 42.7673 15.1572C42.7859 14.9893 42.8199 14.8243 42.8691 14.6624C43.0829 13.9398 43.5614 13.3872 44.0529 12.8437C44.6272 12.2092 45.3233 11.6941 45.8467 11.0079C46.0711 10.7145 46.0273 10.4412 45.8249 10.1649C45.562 9.80564 45.2212 9.88762 44.8717 9.98882C44.1022 10.2115 43.7433 10.8662 43.3096 11.4502C43.0006 11.8661 42.7813 12.3711 42.285 12.6302C42.2523 12.5837 42.2209 12.5594 42.2239 12.5401C42.2535 12.36 42.2895 12.1819 42.3227 12.0028C42.7436 9.71559 42.971 7.43244 42.2505 5.15538C41.7726 3.6424 40.3915 2.64355 38.8111 2.69213C37.8566 2.72249 37.028 3.31957 36.7971 4.14437C36.6094 4.81433 36.9624 5.29099 37.6416 5.30313C38.1575 5.31224 38.64 5.17764 39.1257 5.02179C39.696 4.83962 40.385 4.47125 41.0069 4.74348C41.113 4.8123 40.71 4.93781 40.4469 5.04509C40.2491 5.12605 40.1636 5.21611 40.1636 5.21611C40.1636 5.21611 40.2167 5.35274 40.2417 5.41953C40.7448 6.77261 40.829 8.19046 40.8549 9.61539C40.9 12.0999 40.6515 14.5632 40.2794 17.0143C40.2414 17.2663 40.3046 17.4545 40.4182 17.6468C40.8783 18.4241 41.1168 19.2651 41.1641 20.1658Z" fill="white"/>
<path d="M29.7873 27.8104L25.5059 27.7314V28.116L30.0618 28.0462L29.7873 27.8104Z" fill="white"/>
<path d="M40.7038 23.8929C40.7026 23.7411 40.5919 23.6793 40.4341 23.6611C40.3212 23.6996 40.2133 23.7674 40.2279 23.9182C40.2412 24.0548 40.318 24.155 40.4764 24.1439C40.6292 24.1327 40.7051 24.0305 40.7038 23.8929Z" fill="white"/>
<path d="M33.4437 30.1658C33.7526 30.2802 30.8911 34.0004 30.0824 35.5397C29.3511 36.9312 28.7263 38.3744 28.6782 39.9916C28.6352 41.4357 29.2721 42.5591 30.3146 43.4932C32.166 45.1519 34.4207 45.8279 36.8202 46.0607C39.0415 46.2773 41.2629 46.1953 43.4466 45.6691C44.4757 45.4221 45.4634 45.0517 46.341 44.4465C47.6135 43.5681 48.0855 42.2494 48.2241 40.7931C48.4125 38.8116 47.9584 36.9049 47.4302 35.0144C47.4081 34.9355 47.3653 34.8353 47.3212 34.7908C45.9827 33.4397 46.8816 30.8237 46.8816 30.8237L46.4202 30.182C46.4202 30.182 46.2693 30.2306 46.1958 30.2539C44.9441 30.6597 43.658 30.8672 42.3506 30.9765C41.9708 31.0089 41.7072 31.3023 41.4141 31.5108C40.716 32.0057 40.0474 32.5431 39.2303 32.8477C38.9172 32.9651 38.6839 32.9499 38.4314 32.707C37.7731 32.0745 37.0924 31.4653 36.4205 30.8469C36.3199 30.7538 36.2391 30.6475 36.0782 30.6253C34.2511 30.3713 30.7078 28.5273 30.7078 28.5273L25.5059 28.585V31.6596L32.0395 31.7142C32.0395 31.7142 33.2479 30.092 33.4437 30.1658Z" fill="white"/>
<path d="M40.8904 21.0604C39.9921 21.4561 39.4818 22.4924 39.6757 23.5327C40.38 23.2777 40.7222 23.3414 40.9465 23.7695C41.1495 24.1571 40.9749 24.5174 40.3818 24.8929C41.4415 25.5932 42.6377 25.1874 43.339 24.4142C44.0851 23.5914 44.1088 22.5946 43.4472 21.6838C42.8616 20.8782 41.8604 20.6343 40.8904 21.0604Z" fill="white"/>
<path d="M49.3983 25.6506C49.6498 25.3723 49.8944 25.0859 50.1359 24.7975C50.2314 24.6831 50.2189 24.5698 50.0997 24.4706C49.7797 24.2014 49.3465 24.0972 48.9903 23.9666C48.8874 23.9525 48.8142 24.0243 48.7604 24.1093C48.4301 24.6275 48.3758 24.9078 48.7989 25.341C48.8868 25.43 48.9698 25.5231 49.0474 25.6213C49.1571 25.762 49.2806 25.7812 49.3983 25.6506Z" fill="white"/>
<path d="M48.46 31.9897C48.6612 32.0029 48.8194 32.6557 49.0355 33.3246C49.3102 34.1727 49.6443 35.128 49.9114 35.717C50.3139 36.6076 50.5984 36.7989 50.7146 36.7867C50.8404 36.7726 50.849 36.6582 50.8367 36.2969C50.8248 35.9457 50.3555 33.8924 50.2556 33.1546C50.2425 33.0574 50.1869 32.9087 50.3386 32.8672C50.4505 32.8368 50.5034 32.9552 50.5567 33.0331C50.9308 33.5756 51.2945 34.1251 51.6753 34.6635C51.942 35.041 52.225 35.4063 52.512 35.7676C52.5947 35.8719 52.7145 36.0287 52.852 35.9518C52.9824 35.879 52.9122 35.6937 52.8828 35.5642C52.8113 35.2495 52.3746 33.8448 51.6197 32.2478C50.5298 29.9424 49.6539 28.7988 49.6539 28.7988L46.8945 30.0041L47.1237 30.3017L47.611 29.9991C47.293 30.6215 46.7864 33.3904 47.4644 33.9925C47.6339 33.4015 48.095 31.9665 48.46 31.9897Z" fill="white"/>
<path d="M32.062 26.0869C32.3795 26.4502 32.5171 26.4361 32.7729 26.0161C32.8892 25.8258 32.4109 24.8684 32.1518 24.8613C31.9722 24.9716 31.7169 25.0647 31.5619 25.2439C31.4258 25.4007 31.653 25.5596 31.7423 25.7023C31.8316 25.845 31.9521 25.9614 32.062 26.0869Z" fill="white"/>
<path d="M32.0417 24.231C31.9313 23.8444 31.8276 23.4963 31.7338 23.1461C31.6981 23.0125 31.6058 23.0237 31.5074 23.0237C30.8785 23.0237 30.548 23.5226 30.8058 24.0792C30.8529 24.1794 30.8941 24.2836 30.9404 24.3858C31.1575 24.8595 31.1889 24.8737 31.6231 24.5994C31.7849 24.4962 32.0369 24.4688 32.0417 24.231Z" fill="white"/>
<path d="M49.7164 37.5191C49.7942 37.2276 49.9342 37.2408 50.1189 37.4371C50.3384 37.675 50.6059 37.8652 50.9037 37.9927C51.0229 38.0433 51.2576 38.1658 51.2463 37.9553C51.237 37.7782 50.9681 37.2985 50.9681 37.2985C50.9681 37.2985 50.4554 37.4108 50.1342 37.0141C49.5942 36.3472 48.5834 34.1207 48.3519 32.9053C48.201 33.1977 47.8086 34.5033 47.8086 34.5033C48.4267 36.2703 48.7107 37.4554 48.9154 39.3944C49.3398 39.0807 49.5524 38.1334 49.7164 37.5191Z" fill="white"/>
<path d="M45.917 28.0596C46.4218 27.8561 46.777 27.6183 47.1322 27.3815C47.3025 27.2651 47.463 27.1356 47.6125 26.9939L47.1795 26.4434L45.917 28.0596Z" fill="white"/>
<path d="M48.0881 25.3663C47.8795 25.4644 47.6639 25.6851 47.566 25.933C47.4886 26.1294 47.8649 26.7032 48.0211 26.7528C48.1398 26.7902 48.8027 26.1901 48.7976 26.0423C48.7237 25.8966 48.1967 25.3167 48.0881 25.3663Z" fill="white"/>
<path d="M33.0855 26.5497C33.0259 26.6732 32.7332 26.7521 32.9597 26.9444C33.2732 27.2075 33.5704 27.498 34.0414 27.7307C33.8323 27.2298 33.5418 26.9191 33.3317 26.5598C33.2656 26.4434 33.1574 26.3979 33.0855 26.5497Z" fill="white"/>
<path d="M53.0732 25.3639C54.1638 24.1444 52.7662 22.8136 50.9391 22.3531C48.8862 21.8359 46.6254 21.8653 44.5705 22.2883C44.2914 22.345 44.2707 22.4826 44.2903 22.7326C44.4011 24.1474 43.6866 25.1969 42.3785 25.5936C41.9781 25.714 41.5648 25.6381 41.0591 25.6715C41.5482 25.8729 41.9609 25.9367 42.3795 25.9529C42.7837 25.9681 43.1888 25.9559 43.6745 25.9559C42.4221 26.5803 40.6765 26.217 39.6781 25.1807C38.932 25.8618 38.0782 26.2474 36.9224 26.1512C37.2818 26.0217 37.6461 25.9043 37.9973 25.7525C38.3112 25.6159 38.5979 25.4084 38.8895 25.2232C39.002 25.1524 39.1533 25.0593 39.1717 24.9196C38.9549 24.9267 38.7099 25.1139 38.4973 25.1767C38.2715 25.2445 38.0379 25.2829 37.8023 25.291C37.3383 25.3062 36.8779 25.206 36.4615 25.0006C35.6186 24.5887 34.9992 23.7922 34.7587 22.8905C34.6106 22.3339 34.2866 22.0728 33.8029 21.8997C32.1877 21.3218 30.5344 21.2257 28.856 21.5283C28.1015 21.6639 27.7167 22.1325 27.6692 22.8986C27.6519 23.1799 27.6781 23.4623 27.747 23.7355C28.0526 24.9621 28.7627 25.9468 29.6195 26.8364C30.6556 27.9172 31.9089 28.7663 33.2967 29.327C34.0622 29.6377 34.8468 29.9028 35.6965 29.9757C35.0878 29.0406 34.7494 28.7218 33.8642 28.1986C32.211 27.2199 31.1177 25.7444 30.3028 24.0533C30.1438 23.7234 29.9813 23.7244 29.6487 23.8033C30.2602 22.8713 31.067 22.4361 32.0842 22.3956C32.6771 22.3723 33.2512 22.4634 33.706 22.9036C33.3347 22.9036 32.9765 22.853 32.6176 22.8075C32.3238 22.7711 32.1899 22.8804 32.2714 23.1931C32.3594 23.5331 32.4397 23.8732 32.5851 24.197C33.0291 25.1878 33.6051 26.0976 34.232 26.9801C35.5758 28.8726 37.0997 30.6112 38.6928 32.2932C38.8897 32.5007 39.0198 32.5017 39.26 32.361C41.0779 31.2984 42.7848 30.0556 44.3553 28.6519C45.8225 27.3363 47.1314 25.88 48.1106 24.1504C48.1911 24.0088 48.2415 23.7942 48.2415 23.7942C47.8829 23.6293 47.4958 23.5372 47.1017 23.521C47.9862 23.104 49.2719 23.5898 50.3349 24.1626C51.8505 24.9783 51.576 25.4742 51.563 25.4621C51.0498 25.0056 50.718 24.9135 50.718 24.9135C50.718 24.9135 50.5497 25.0937 50.4538 25.1949C49.1438 26.5803 47.712 27.8029 45.9106 28.5224C45.6694 28.6206 45.4172 28.6894 45.1595 28.7269C44.7017 29.1995 43.6647 29.9524 43.15 30.3694C43.672 30.342 44.1905 30.2681 44.6993 30.1487C46.8242 29.6458 48.7858 28.7612 50.5826 27.5235C51.5892 26.8303 52.1767 26.3658 53.0732 25.3639ZM39.1942 26.9204C39.0211 27.1218 38.7635 27.1805 38.5881 27.056C38.4128 26.9315 38.412 26.5874 38.6321 26.4012C38.89 26.1836 39.2671 26.0612 39.2671 26.0612C39.2671 26.0612 39.3969 26.6846 39.1942 26.9204ZM40.5203 27.1582C40.2821 27.2544 39.9347 27.1056 39.8892 26.7645C39.8358 26.3638 40.04 25.9761 40.04 25.9761C40.04 25.9761 40.6061 26.1634 40.713 26.5206C40.8035 26.8263 40.7595 27.0621 40.5203 27.1582Z" fill="white"/>
<path d="M35.3015 16.0697C35.2212 16.2053 35.8046 15.9402 35.8801 15.8885C36.4282 15.5667 36.8337 15.6214 37.4565 15.5364C37.749 15.4969 38.0401 15.4402 38.3292 15.3775C38.4723 15.3471 38.6058 15.2722 38.5556 15.0891C38.5098 14.9261 38.3744 14.9544 38.2467 14.9747C38.0163 15.0111 37.784 15.0374 37.5536 15.0749C36.7195 15.2155 35.758 15.3016 35.3015 16.0697Z" fill="currentColor"/>
<path d="M30.765 33.3526C29.6034 34.9526 28.5956 36.6265 28.1672 38.5949C27.6046 41.1796 28.612 43.2664 30.7794 44.6539C31.6346 45.2014 34.1344 46.2205 34.1344 46.2205L34.7217 49.5066C34.7217 49.5066 32.024 49.2455 30.2569 49.7403C29.2308 50.0288 28.6238 50.4457 28.6238 50.4457C30.0828 49.9923 31.9229 49.8446 33.6693 50.0328C33.8043 50.047 32.3297 50.2565 31.6346 50.4801C30.9555 50.6977 30.2124 50.9983 29.6341 51.4426C29.7599 51.4345 32.575 50.7918 33.5374 50.5904C34.7197 50.3425 36.2054 50.0288 37.4234 50.4143C37.4913 50.4356 37.5705 50.4478 37.6103 50.3769C37.6269 50.3435 37.6308 50.3061 37.6209 50.2706C37.6111 50.2352 37.5883 50.2049 37.5572 50.1856C36.633 49.6078 35.3372 49.5308 35.3372 49.5308L34.8072 46.3774C37.0324 46.8753 40.9854 46.8328 43.16 46.3956L41.7279 50.2423C41.7279 50.2423 40.4802 50.3182 40.0802 50.4255C40.03 50.4386 39.9261 50.4943 39.9074 50.5429C39.8888 50.5914 39.9165 50.6663 40.0601 50.6957C40.2111 50.7271 41.5574 50.5995 43.0924 50.9669C44.9035 51.399 46.6206 51.9992 48.2039 52.8068C47.3552 51.8271 45.0698 50.9497 44.6683 50.8687C45.3005 50.9072 48.4668 51.6106 48.7594 51.6693C48.3166 51.3292 47.7868 51.1278 47.2541 50.977C46.6861 50.8151 46.1103 50.6825 45.5292 50.5793C44.7544 50.4407 43.9733 50.3587 43.1897 50.298C42.9059 50.2767 42.6222 50.2666 42.338 50.2565C42.3515 50.2565 43.9529 46.1315 43.9662 46.1274C43.9662 46.1274 45.1312 45.7226 45.5696 45.5232C47.5513 44.6195 48.2691 43.3464 48.7736 41.5642C48.9689 40.875 48.9951 40.0391 48.9951 40.0391C48.9951 40.0391 49.9736 39.6272 50.127 38.0686C50.4203 38.2832 50.7544 38.5139 51.1124 38.5666C51.4258 38.6111 51.673 38.4562 51.6487 38.0929C51.6115 37.5393 51.174 36.9008 51.174 36.9008C51.219 36.585 51.2318 36.2652 51.2125 35.9464C51.1906 35.6388 50.9393 34.4517 50.9393 34.4517C50.9393 34.4517 51.7239 35.5244 51.9986 35.8725C52.1932 36.1185 52.7012 36.7125 53.078 36.5152C53.4135 36.3391 53.3268 35.9667 53.287 35.6722C52.9389 33.0905 50.1602 28.5364 50.1602 28.5364C50.1602 28.5364 52.5937 26.8544 53.4887 25.8282C54.3381 24.8546 54.017 23.6797 53.3489 22.9965C52.4597 22.0888 51.2544 21.7902 50.0524 21.6222C48.1581 21.3591 46.2627 21.4046 44.3992 21.8995C44.1703 21.9602 44.0485 21.9116 43.9187 21.7103C43.642 21.2781 43.2755 20.9269 42.7867 20.7377C42.587 20.6618 42.551 20.5363 42.5789 20.344C42.6602 19.7793 42.8702 19.2632 43.1306 18.7612C43.1842 18.658 43.2795 18.5183 43.2795 18.5183C43.6568 18.6802 43.5663 19.1822 43.8727 19.1255C44.2286 19.0618 43.9373 18.2775 43.596 18.069C43.596 18.069 43.915 17.7461 44.0191 17.6561C44.1562 17.5377 44.2994 17.4253 44.448 17.3211C44.9787 16.9517 45.5266 16.6046 45.8778 16.0358C46.1329 15.6219 46.2028 15.1847 45.9643 14.7546C45.7186 14.3113 45.293 14.1838 44.8102 14.2314C44.4279 14.2678 44.0719 14.3963 43.7299 14.5674C43.6501 14.6078 43.5623 14.7161 43.4699 14.624C43.3912 14.5451 43.4463 14.4318 43.4817 14.3447C43.601 14.0583 43.7653 13.7932 43.9686 13.5594C44.5529 12.8722 45.2469 12.3014 45.9243 11.7145C46.564 11.1599 46.7109 10.7692 46.4712 10.1904C46.1248 9.3524 45.0228 9.10648 44.175 9.66714C43.7759 9.93128 43.4989 10.3179 43.1723 10.6741C43.0886 10.5284 43.1472 10.4211 43.1613 10.3158C43.3764 8.69964 43.4244 7.08951 43.0222 5.49051C42.6408 3.97551 41.8902 2.80359 40.2337 2.46152C39.9759 2.4089 39.7248 2.32185 39.4708 2.25H38.0351C38.003 2.27328 37.9737 2.30869 37.9378 2.31881C36.6564 2.68719 36.1053 3.38852 36.0544 4.71933C36.0233 5.54211 36.4081 5.94087 37.2344 5.95605C37.8946 5.96718 38.5134 5.76679 39.1254 5.56641C39.4175 5.47027 39.5198 5.56136 39.6378 5.80121C39.9918 6.52278 40.1346 7.29698 40.2197 8.07928C40.4209 9.9242 40.2714 11.762 40.0594 13.5978C39.9424 14.6099 39.8312 15.6209 39.6119 16.6258C38.5496 16.1239 38.3599 16.0581 37.8067 16.1522C36.4841 16.3759 35.6495 17.2229 35.0814 18.3716C34.6367 19.2703 34.4903 20.2438 34.4611 21.2376C34.4546 21.4593 34.4256 21.6121 34.1567 21.4836C33.4576 21.1476 32.7028 20.9978 31.9476 20.9067C30.7026 20.7559 29.4477 20.6699 28.246 21.1759C27.6435 21.4289 27.2181 21.8388 27.0924 22.5158C26.9032 23.537 27.1427 24.466 27.6494 25.3485C28.0536 26.0539 29.2377 27.2946 29.2377 27.2946L25.5059 27.3493V27.7338L29.7875 27.8128L30.062 28.0486L25.5059 28.1194V28.588L30.7077 28.5303C30.7077 28.5303 34.251 30.3742 36.0781 30.6282C36.239 30.6505 36.3193 30.7568 36.4204 30.8499C37.0924 31.4682 37.773 32.0774 38.4314 32.711C38.6829 32.9539 38.9171 32.968 39.2303 32.8506C40.0474 32.545 40.7159 32.0096 41.4141 31.5137C41.7071 31.3053 41.9707 31.0118 42.3505 30.9794C43.6586 30.8701 44.9441 30.6626 46.1958 30.2568C46.269 30.2335 46.4201 30.186 46.4201 30.186L46.8822 30.8276C46.8822 30.8276 45.9835 33.4437 47.3219 34.7947C47.366 34.8383 47.4088 34.9395 47.4309 35.0184C47.9591 36.9089 48.412 38.8155 48.2248 40.7971C48.0862 42.2523 47.6142 43.572 46.3417 44.4505C45.464 45.0547 44.4764 45.4261 43.4474 45.673C41.2636 46.1993 39.0422 46.2812 36.8209 46.0647C34.4214 45.8309 32.1672 45.1559 30.3153 43.4972C29.2729 42.562 28.6359 41.4397 28.6789 39.9955C28.727 38.3783 29.3518 36.9352 30.0831 35.5436C30.8918 34.0043 33.7533 30.2841 33.4443 30.1698C33.2486 30.0959 32.0394 31.7182 32.0394 31.7182L25.5059 31.6635V32.1392L31.6779 32.2394C31.3849 32.6148 31.0189 33.0035 30.765 33.3526ZM43.4463 21.6839C44.1079 22.5958 44.0842 23.5926 43.3382 24.4154C42.6368 25.1886 41.4407 25.5944 40.3809 24.8931C40.974 24.5186 41.1487 24.1583 40.9456 23.7707C40.7213 23.3426 40.3786 23.2779 39.6748 23.5329C39.4819 22.4936 39.9913 21.4572 40.8895 21.0615C41.8595 20.6345 42.8607 20.8784 43.4463 21.6839ZM40.2287 23.9175C40.2141 23.7657 40.322 23.6989 40.4349 23.6604C40.5927 23.6786 40.7034 23.7414 40.7047 23.8922C40.7047 24.0298 40.6292 24.132 40.4782 24.1432C40.3188 24.1543 40.242 24.0541 40.2287 23.9175ZM40.2763 17.0155C40.6483 14.5633 40.8968 12.1011 40.8518 9.61654C40.8266 8.19161 40.7416 6.77376 40.2385 5.41967C40.2134 5.35389 40.1605 5.21727 40.1605 5.21727C40.1605 5.21727 40.2461 5.12718 40.4437 5.04622C40.7069 4.93894 41.1099 4.81244 41.0038 4.74463C40.3818 4.4724 39.6929 4.84078 39.1226 5.02294C38.6379 5.17778 38.1554 5.3134 37.6385 5.30429C36.9592 5.29214 36.6071 4.81548 36.794 4.14552C37.0249 3.32072 37.8535 2.7226 38.8079 2.69326C40.3884 2.64265 41.7687 3.64255 42.2474 5.15654C42.9679 7.4336 42.7404 9.71674 42.3196 12.0029C42.2864 12.182 42.2504 12.3611 42.2207 12.5413C42.2178 12.5595 42.2491 12.5848 42.2819 12.6314C42.7787 12.3723 42.9975 11.8673 43.3064 11.4513C43.7402 10.8664 44.0991 10.2126 44.8685 9.98896C45.217 9.88877 45.5588 9.80578 45.8217 10.1661C46.023 10.4423 46.068 10.7156 45.8436 11.0091C45.3201 11.6952 44.6241 12.2093 44.0498 12.8449C43.5583 13.3884 43.0798 13.9409 42.866 14.6635C42.8168 14.8244 42.7827 14.9904 42.7641 15.1584C42.7522 15.2768 42.7032 15.4296 42.8345 15.5075C42.9827 15.5956 43.127 15.5359 43.2639 15.4397C43.7258 15.1159 44.2012 14.8103 44.7733 14.7283C45.3103 14.6534 45.6174 15.2647 45.4021 15.7687C45.2927 16.0237 44.4138 16.5631 43.9657 16.9041C43.6239 17.1642 43.0071 17.8565 43.0071 17.8565C43.0071 17.8565 41.9757 17.7927 41.9086 18.238C41.8753 18.4616 42.0975 18.3645 42.4024 18.325C42.5634 18.3038 42.7762 18.3574 42.7762 18.3574C42.7762 18.3574 42.6436 18.5689 42.5498 18.7319C42.2874 19.1853 42.1725 19.7226 42.0625 20.2317C41.9619 20.7073 41.583 20.4402 41.337 20.4928C41.0765 20.5474 41.1688 20.2954 41.161 20.1659C41.1137 19.2662 40.8752 18.4252 40.4124 17.649C40.3007 17.4557 40.2383 17.2664 40.2763 17.0155ZM35.129 19.4443C35.4688 18.4586 36.0598 17.565 36.9587 16.9396C37.8578 16.3141 38.8014 16.4214 39.4995 17.2776C40.2498 18.1985 40.5786 19.2945 40.7069 20.4584C40.7245 20.6173 40.2068 21.0514 40.0765 20.9958C39.9583 20.9441 40.0114 20.8227 39.9957 20.7336C39.8712 20.0232 39.1634 19.5354 38.4719 19.6903C37.7698 19.8471 37.3049 20.5778 37.487 21.2629C37.643 21.8499 38.205 22.4187 39.2336 22.194C39.0182 22.8387 39.0278 23.4327 39.232 24.0187C39.3075 24.2393 39.1599 24.3213 39.0285 24.4235C38.0704 25.1724 36.6725 24.9781 35.898 23.9145C34.9164 22.5654 34.581 21.0332 35.129 19.4443ZM39.4647 20.6699C39.4396 20.9067 39.2768 21.0271 39.0494 21.0636C38.8148 21.0119 38.662 20.8743 38.6575 20.6395C38.6525 20.3906 38.8256 20.2469 39.0565 20.2519C39.3 20.257 39.4939 20.3855 39.4647 20.6699ZM44.6988 30.1495C44.1898 30.269 43.6714 30.3428 43.1495 30.3702C43.6641 29.9532 44.701 29.2002 45.1589 28.7276C45.4166 28.6902 45.6688 28.6214 45.9101 28.5232C47.7109 27.8037 49.1432 26.5801 50.4533 25.1957C50.5491 25.0955 50.7175 24.9143 50.7175 24.9143C50.7175 24.9143 51.0492 25.0064 51.5624 25.4638C51.5755 25.475 51.8499 24.9791 50.3343 24.1634C49.2712 23.5906 47.9856 23.1058 47.1011 23.5218C47.4951 23.538 47.8824 23.6311 48.2409 23.795C48.2409 23.795 48.1906 24.0096 48.1101 24.1523C47.1308 25.8808 45.821 27.3371 44.3547 28.6538C42.7843 30.0564 41.0774 31.2992 39.2594 32.3618C39.0202 32.5025 38.8892 32.5015 38.6922 32.294C37.0983 30.612 35.5753 28.8734 34.2314 26.9819C33.6045 26.0984 33.0285 25.1886 32.5846 24.1978C32.4392 23.874 32.3582 23.5339 32.2708 23.1939C32.1898 22.8812 32.3232 22.7719 32.617 22.8083C32.976 22.8528 33.3342 22.9045 33.7055 22.9045C33.2507 22.4642 32.6766 22.3731 32.0837 22.3964C31.0664 22.4379 30.2597 22.8721 29.6482 23.8041C29.9817 23.7252 30.1442 23.7242 30.3022 24.0541C31.1172 25.7452 32.2105 27.2207 33.8637 28.1994C34.7489 28.7226 35.0872 29.0414 35.696 29.9775C34.8463 29.9036 34.0609 29.6385 33.2962 29.3278C31.9084 28.7671 30.655 27.919 29.619 26.8372C28.7622 25.9476 28.0521 24.9639 27.7464 23.7373C27.6776 23.4631 27.6514 23.1807 27.6687 22.8994C27.7162 22.1343 28.1013 21.6657 28.8555 21.5291C30.5339 21.2275 32.1871 21.3226 33.8023 21.9005C34.286 22.0746 34.6101 22.3357 34.7582 22.8913C34.9986 23.794 35.618 24.5905 36.461 25.0024C36.8773 25.2068 37.3378 25.307 37.8018 25.2928C38.0373 25.2837 38.2709 25.2453 38.4968 25.1775C38.7093 25.1147 38.9543 24.9285 39.1712 24.9204C39.1528 25.0611 39.0014 25.1532 38.8889 25.224C38.5974 25.4092 38.3103 25.6167 37.9967 25.7533C37.6445 25.9041 37.2813 26.0225 36.9218 26.153C38.0777 26.2482 38.9314 25.8626 39.6775 25.1815C40.676 26.2178 42.4215 26.5811 43.6739 25.9567C43.1882 25.9567 42.7832 25.9689 42.3789 25.9537C41.9604 25.9375 41.5476 25.8747 41.0586 25.6733C41.5642 25.6389 41.9775 25.7158 42.3779 25.5944C43.6861 25.1987 44.3994 24.1482 44.2898 22.7344C44.2702 22.4824 44.2898 22.3468 44.57 22.2891C46.6249 21.8661 48.8856 21.8357 50.9386 22.3549C52.7655 22.8154 54.1632 24.1462 53.0727 25.3647C52.1761 26.3676 51.5885 26.8311 50.5824 27.5243C48.7853 28.761 46.8237 29.6445 44.6988 30.1495ZM48.7991 26.0427C48.8041 26.1905 48.1413 26.7906 48.0225 26.7532C47.8663 26.7046 47.49 26.1298 47.5675 25.9345C47.6653 25.6865 47.881 25.4659 48.0894 25.3677C48.1978 25.3161 48.7249 25.896 48.7988 26.0427H48.7991ZM48.7603 24.1098C48.8144 24.0258 48.8861 23.9529 48.9902 23.9681C49.3464 24.0976 49.7797 24.2009 50.0996 24.4711C50.2189 24.5723 50.2314 24.6856 50.1359 24.799C49.8943 25.0864 49.6504 25.3728 49.3983 25.6521C49.2806 25.7826 49.157 25.7634 49.0473 25.6227C48.9697 25.5246 48.8868 25.4305 48.7988 25.3414C48.3755 24.9072 48.4298 24.6269 48.7601 24.1098H48.7603ZM47.612 26.994C47.4626 27.1357 47.302 27.2653 47.1318 27.3806C46.7767 27.6175 46.4215 27.8553 45.9165 28.0597L47.1791 26.4425L47.612 26.994ZM34.0425 27.7308C33.5716 27.498 33.2743 27.2076 32.9609 26.9445C32.7327 26.7522 33.0257 26.6732 33.0867 26.5488C33.1586 26.398 33.2667 26.4435 33.3342 26.5589C33.5417 26.9191 33.8322 27.2288 34.0425 27.7308ZM31.5643 25.2442C31.7192 25.0651 31.9745 24.972 32.1541 24.8617C32.4132 24.8688 32.8914 25.8262 32.7753 26.0164C32.5193 26.4364 32.3817 26.4506 32.0644 26.0873C31.9544 25.9618 31.8321 25.8434 31.7446 25.7027C31.6571 25.562 31.4264 25.4011 31.563 25.2442H31.5643ZM30.9396 24.386C30.8933 24.2848 30.8521 24.1806 30.8051 24.0784C30.5472 23.5228 30.8788 23.0249 31.5066 23.0239C31.6057 23.0239 31.698 23.0127 31.733 23.1463C31.8269 23.4965 31.9305 23.8446 32.0409 24.2312C32.0361 24.469 31.7841 24.4964 31.6216 24.5996C31.1869 24.8739 31.1555 24.8597 30.9384 24.386H30.9396ZM47.6115 29.9987L47.1233 30.3013L46.893 30.0048L49.6524 28.7995C49.6524 28.7995 50.5283 29.9431 51.6182 32.2495C52.3729 33.8455 52.8098 35.2501 52.8813 35.5659C52.9107 35.6944 52.9819 35.8796 52.8505 35.9525C52.713 36.0304 52.5932 35.8725 52.5105 35.7683C52.2235 35.407 51.9405 35.0417 51.6738 34.6642C51.293 34.1268 50.9292 33.5763 50.5552 33.0338C50.5018 32.9569 50.449 32.8375 50.3371 32.8678C50.1861 32.9093 50.2409 33.0581 50.2541 33.1552C50.3547 33.894 50.8233 35.9464 50.8351 36.2976C50.8475 36.6589 50.8382 36.7733 50.7131 36.7874C50.5969 36.8006 50.3137 36.6083 49.9099 35.7177C49.6428 35.1277 49.3087 34.1734 49.034 33.3253C48.8179 32.6573 48.6597 32.0046 48.4585 31.9914C48.0935 31.9671 47.6324 33.4022 47.4639 33.9932C46.787 33.389 47.2935 30.6211 47.6115 29.9987ZM47.808 34.5033C47.808 34.5033 48.2002 33.1988 48.3513 32.9053C48.5828 34.1207 49.5935 36.3472 50.1336 37.0141C50.4548 37.4108 50.9675 37.2985 50.9675 37.2985C50.9675 37.2985 51.2363 37.7792 51.2456 37.9553C51.257 38.1658 51.0223 38.0443 50.9031 37.9937C50.6052 37.8652 50.3378 37.676 50.1182 37.4371C49.9346 37.2408 49.7944 37.2276 49.7158 37.5191C49.5518 38.1344 49.3384 39.0807 48.9128 39.3944C48.7101 37.4554 48.426 36.2703 47.808 34.5033Z" fill="currentColor"/>
<path d="M40.0395 25.9756C40.0395 25.9756 39.8361 26.3632 39.8885 26.764C39.934 27.105 40.2814 27.2538 40.5196 27.1577C40.7578 27.0615 40.8028 26.8247 40.7113 26.5201C40.6054 26.1628 40.0395 25.9756 40.0395 25.9756ZM40.4016 26.8571C40.2998 26.8854 40.1876 26.8308 40.167 26.6901C40.1333 26.4624 40.1851 26.3338 40.1851 26.3338C40.1851 26.3338 40.3612 26.4098 40.4434 26.5737C40.5118 26.7124 40.5051 26.8287 40.4016 26.8571Z" fill="currentColor"/>
<path d="M38.6312 26.4025C38.4121 26.5877 38.4121 26.9318 38.5872 27.0573C38.7624 27.1828 39.0202 27.1231 39.1932 26.9217C39.396 26.6859 39.2662 26.0635 39.2662 26.0635C39.2662 26.0635 38.8892 26.1839 38.6312 26.4025ZM39.0217 26.6798C38.9588 26.78 38.8838 26.8569 38.8026 26.7962C38.7213 26.7355 38.7304 26.6454 38.8209 26.5482C38.9519 26.4076 39.0632 26.4055 39.0632 26.4055C39.0632 26.4055 39.115 26.529 39.0229 26.6798H39.0217Z" fill="currentColor"/>
</g>
<defs>
<clipPath id="clip0_557_78871">
<rect width="54" height="54" fill="white"/>
</clipPath>
</defs>
</svg>
