<svg width="176" height="60" viewBox="0 0 176 60" fill="none" xmlns="http://www.w3.org/2000/svg">
<g clip-path="url(#clip0_362_34874)">
<path d="M28.7528 29.9249C31.9644 27.243 34.57 24.2883 36.5394 21.1064C39.145 16.879 40.463 12.4698 40.463 8H35.9183C35.9183 11.6213 34.8275 15.2275 32.6612 18.7276C30.8131 21.7125 28.1771 24.5914 24.9958 27.1217C23.7991 26.3187 22.572 25.5611 21.3146 24.8641C28.0711 20.0609 31.7674 14.0911 31.7674 8H27.2227C27.2227 12.6971 23.8597 17.6518 18.0122 21.6216C17.5425 21.9398 17.0426 22.258 16.5579 22.561C15.5883 22.1519 14.6188 21.7731 13.6341 21.4398V8.01515H9.0894V20.1064C7.5745 19.7428 6.04445 19.47 4.5447 19.273V8.01515H0V18.97V23.5156C3.52972 23.5156 7.27152 24.152 10.983 25.3187C7.25637 26.8036 3.39337 27.6369 0 27.6369V32.1825C3.39337 32.1825 7.24122 33.031 10.983 34.5007C7.28667 35.6674 3.54486 36.3038 0 36.3038V40.8494V51.8497H4.5447V40.5918C6.04445 40.41 7.5745 40.1221 9.0894 39.7585V51.8497H13.6341V38.4251C14.6188 38.0766 15.5883 37.713 16.5579 37.3039C17.0578 37.6069 17.5425 37.9099 18.0122 38.2433C23.8597 42.1979 27.2227 47.1678 27.2227 51.8649H31.7674C31.7674 45.7738 28.0559 39.8039 21.3146 35.0008C22.572 34.3038 23.7991 33.5462 24.9958 32.7431C28.1771 35.2583 30.8282 38.1524 32.6612 41.1373C34.8124 44.6374 35.9183 48.2436 35.9183 51.8649H40.463C40.463 47.3951 39.145 42.9858 36.5394 38.7584C34.5852 35.5614 31.9644 32.6068 28.7528 29.9249ZM11.6647 29.9249C13.422 29.2885 15.149 28.5157 16.8154 27.6369C18.2394 28.3188 19.6331 29.0915 20.9965 29.9249C19.6482 30.7582 18.2545 31.531 16.8154 32.2128C15.149 31.334 13.4069 30.5764 11.6647 29.9249Z" fill="#1DE9B6"/>
<path d="M74.1238 42.9261L68.1096 36.2592H67.0492V42.9261H61.1562V16.3799H67.0492V30.7288H67.8673L73.7299 24.4256H80.8499L72.7452 33.244L81.6983 42.9412H74.1238V42.9261Z" fill="currentColor"/>
<path d="M101.589 42.9254H95.6956V41.4557C94.1958 42.8042 92.2719 43.486 89.939 43.486C87.4394 43.486 85.3034 42.5769 83.5461 40.7435C81.7888 38.9101 80.9102 36.5616 80.9102 33.6827C80.9102 30.8342 81.7888 28.4856 83.5461 26.6371C85.3034 24.7885 87.4394 23.8643 89.939 23.8643C92.2719 23.8643 94.1958 24.5461 95.6956 25.8946V24.4249H101.589V42.9254ZM94.3473 37.1222C95.2411 36.2282 95.6956 35.0767 95.6956 33.6676C95.6956 32.2887 95.2411 31.1523 94.3473 30.2432C93.4535 29.3341 92.3931 28.8796 91.1509 28.8796C89.8481 28.8796 88.7725 29.3341 87.9393 30.2281C87.1061 31.122 86.6819 32.2736 86.6819 33.6827C86.6819 35.107 87.1061 36.2585 87.9393 37.1525C88.7725 38.0313 89.8481 38.4859 91.1509 38.4859C92.378 38.4556 93.4535 38.0162 94.3473 37.1222Z" fill="currentColor"/>
<path d="M118.221 24.3039L117.963 30.198H116.888C112.631 30.198 110.51 32.5162 110.51 37.1376V42.9256H104.617V24.4099H110.51V27.9555C112.04 25.4251 114.161 24.1523 116.888 24.1523C117.388 24.1523 117.827 24.1978 118.221 24.3039Z" fill="currentColor"/>
<path d="M150.261 25.9401C151.61 27.3341 152.291 29.1371 152.291 31.3493V42.9254H146.429V32.6069C146.429 31.5766 146.141 30.7432 145.55 30.122C144.959 29.5008 144.217 29.1826 143.338 29.1826C142.232 29.1826 141.354 29.5765 140.702 30.3796C140.051 31.1826 139.733 32.3342 139.733 33.8645V42.9406H133.84V32.6069C133.84 31.5766 133.552 30.7432 132.961 30.122C132.37 29.5008 131.628 29.1826 130.719 29.1826C129.613 29.1826 128.75 29.5765 128.113 30.3796C127.492 31.1826 127.174 32.3342 127.174 33.8645V42.9406H121.281V24.4097H127.174V26.1067C128.522 24.6067 130.34 23.8643 132.628 23.8643C135.355 23.8643 137.369 24.9097 138.672 27.0007C140.263 24.9097 142.46 23.8643 145.232 23.8643C147.231 23.8643 148.913 24.5612 150.261 25.9401Z" fill="currentColor"/>
<path d="M176.003 42.9254H170.11V41.4557C168.61 42.8042 166.686 43.486 164.353 43.486C161.853 43.486 159.717 42.5769 157.96 40.7435C156.203 38.9101 155.324 36.5616 155.324 33.6827C155.324 30.8342 156.203 28.4856 157.96 26.6371C159.717 24.7885 161.853 23.8643 164.353 23.8643C166.686 23.8643 168.61 24.5461 170.11 25.8946V24.4249H176.003V42.9254ZM168.761 37.1222C169.655 36.2282 170.11 35.0767 170.11 33.6676C170.11 32.2887 169.655 31.1523 168.761 30.2432C167.868 29.3341 166.807 28.8796 165.565 28.8796C164.262 28.8796 163.187 29.3341 162.353 30.2281C161.52 31.122 161.096 32.2736 161.096 33.6827C161.096 35.107 161.52 36.2585 162.353 37.1525C163.187 38.0313 164.262 38.4859 165.565 38.4859C166.807 38.4556 167.868 38.0162 168.761 37.1222Z" fill="currentColor"/>
</g>
<defs>
<clipPath id="clip0_362_34874">
<rect width="176" height="60" fill="white"/>
</clipPath>
</defs>
</svg>
