<svg width="54" height="54" viewBox="0 0 54 54" fill="none" xmlns="http://www.w3.org/2000/svg">
<path d="M33.3179 26.9945C35.699 25.038 37.6308 22.8826 39.091 20.5613C41.0228 17.4774 42 14.2608 42 11H38.6305C38.6305 13.6418 37.8218 16.2725 36.2156 18.8259C34.8454 21.0035 32.8911 23.1036 30.5324 24.9496C29.6451 24.3637 28.7353 23.8111 27.8031 23.3026C32.8124 19.7986 35.553 15.4435 35.553 11H32.1835C32.1835 14.4266 29.69 18.0411 25.3545 20.9371C25.0064 21.1693 24.6357 21.4014 24.2763 21.6225C23.5575 21.324 22.8386 21.0477 22.1086 20.8045V11.0111H18.739V19.8318C17.6159 19.5665 16.4815 19.3675 15.3695 19.2238V11.0111H12V19.0028V22.3188C14.617 22.3188 17.3912 22.7831 20.143 23.6342C17.38 24.7174 14.5159 25.3254 12 25.3254V28.6415C14.5159 28.6415 17.3688 29.2604 20.143 30.3326C17.4025 31.1838 14.6282 31.648 12 31.648V34.9641V42.9889H15.3695V34.7762C16.4815 34.6435 17.6159 34.4335 18.739 34.1682V42.9889H22.1086V33.1955C22.8386 32.9413 23.5575 32.676 24.2763 32.3775C24.6469 32.5986 25.0064 32.8197 25.3545 33.0629C29.69 35.9478 32.1835 39.5734 32.1835 43H35.553C35.553 38.5565 32.8012 34.2014 27.8031 30.6974C28.7353 30.1889 29.6451 29.6363 30.5324 29.0504C32.8911 30.8853 34.8566 32.9965 36.2156 35.1741C37.8106 37.7275 38.6305 40.3582 38.6305 43H42C42 39.7392 41.0228 36.5226 39.091 33.4387C37.6421 31.1064 35.699 28.9509 33.3179 26.9945ZM20.6484 26.9945C21.9513 26.5302 23.2317 25.9665 24.4672 25.3254C25.523 25.8228 26.5563 26.3865 27.5672 26.9945C26.5676 27.6024 25.5343 28.1661 24.4672 28.6636C23.2317 28.0225 21.9401 27.4698 20.6484 26.9945Z" fill="#1DE9B6"/>
</svg>
