<svg width="176" height="60" viewBox="0 0 176 60" fill="none" xmlns="http://www.w3.org/2000/svg">
<path d="M135.508 11.9819L127.586 17.5393L120.906 12.8236V7.21275C120.927 6.95408 121.047 6.71345 121.241 6.54153C121.436 6.3696 121.689 6.27978 121.948 6.29097H127.425L135.508 11.9819ZM147.985 20.7188L143.443 17.5393L135.508 23.0833L142.615 28.0529L147.958 31.8202L147.985 20.7188ZM127.332 28.8144L123.471 31.4862C122.202 32.4899 121.327 33.9089 121 35.4939L127.586 40.1028L135.508 34.5454L127.332 28.8144ZM143.443 40.1028L135.508 45.6468L141.573 49.8817H146.916C147.071 49.8835 147.226 49.8564 147.371 49.8015C147.483 49.7628 147.587 49.7039 147.678 49.6279C147.777 49.5525 147.857 49.4555 147.912 49.3444C147.968 49.2332 147.997 49.1109 147.998 48.9866V43.2689L143.443 40.1028Z" fill="url(#paint0_linear_431_44413)"/>
<path d="M145.213 26.2364L120.859 43.2826V54.384L147.992 35.3874V20.6924C147.995 21.7695 147.745 22.8323 147.262 23.7952C146.78 24.7582 146.078 25.5943 145.213 26.2364Z" fill="#8C175B"/>
<path d="M147.99 7.02628V12.8241L123.477 29.9906C122.657 30.6224 121.992 31.4313 121.529 32.3566C121.066 33.2819 120.819 34.2998 120.805 35.3342V20.6392L141.444 6.29153H146.962C147.19 6.28434 147.414 6.35235 147.6 6.48511C147.786 6.61786 147.923 6.808 147.99 7.02628Z" fill="#8C175B"/>
<path d="M65.4179 7.19943V48.9065C65.4201 49.0249 65.3988 49.1425 65.3552 49.2526C65.3117 49.3626 65.2467 49.463 65.1641 49.5478C65.0957 49.6203 65.0141 49.6793 64.9236 49.7214C64.8062 49.7748 64.6786 49.8021 64.5496 49.8016H58.9521C58.7171 49.7981 58.4928 49.7022 58.3278 49.5347C58.1628 49.3673 58.0704 49.1416 58.0704 48.9065V7.19943C58.0686 7.08189 58.0901 6.96515 58.1334 6.85588C58.1768 6.74661 58.2412 6.64695 58.3231 6.56259C58.405 6.47823 58.5027 6.41083 58.6106 6.36423C58.7185 6.31764 58.8346 6.29276 58.9521 6.29102H64.5897C64.8176 6.30804 65.0304 6.41163 65.1844 6.58054C65.3384 6.74945 65.422 6.97089 65.4179 7.19943Z" fill="#8C175B"/>
<path d="M111.784 7.17272V11.6347C111.784 11.8685 111.691 12.0928 111.525 12.2581C111.36 12.4235 111.136 12.5164 110.902 12.5164H99.9875L103.447 14.9611C103.506 15.001 103.554 15.0548 103.587 15.1178C103.619 15.1807 103.636 15.2508 103.635 15.3218V48.9332C103.635 49.1671 103.542 49.3913 103.376 49.5567C103.211 49.722 102.987 49.8149 102.753 49.8149H97.2088C96.976 49.8115 96.7538 49.7175 96.5892 49.5529C96.4245 49.3883 96.3305 49.166 96.3271 48.9332V13.4381C96.3312 13.2202 96.2518 13.0089 96.1053 12.8475C95.9588 12.6861 95.7562 12.5868 95.5389 12.5698H89.0731C88.8393 12.5698 88.615 12.4769 88.4497 12.3115C88.2843 12.1462 88.1914 11.9219 88.1914 11.6881V7.17272C88.1914 6.93887 88.2843 6.71461 88.4497 6.54926C88.615 6.38391 88.8393 6.29102 89.0731 6.29102H110.902C111.136 6.29102 111.36 6.38391 111.525 6.54926C111.691 6.71461 111.784 6.93887 111.784 7.17272Z" fill="#8C175B"/>
<path d="M90.4797 43.563H79.6054C79.4199 43.5409 79.2461 43.4604 79.1092 43.3332C78.9724 43.2059 78.8795 43.0384 78.844 42.8549V7.17282C78.844 7.0559 78.8208 6.94014 78.7756 6.83229C78.7305 6.72444 78.6643 6.62664 78.581 6.54459C78.4977 6.46254 78.399 6.39788 78.2904 6.35436C78.1819 6.31084 78.0658 6.28935 77.9489 6.29112H72.3114C72.0786 6.29457 71.8564 6.38857 71.6917 6.55318C71.5271 6.71778 71.4331 6.94005 71.4297 7.17282V48.9333C71.4331 49.1661 71.5271 49.3884 71.6917 49.553C71.8564 49.7176 72.0786 49.8116 72.3114 49.815H90.4797C90.7136 49.815 90.9379 49.7221 91.1032 49.5568C91.2686 49.3914 91.3614 49.1672 91.3614 48.9333V44.4447C91.3614 44.2108 91.2686 43.9866 91.1032 43.8212C90.9379 43.6559 90.7136 43.563 90.4797 43.563Z" fill="#8C175B"/>
<path d="M53.5276 48.5057L42.1056 27.6656C42.033 27.5372 41.9948 27.3922 41.9948 27.2447C41.9948 27.0973 42.033 26.9523 42.1056 26.8239L52.6993 7.62692C52.8083 7.42126 52.8316 7.18085 52.764 6.95812C52.6964 6.73539 52.5435 6.54841 52.3386 6.43797C52.2155 6.35429 52.0729 6.30368 51.9245 6.29102H45.5923C45.4346 6.29175 45.2799 6.33414 45.1438 6.4139C45.0077 6.49366 44.8951 6.60796 44.8175 6.74522L36.094 22.5223V7.17272C36.094 6.93887 36.0011 6.71461 35.8357 6.54926C35.6704 6.38391 35.4461 6.29102 35.2123 6.29102H29.5614C29.3286 6.29446 29.1064 6.38847 28.9417 6.55307C28.7771 6.71768 28.6831 6.93995 28.6797 7.17272V48.9332C28.6831 49.166 28.7771 49.3883 28.9417 49.5529C29.1064 49.7175 29.3286 49.8115 29.5614 49.8149H35.1989C35.4328 49.8149 35.657 49.722 35.8224 49.5567C35.9877 49.3913 36.0806 49.1671 36.0806 48.9332V39.3013L33.4088 27.2781L45.5923 49.3607C45.6656 49.4988 45.7753 49.6142 45.9095 49.6942C46.0438 49.7743 46.1974 49.8161 46.3538 49.8149H52.7528C52.9866 49.8149 53.2109 49.722 53.3762 49.5567C53.5416 49.3913 53.6345 49.1671 53.6345 48.9332C53.6324 48.7844 53.5958 48.638 53.5276 48.5057Z" fill="#8C175B"/>
<defs>
<linearGradient id="paint0_linear_431_44413" x1="120.866" y1="28.1064" x2="147.985" y2="28.1064" gradientUnits="userSpaceOnUse">
<stop offset="0.24" stop-color="#F96943"/>
<stop offset="0.78" stop-color="#CE4E2C"/>
</linearGradient>
</defs>
</svg>
