<svg width="176" height="60" viewBox="0 0 176 60" fill="none" xmlns="http://www.w3.org/2000/svg">
<path d="M43.7495 38.9116C43.9568 39.1879 44.1296 39.4987 44.2678 39.9132C44.4061 40.293 44.4752 40.6729 44.4752 41.0183C44.4752 41.9507 44.1296 42.745 43.4039 43.3666C42.7127 43.9537 41.8834 44.2645 40.9503 44.2645C40.5011 44.2645 40.0864 44.1609 39.6717 43.9537C39.257 43.781 38.9115 43.4702 38.635 43.0904L27.4039 28.3095L22.4622 33.0062V41.1219C22.4622 42.0543 22.1512 42.8141 21.5637 43.4012C20.9762 43.9883 20.1814 44.2645 19.2138 44.2645C18.2808 44.2645 17.5205 43.9883 16.8985 43.3666C16.311 42.7795 16 42.0198 16 41.1219V11.2148C16 10.3168 16.311 9.59162 16.933 8.96999C17.5551 8.3829 18.3499 8.07209 19.3175 8.07209C20.2505 8.07209 21.0108 8.34837 21.5983 8.93546C22.1857 9.52255 22.4622 10.2823 22.4622 11.2148V25.3049L39.0497 9.00453C39.8445 8.21023 40.6739 7.79581 41.5724 7.79581C42.3672 7.79581 43.0238 8.14116 43.5767 8.79732C44.1296 9.45348 44.4061 10.1442 44.4061 10.8694C44.4061 11.5946 44.095 12.2508 43.473 12.8724L32.2073 23.6473L43.7495 38.9116ZM74.9201 30.4852C74.9201 33.2134 74.2981 35.6999 73.054 37.8756C71.81 40.0858 70.1166 41.778 67.9395 42.9867C65.797 44.1955 63.4125 44.7826 60.8207 44.7826C58.1944 44.7826 55.8099 44.1955 53.6674 42.9867C51.5594 41.778 49.8661 40.0858 48.622 37.8756C47.378 35.6999 46.7559 33.2134 46.7559 30.4852C46.7559 27.7224 47.378 25.2359 48.622 23.0602C49.8661 20.85 51.5594 19.1578 53.6674 17.9145C55.8099 16.7058 58.1944 16.0842 60.8207 16.0842C63.4125 16.0842 65.797 16.7058 67.9395 17.9145C70.1166 19.1578 71.81 20.85 73.054 23.0602C74.2981 25.2359 74.9201 27.7224 74.9201 30.4852ZM68.6998 30.4852C68.6998 28.793 68.3542 27.2734 67.6285 25.9266C66.9374 24.6142 65.9698 23.5782 64.7948 22.853C63.5853 22.1277 62.2722 21.7824 60.8207 21.7824C59.3693 21.7824 58.0562 22.1277 56.8812 22.853C55.6717 23.5782 54.7387 24.6142 54.013 25.9266C53.3218 27.2734 52.9762 28.793 52.9762 30.4852C52.9762 32.1428 53.3218 33.6624 54.013 34.9747C54.7387 36.287 55.6717 37.2885 56.8812 38.0137C58.0562 38.739 59.3693 39.1189 60.8207 39.1189C62.2722 39.1189 63.5853 38.739 64.7948 38.0137C65.9698 37.2885 66.9374 36.287 67.6285 34.9747C68.3542 33.6624 68.6998 32.1428 68.6998 30.4852ZM85.9439 41.1219C85.9439 42.0198 85.6328 42.7795 85.0454 43.3666C84.4579 43.9883 83.7322 44.2645 82.8337 44.2645C81.9352 44.2645 81.175 43.9883 80.5875 43.3666C80 42.7795 79.7236 42.0198 79.7236 41.1219V19.7448C79.7236 18.8469 80 18.1217 80.5875 17.5001C81.175 16.913 81.9352 16.6022 82.8337 16.6022C83.7322 16.6022 84.4579 16.913 85.0454 17.5001C85.6328 18.1217 85.9439 18.8469 85.9439 19.7448V41.1219ZM82.7646 13.2523C81.5897 13.2523 80.7603 13.0451 80.2765 12.6652C79.7927 12.2853 79.5508 11.6292 79.5508 10.6622V9.66069C79.5508 8.69371 79.8272 8.03755 80.3456 7.65767C80.864 7.27779 81.6933 7.07058 82.8337 7.07058C84.0432 7.07058 84.8726 7.27779 85.3564 7.65767C85.8402 8.03755 86.0821 8.69371 86.0821 9.66069V10.6622C86.0821 11.6637 85.8402 12.3199 85.3218 12.6997C84.838 13.0451 83.9741 13.2523 82.7646 13.2523ZM107.093 16.0842C110.618 16.0842 113.071 17.1202 114.419 19.2268C115.767 21.2989 116.423 24.1998 116.423 27.8951V41.1219C116.423 42.0198 116.147 42.7795 115.559 43.3666C114.972 43.9883 114.212 44.2645 113.313 44.2645C112.415 44.2645 111.689 43.9883 111.102 43.3666C110.514 42.7795 110.203 42.0198 110.203 41.1219V27.8951C110.203 25.9956 109.823 24.5106 109.028 23.4055C108.233 22.3349 106.851 21.7824 104.916 21.7824C102.946 21.7824 101.356 22.3695 100.216 23.5091C99.0756 24.6833 98.5227 26.1338 98.5227 27.8951V41.1219C98.5227 42.0198 98.2117 42.7795 97.6242 43.3666C97.0367 43.9883 96.311 44.2645 95.4125 44.2645C94.5141 44.2645 93.7538 43.9883 93.1663 43.3666C92.5789 42.7795 92.3024 42.0198 92.3024 41.1219V19.7448C92.3024 18.8469 92.5789 18.1217 93.1663 17.5001C93.7538 16.913 94.5141 16.6022 95.4125 16.6022C96.311 16.6022 97.0367 16.913 97.6242 17.5001C98.2117 18.1217 98.5227 18.8469 98.5227 19.7448V20.6427C99.4557 19.3995 100.665 18.3289 102.151 17.431C103.672 16.5331 105.296 16.0842 107.093 16.0842ZM129.866 41.1219C129.866 42.0198 129.59 42.7795 128.968 43.3666C128.38 43.9883 127.62 44.2645 126.721 44.2645C125.857 44.2645 125.132 43.9883 124.544 43.3666C123.957 42.7795 123.68 42.0198 123.68 41.1219V9.14266C123.68 8.24476 123.957 7.51953 124.579 6.8979C125.166 6.31081 125.927 6 126.825 6C127.689 6 128.415 6.31081 129.002 6.8979C129.59 7.51953 129.866 8.24476 129.866 9.14266V41.1219ZM156.89 16.6022C157.788 16.6022 158.549 16.913 159.136 17.5001C159.724 18.1217 160 18.8469 160 19.7448V41.7435C160 46.233 158.791 49.5138 156.372 51.5514C153.987 53.5889 150.739 54.625 146.695 54.625C145.521 54.625 144.346 54.5214 143.102 54.3487C141.892 54.1415 140.89 53.8997 140.13 53.5889C138.436 52.8637 137.607 51.8622 137.607 50.5844C137.607 50.3427 137.642 50.0664 137.745 49.7556C137.953 48.9958 138.298 48.4432 138.816 48.0288C139.3 47.6489 139.853 47.4417 140.441 47.4417C140.786 47.4417 141.132 47.4763 141.443 47.5799C141.685 47.6835 142.099 47.8562 142.687 48.0979C143.309 48.3396 143.931 48.5468 144.622 48.7195C145.279 48.8577 145.97 48.9267 146.695 48.9267C149.149 48.9267 150.946 48.4087 152.121 47.3727C153.261 46.3021 153.849 44.5063 153.849 41.9507V41.4327C152.052 43.6774 149.253 44.7826 145.451 44.7826C143.654 44.7826 142.065 44.3681 140.717 43.5393C139.335 42.6759 138.264 41.5018 137.503 40.0168C136.743 38.4972 136.363 36.805 136.363 34.8711V19.7448C136.363 18.8469 136.639 18.1217 137.227 17.5001C137.814 16.913 138.575 16.6022 139.473 16.6022C140.372 16.6022 141.097 16.913 141.685 17.5001C142.272 18.1217 142.549 18.8469 142.549 19.7448V33.0062C142.549 35.1819 143.032 36.736 144 37.6684C144.933 38.6354 146.315 39.1189 148.147 39.1189C149.944 39.1189 151.326 38.5663 152.328 37.5303C153.296 36.4942 153.814 34.9747 153.814 33.0062V19.7448C153.814 18.8469 154.091 18.1217 154.678 17.5001C155.266 16.913 155.991 16.6022 156.89 16.6022Z" fill="#335EEA"/>
</svg>
