<svg width="54" height="54" viewBox="0 0 54 54" fill="none" xmlns="http://www.w3.org/2000/svg">
<g clip-path="url(#clip0_557_78873)">
<path fill-rule="evenodd" clip-rule="evenodd" d="M23.7666 0.125071C18.2224 0.752585 12.5989 3.40551 8.4241 7.36305C-0.517678 15.8396 -2.58279 29.2697 3.3933 40.0807C4.4717 42.0316 5.79519 43.826 7.42697 45.5499C16.772 55.4223 32.1472 56.7664 43.0462 48.6636C53.2516 41.0764 56.8051 27.5847 51.6649 15.9405C47.8726 7.3496 39.3847 1.13039 30.0706 0.118079C28.5944 -0.0423278 25.2129 -0.0386342 23.7666 0.125071ZM29.2549 11.3565C30.4738 13.2611 32.5869 16.5607 33.9506 18.6892C35.3145 20.8177 36.4278 22.5986 36.4248 22.6466C36.4175 22.7619 27.0886 28.1499 26.9527 28.1175C26.8951 28.1036 25.1306 27.0912 23.0317 25.8677C20.9328 24.644 18.8755 23.4497 18.4598 23.2134C18.0442 22.9772 17.6758 22.7379 17.6411 22.6818C17.6064 22.6256 18.6594 20.8929 19.9813 18.8314C21.3031 16.7698 23.4162 13.4655 24.6771 11.4884C25.938 9.51127 26.9852 7.89374 27.0042 7.89374C27.0232 7.89374 28.036 9.45204 29.2549 11.3565ZM25.3496 14.3292C24.4427 15.7507 22.9771 18.0421 22.0929 19.4214C20.6615 21.6539 20.5094 21.9457 20.7078 22.0811C21.1622 22.3911 26.9215 25.7021 27.0062 25.7021C27.0547 25.7021 28.5399 24.8635 30.3069 23.8386C32.968 22.2948 33.4999 21.9382 33.4049 21.7609C33.3082 21.5803 27.0745 11.8244 27.0179 11.7649C27.0072 11.7537 26.2565 12.9077 25.3496 14.3292ZM20.0236 27.3335C22.191 28.5935 24.64 30.0182 25.4657 30.4994C26.2912 30.9806 26.9788 31.3744 26.9935 31.3744C27.0083 31.3744 29.4753 29.9483 32.4758 28.2052C36.8695 25.6529 37.9632 25.0687 38.095 25.2041C38.4092 25.5273 39.3386 27.3889 39.6682 28.3553C41.2765 33.0712 40.1528 38.1831 36.7079 41.8219C34.9271 43.7029 32.8565 44.9323 30.2535 45.6538C28.7805 46.0621 25.2165 46.0621 23.7435 45.6538C21.3098 44.9792 19.3918 43.8934 17.6533 42.2061C13.1404 37.8265 12.3124 30.8634 15.6716 25.5421C15.8451 25.2673 16.0085 25.0425 16.0347 25.0425C16.0611 25.0425 17.8561 26.0735 20.0236 27.3335Z" fill="#F69988"/>
<path fill-rule="evenodd" clip-rule="evenodd" d="M33.952 18.689C32.5883 16.5606 30.4752 13.2609 29.2563 11.3563C28.0374 9.45185 27.0246 7.89355 27.0056 7.89355C26.9866 7.89355 25.9395 9.51108 24.6785 11.4882C23.4177 13.4653 21.3045 16.7696 19.9827 18.8312C18.6608 20.8927 17.6078 22.6254 17.6425 22.6816C17.6772 22.7377 18.0456 22.977 18.4613 23.2132C18.8769 23.4495 20.9342 24.6438 23.0331 25.8675C25.132 27.091 26.8965 28.1034 26.9541 28.1173C27.09 28.1497 36.419 22.7617 36.4262 22.6464C36.4292 22.5984 35.3159 20.8176 33.952 18.689ZM22.0943 19.4212C22.9785 18.042 24.4441 15.7505 25.351 14.329C26.2579 12.9075 27.0086 11.7535 27.0193 11.7647C27.0759 11.8242 33.3096 21.5801 33.4063 21.7607C33.5013 21.938 32.9694 22.2946 30.3083 23.8384C28.5413 24.8633 27.0561 25.7019 27.0076 25.7019C26.9229 25.7019 21.1636 22.3909 20.7092 22.0809C20.5108 21.9455 20.6629 21.6538 22.0943 19.4212ZM25.4671 30.4992C24.6414 30.018 22.1924 28.5933 20.025 27.3333C17.8575 26.0733 16.0625 25.0424 16.0362 25.0424C16.0099 25.0424 15.8465 25.2671 15.673 25.5419C12.3138 30.8632 13.1418 37.8263 17.6547 42.2059C19.3932 43.8932 21.3113 44.979 23.7449 45.6536C25.2179 46.0619 28.7819 46.0619 30.2549 45.6536C32.8579 44.9321 34.9285 43.7028 36.7093 41.8217C40.1542 38.183 41.2779 33.071 39.6696 28.3551C39.3401 27.3887 38.4106 25.5271 38.0964 25.204C37.9646 25.0685 36.8709 25.6527 32.4772 28.205C29.4767 29.9481 27.0097 31.3742 26.9949 31.3742C26.9803 31.3742 26.2926 30.9805 25.4671 30.4992Z" fill="white"/>
</g>
<defs>
<clipPath id="clip0_557_78873">
<rect width="54" height="54" fill="white"/>
</clipPath>
</defs>
</svg>
