<svg width="176" height="60" viewBox="0 0 176 60" fill="none" xmlns="http://www.w3.org/2000/svg">
<path fill-rule="evenodd" clip-rule="evenodd" d="M12.9008 49.614C6.84035 45.0878 2.92792 37.8639 2.92792 29.7194C2.92792 16.0131 14.0387 4.90236 27.745 4.90236C39.0603 4.90236 51.3985 11.666 54.3904 22.0096C51.0405 10.4641 40.3772 2 27.7322 2C12.4149 2 0 14.4149 0 29.7322C0 45.0495 12.4149 57.4644 27.7322 57.4644C43.0495 57.4644 55.4644 45.0495 55.4644 29.7322V28.2746H53.9429C53.8917 28.2746 53.8278 28.2746 53.7383 28.2746C53.5593 28.2746 53.3036 28.2618 52.9712 28.249C52.3191 28.2235 51.4113 28.1851 50.3885 28.0956C48.3044 27.9166 45.939 27.5586 44.3152 26.9193C41.7197 25.8837 40.2494 24.5028 38.5745 22.8918L38.4722 22.8023C36.7973 21.1913 34.905 19.3758 31.6318 17.8415C28.4098 16.32 24.8426 16.5629 22.2215 17.1127C20.8918 17.3812 19.7539 17.752 18.9484 18.0461C18.5393 18.1867 18.2196 18.3273 17.9895 18.4168C16.6726 18.9666 15.394 19.6315 14.1026 20.2324C14.1026 20.2324 16.6342 20.9228 17.9 21.3192C17.9511 21.332 18.0151 21.3576 18.1046 21.3831C18.2963 21.4471 18.5648 21.5366 18.8845 21.6772C19.5493 21.9457 20.4188 22.3548 21.2754 22.9046C22.6307 23.774 23.7558 24.8736 24.2161 26.2161C21.3393 26.5997 18.6416 27.8527 16.6342 29.0418C15.4068 29.7578 14.3967 30.4738 13.6807 31.0108C13.3227 31.2793 13.0414 31.5094 12.8496 31.6628C12.6834 31.8035 10.0879 34.0793 10.0879 34.0793C10.0879 34.0793 13.4378 34.4373 15.0871 34.7698C16.1867 34.9871 17.6698 35.3451 19.2169 35.8821C20.764 36.4191 22.3366 37.1351 23.6408 38.0429C24.9449 38.9507 25.9038 40.0119 26.3769 41.2137C27.745 44.717 26.4025 48.1436 23.6919 50.0615C21.0197 51.9537 16.9666 52.4012 12.9008 49.614ZM22.3622 53.9611C23.449 53.6031 24.4718 53.0917 25.3924 52.4396C29.0747 49.8185 31.0053 45.0367 29.1003 40.1525C28.3459 38.2347 26.9139 36.7643 25.3157 35.652C23.7175 34.5396 21.8891 33.7213 20.1886 33.1332C19.0763 32.7496 17.9895 32.4428 17.0433 32.2126C17.3758 31.9953 17.7338 31.7651 18.1173 31.5478C20.3676 30.2308 23.1933 29.0162 25.9038 29.0162C29.9953 29.0162 33.0383 30.2692 35.9534 31.6117C36.2219 31.7395 36.4776 31.8546 36.7461 31.9825C39.3416 33.1971 42.0777 34.4885 45.2486 34.4885C48.33 34.4885 50.7209 33.619 52.3702 32.724C50.8999 45.0239 40.4284 54.562 27.7322 54.562C25.891 54.5365 24.0883 54.3319 22.3622 53.9611ZM49.2122 30.9085C48.1254 31.2793 46.7957 31.5478 45.2486 31.5478C42.7554 31.5478 40.6202 30.5505 37.9096 29.2847C37.6667 29.1696 37.4237 29.0545 37.1808 28.9395C34.4702 27.6865 31.325 26.344 27.2335 26.101C26.6838 23.3905 24.6253 21.5366 22.8736 20.4114C22.6818 20.2836 22.4773 20.1685 22.2855 20.0534C22.4645 20.0151 22.6435 19.9767 22.8225 19.9383C25.1878 19.4525 28.0135 19.3246 30.3916 20.4498C33.23 21.7795 34.8283 23.3265 36.4904 24.9248L36.5415 24.9759C38.2548 26.6253 40.0704 28.3385 43.2285 29.6043C44.9929 30.3203 47.2687 30.7039 49.2122 30.9085Z" fill="url(#paint0_linear_431_44482)"/>
<path d="M170.509 43.0397L175.713 36.5573C175.752 36.519 175.752 36.4551 175.726 36.4167C175.7 36.3656 175.649 36.34 175.598 36.34H173.501C173.463 36.34 173.425 36.3528 173.399 36.3911L166.827 44.4845C166.789 44.5356 166.725 44.5484 166.674 44.5228C166.623 44.5101 166.584 44.4461 166.584 44.395V36.4551C166.584 36.3783 166.52 36.3144 166.444 36.3144H164.769C164.692 36.3144 164.628 36.3783 164.628 36.4551L164.602 52.565C164.602 52.6034 164.615 52.6418 164.641 52.6673C164.666 52.6929 164.705 52.7057 164.743 52.7057H166.444C166.52 52.7057 166.584 52.6418 166.584 52.565V48.0005C166.584 47.975 166.597 47.9366 166.61 47.9111L168.796 45.1238C168.822 45.0854 168.873 45.0726 168.911 45.0726C168.962 45.0726 169.001 45.0982 169.026 45.1366L173.437 52.6418C173.463 52.6801 173.501 52.7057 173.552 52.7057H175.994C175.317 51.1842 170.995 44.0498 170.484 43.2059C170.471 43.142 170.484 43.0908 170.509 43.0397ZM127.128 36.2761H125.401C125.35 36.2761 125.312 36.3144 125.299 36.3656L124.404 49.7905C124.404 49.8417 124.366 49.88 124.315 49.88C124.264 49.88 124.212 49.8545 124.212 49.8033L122.218 40.6616C122.205 40.6104 122.167 40.5848 122.116 40.5848H119.789C119.737 40.5848 119.699 40.6232 119.686 40.6616C119.533 41.4159 118.344 47.3485 117.82 49.8289C117.807 49.8801 117.768 49.9056 117.717 49.9056C117.666 49.9056 117.628 49.8673 117.628 49.8161C117.474 46.9521 116.746 37.3756 116.656 36.3656C116.656 36.3144 116.605 36.2761 116.554 36.2761C116.234 36.2761 115.186 36.2761 114.84 36.2761C114.815 36.2761 114.789 36.2888 114.764 36.3016C114.751 36.3272 114.738 36.3528 114.738 36.3784L115.978 52.7313C115.978 52.7313 116.004 52.6801 115.991 52.7313C116.004 52.7568 116.055 52.7313 116.055 52.7313H118.881C118.881 52.7313 120.62 43.7813 120.799 43.0525C120.811 43.0141 120.837 42.9886 120.863 42.9758C120.901 42.963 120.939 42.9758 120.978 43.0013C121.297 43.3082 122.883 51.7212 123.049 52.6418C123.062 52.6929 123.1 52.7313 123.151 52.7313H125.887C125.938 52.7313 125.977 52.6929 125.99 52.6418L127.217 36.3784C127.217 36.3528 127.204 36.3272 127.191 36.3016C127.179 36.2888 127.153 36.2761 127.128 36.2761ZM77.2633 8.26259C77.5062 8.26259 77.5574 8.32652 77.5574 8.55666C77.5574 8.64616 77.5574 8.73566 77.5574 8.83795V9.75852C77.5574 9.87359 77.5574 9.97588 77.5574 10.0909V11.1777C77.5574 11.3056 77.5574 11.4334 77.5574 11.5613V13.5814C77.5574 13.7221 77.5574 13.8627 77.5574 14.0034V16.1514C77.5574 16.292 77.5574 16.4327 77.5574 16.5861V19.0921C77.5574 19.2199 77.5574 19.3606 77.5574 19.4884V20.6264C77.5574 20.7414 77.5574 20.8693 77.5574 20.9844V21.9817C77.5574 22.0839 77.5574 22.1862 77.5574 22.2885V22.8511C77.5574 22.9406 77.5574 23.0173 77.5574 23.1068V23.5543C77.5574 23.9634 77.5574 24.2575 77.5574 24.3854C77.5574 24.4749 77.5957 24.5771 77.519 24.6539C76.9437 24.6411 76.3683 24.6411 75.7929 24.6539C75.7034 24.5644 75.7546 24.4365 75.7546 24.3342V11.6252C75.7546 11.5357 75.7546 11.459 75.7546 11.3695C75.7418 11.28 75.6907 11.2672 75.6139 11.2928L75.6012 11.3312C75.5884 11.3567 75.5884 11.3823 75.5628 11.4079C75.5372 11.4462 75.55 11.4846 75.5117 11.5229C75.4222 11.5997 74.7701 13.1851 74.0925 14.9239L73.8239 15.6272C73.0952 17.4939 72.392 19.3094 72.3408 19.4245C72.2513 19.6035 72.2769 19.6547 72.1362 19.5396C71.9317 19.3606 69.3873 12.8015 68.8247 11.4207C68.7992 11.3439 68.7097 11.2544 68.6585 11.3184C68.6457 11.3439 68.633 11.3695 68.633 11.4079V13.6837C68.633 16.2025 68.5818 23.4904 68.5818 24.5388V24.6666H68.39C68.3517 24.6666 68.3005 24.6666 68.2622 24.6666H67.9425C67.8786 24.6666 67.8275 24.6666 67.7635 24.6666H67.2521C67.0987 24.6666 66.9836 24.6666 66.9197 24.6666C66.8941 24.6666 66.8557 24.6667 66.8302 24.6411C66.8174 24.6155 66.8174 24.6027 66.8174 24.5772C66.8302 24.1041 66.8302 22.736 66.8302 20.9588V16.7012C66.8302 16.5477 66.8302 16.3943 66.8302 16.2409V15.3331C66.8302 12.6097 66.8174 9.9503 66.8174 8.40323V8.37766C66.8174 8.35209 66.8302 8.3393 66.843 8.32652C66.8557 8.31373 66.8813 8.31374 66.9069 8.31374C67.1498 8.31374 67.4055 8.32652 67.6612 8.32652L69.1572 8.31374C69.2722 8.31374 69.3873 8.30095 69.4129 8.45438C69.5663 8.62059 71.6376 14.0673 72.0979 15.2436C72.2385 15.6016 72.3536 15.4098 72.4431 15.1669C72.5837 14.7833 74.9363 8.68452 75.0769 8.5183L75.0897 8.50552V8.49273C75.1025 8.44159 75.1025 8.40323 75.1409 8.36488C75.1792 8.33931 75.5117 8.32652 75.9208 8.32652H76.2916C76.3555 8.32652 76.4194 8.32652 76.4834 8.32652H77.0204C77.0843 8.26259 77.1866 8.26259 77.2633 8.26259ZM99.5744 24.6283C100.15 24.6027 100.712 24.6155 101.288 24.6283C101.377 24.5388 101.326 24.4109 101.326 24.3086C101.326 19.9231 101.326 10.9859 101.326 10.8964C101.326 10.8069 101.377 10.7814 101.467 10.8197V10.8325C101.518 10.8709 105.98 22.1479 106.875 24.3854C106.888 24.4621 106.926 24.5388 106.99 24.5772C107.054 24.6283 107.131 24.6411 107.207 24.6283C107.617 24.6155 109.509 24.7689 109.726 24.6283C109.88 24.5132 109.777 10.3211 109.777 8.5183C109.777 8.32652 109.726 8.26259 109.522 8.26259C109.112 8.27538 108.691 8.26259 108.269 8.26259C107.949 8.26259 107.949 8.26259 107.949 8.58223C107.949 12.9166 107.975 21.8154 107.923 21.9305C107.872 21.9817 102.707 8.81238 102.374 8.40323C102.362 8.40323 102.362 8.39045 102.362 8.39045C102.362 8.37766 102.362 8.37766 102.362 8.36488C102.323 8.22424 102.195 8.26259 102.106 8.26259C101.326 8.26259 100.533 8.26259 99.7533 8.26259C99.5488 8.26259 99.5104 8.3393 99.5104 8.5183C99.5104 13.8116 99.5232 19.1049 99.5104 24.3981C99.5104 24.4749 99.4593 24.5771 99.5744 24.6283ZM75.4989 36.3272C75.4989 36.34 75.4477 49.9056 75.4477 49.9056L69.8732 36.2888H67.0475C67.0475 36.2888 67.0475 51.9513 67.0475 52.6801L68.8247 52.6673L68.8631 38.8843C68.8631 38.8843 72.5326 48.2051 74.476 52.6673H77.2761C77.2761 52.6673 77.2761 36.3656 77.2761 36.3144C77.2889 36.1738 75.6395 36.2505 75.4989 36.3272ZM93.45 50.9668C93.3861 50.9668 93.3221 50.9796 93.2582 50.9796H85.753C85.6763 50.9924 85.5996 50.9796 85.5357 50.954C85.4845 50.8645 85.5101 50.775 85.5101 50.6728C85.5101 48.985 85.5101 47.2845 85.5101 45.5968C85.5101 45.2772 85.5101 45.2772 85.8297 45.2772C88.2207 45.2772 90.6116 45.2772 93.0025 45.2772C93.2326 45.2772 93.2966 45.2133 93.2838 44.9959C93.271 44.6123 93.2838 44.2288 93.2838 43.8452C93.2838 43.5383 93.2838 43.5383 92.9641 43.5383H85.8425C85.5101 43.5383 85.5101 43.5383 85.5101 43.2059C85.5101 41.5949 85.5101 39.9711 85.5101 38.3601C85.5101 38.1172 85.5868 38.0661 85.8169 38.0661C88.2974 38.0788 90.765 38.0788 93.2454 38.0661C93.3477 38.0661 93.45 38.1044 93.5395 38.0277V36.3656C93.4756 36.2888 93.3733 36.3272 93.2966 36.3272C90.1257 36.3272 86.9676 36.3272 83.7968 36.3144C83.5539 36.3144 83.5283 36.4039 83.5283 36.6085C83.5283 41.889 83.5283 47.1567 83.5283 52.4372C83.5283 52.6801 83.605 52.7313 83.8352 52.7313C86.9804 52.7185 90.1257 52.7185 93.271 52.7185C93.3605 52.7185 93.4628 52.7568 93.5395 52.6801C93.5395 52.1303 93.5395 51.5678 93.5395 51.018C93.5139 50.9796 93.4884 50.9668 93.45 50.9668ZM127.307 8.59502C127.307 8.23702 127.345 8.26259 126.961 8.26259C123.369 8.26259 119.776 8.26259 116.183 8.26259C115.697 8.26259 115.198 8.27538 114.713 8.26259C114.521 8.26259 114.47 8.32652 114.47 8.50552C114.482 8.91466 114.482 9.33659 114.47 9.74573C114.457 9.98866 114.546 10.027 114.764 10.0142C116.336 10.0014 117.922 10.0142 119.494 10.0142C119.904 10.0142 119.865 9.96309 119.865 10.3722C119.865 12.5586 119.865 14.7449 119.865 16.9313C119.865 19.3862 119.865 24.8712 119.865 24.8712H121.86C121.86 24.8712 121.86 14.9751 121.86 10.2955C121.86 10.206 121.873 10.1293 121.873 10.0398C121.975 9.98866 122.077 10.0142 122.179 10.0142C123.79 10.0142 125.414 10.0142 127.025 10.0142C127.243 10.0142 127.307 9.96309 127.294 9.74573C127.294 9.36216 127.307 8.97859 127.307 8.59502ZM111.056 36.3784C110.966 36.2761 110.839 36.3272 110.736 36.3272C106.696 36.3272 102.668 36.3272 98.6282 36.3272C98.5771 36.3272 98.5131 36.3272 98.462 36.3272C98.3086 36.3144 98.2702 36.3783 98.2702 36.519C98.2702 36.9281 98.2702 37.3501 98.2702 37.7592C98.2702 38.0661 98.2702 38.0661 98.5771 38.0661C100.175 38.0661 101.773 38.0661 103.372 38.0661C103.602 38.0661 103.679 38.1172 103.679 38.3601C103.666 39.6643 103.679 40.9684 103.679 42.2726C103.679 45.6352 103.679 48.9978 103.679 52.3605C103.679 52.7824 103.627 52.7313 104.062 52.7313C104.471 52.7313 104.893 52.7313 105.315 52.7313C105.699 52.7313 105.673 52.7824 105.673 52.3988C105.673 47.7704 105.673 43.142 105.673 38.5136C105.673 38.0916 105.673 38.0916 106.108 38.0916C107.668 38.0916 109.228 38.0916 110.787 38.0916C110.89 38.0916 110.992 38.1428 111.081 38.0533C111.03 37.4779 111.03 36.9281 111.056 36.3784ZM154.502 36.3272C155.883 36.3783 157.174 36.7108 158.069 37.8487C158.823 38.8076 158.798 39.8816 158.811 41.2113C158.823 42.1575 158.747 43.2187 158.197 43.9986C157.519 44.9576 156.368 45.4818 155.218 45.6224C155.141 45.6352 155.103 45.648 155.115 45.7119L155.141 45.7631L159.194 52.6929L156.841 52.7313L153.031 45.7375L150.487 45.7758V46.2489C150.487 46.3128 150.487 46.3768 150.487 46.4407V46.901C150.487 46.9905 150.487 47.08 150.487 47.1695V47.7448C150.487 48.2563 150.487 48.8188 150.487 49.3686V50.0335C150.487 50.5705 150.487 51.0947 150.487 51.5166V52.1815V52.271V52.6801C150.474 52.7057 150.461 52.7313 150.423 52.7313C149.797 52.744 149.17 52.744 148.556 52.7313C148.544 52.7313 148.531 52.7185 148.518 52.7057C148.492 52.6801 148.48 51.1842 148.48 49.0618V48.4097V48.2435V44.3311V44.1393V43.1548C148.48 43.0269 148.48 42.8863 148.48 42.7584V41.9657C148.48 41.8378 148.48 41.71 148.48 41.5693V40.8022V40.6104V39.6771V39.4981V38.2579V38.0916V36.6724L148.467 36.5318C148.467 36.4806 148.48 36.4423 148.505 36.4039C148.595 36.34 148.71 36.3656 148.799 36.3656C150.704 36.3272 152.609 36.2505 154.502 36.3272ZM154.361 38.0661H150.628C150.5 38.0661 150.474 38.0916 150.474 38.2195V43.8963C150.474 44.0626 150.513 44.0626 150.717 44.0626C151.906 44.0626 153.095 44.0626 154.297 44.0626C154.604 44.0626 154.924 44.037 155.231 43.973C156.215 43.7429 156.816 43.0781 156.931 42.1958C157.021 41.4798 157.021 40.7511 156.944 40.0351C156.867 39.2168 156.432 38.6158 155.652 38.2962C155.231 38.13 154.796 38.0533 154.361 38.0661ZM94.6391 24.5004C94.4984 24.3598 89.9467 8.63338 89.7933 8.46716L89.7805 8.45438V8.42881C89.7677 8.39045 89.7677 8.33931 89.7294 8.30095C88.8855 8.23702 88.0544 8.28816 87.2106 8.27538C86.9804 8.27538 82.6972 22.7871 82.1474 24.6155C82.4671 24.6283 82.7867 24.6283 83.1064 24.6283C83.3749 24.6283 83.9247 24.7945 84.1548 24.6411C84.3849 24.4876 85.3183 20.3707 85.5229 20.1405C85.5612 20.0254 85.6379 19.9999 85.7658 19.9999C87.5174 19.9999 89.2819 19.9999 91.0335 19.9999C91.1486 19.9999 91.2381 20.0254 91.2764 20.1405C91.5321 20.8693 92.5294 24.3981 92.5294 24.3981C92.5422 24.4493 92.555 24.5004 92.5678 24.5388C92.5806 24.5388 92.5806 24.5516 92.5806 24.5516C92.5806 24.5644 92.5806 24.5644 92.5806 24.5772C92.5934 24.6155 92.6189 24.6411 92.6445 24.6411C93.3094 24.6155 93.9742 24.6155 94.6519 24.6411C94.7158 24.6155 94.703 24.5771 94.6774 24.5388C94.6646 24.5132 94.6519 24.5004 94.6391 24.5004ZM86.0343 18.2099C86.2005 17.6345 86.3539 17.0719 86.5201 16.5222L88.2079 10.6535C88.2334 10.5768 88.2462 10.5129 88.2718 10.4362C88.2846 10.385 88.3485 10.3467 88.3997 10.3467C88.4636 10.3339 88.5147 10.3722 88.5275 10.4362C88.5403 10.4745 88.5403 10.5129 88.5531 10.5512C89.2819 13.0572 90.0106 15.576 90.7266 18.0948C90.7394 18.1332 90.7394 18.1715 90.7522 18.2227L86.0343 18.2099ZM138.277 8.26259C137.957 8.26259 136.218 8.26259 135.924 8.26259C135.886 8.26259 135.847 8.28816 135.835 8.32652L130.95 24.8712H133.009L134.3 19.9999C134.313 19.9615 134.351 19.9359 134.39 19.9359H139.849C139.888 19.9359 139.926 19.9615 139.939 19.9999C140.079 20.4857 141.396 24.8712 141.396 24.8712C141.396 24.8712 143.455 24.8968 143.468 24.8712C143.48 24.7434 138.635 9.23431 138.341 8.31374C138.328 8.28816 138.302 8.26259 138.277 8.26259ZM139.415 18.2227C138.993 18.2227 135.272 18.1715 134.825 18.1715C134.812 18.1715 134.799 18.1715 134.799 18.1587C134.799 18.1459 134.786 18.1459 134.799 18.1332C134.94 17.6473 136.282 12.9549 136.96 10.6279C136.985 10.5257 137.036 10.3594 137.139 10.3594C137.228 10.3594 137.279 10.5257 137.305 10.6152C137.983 12.9549 139.312 17.7112 139.453 18.1843C139.453 18.1971 139.453 18.1971 139.453 18.2099C139.44 18.2099 139.427 18.2227 139.415 18.2227ZM142.764 41.4671C142.739 39.9839 142.151 38.5775 141.102 37.5291C140.054 36.4806 138.622 35.8797 137.139 35.8925C134.045 35.8925 131.577 38.3473 131.513 41.4671C131.5 41.7611 131.487 42.1831 131.475 42.6306C131.449 43.2698 131.424 43.9347 131.424 44.3694C131.424 44.8297 131.449 45.5329 131.462 46.2105C131.475 46.6197 131.487 47.0033 131.487 47.2845C131.513 48.7677 132.101 50.1741 133.15 51.2225C134.198 52.271 135.63 52.8719 137.113 52.8591C140.195 52.8591 142.675 50.4043 142.739 47.2845C142.752 46.9905 142.764 46.5686 142.777 46.1211C142.803 45.4818 142.828 44.8169 142.828 44.3822C142.828 43.9219 142.803 43.2187 142.79 42.5411C142.79 42.1319 142.777 41.7483 142.764 41.4671ZM140.962 44.3694C140.962 44.7786 140.936 45.4178 140.911 46.0443C140.898 46.5046 140.872 46.9393 140.872 47.2462C140.821 49.3558 139.172 51.0052 137.113 51.0052C135.055 51.0052 133.393 49.3558 133.354 47.259C133.354 46.9649 133.341 46.5813 133.329 46.1594C133.303 45.5329 133.29 44.8169 133.29 44.3822C133.29 43.9731 133.316 43.3338 133.341 42.7073C133.354 42.247 133.38 41.8251 133.38 41.5054C133.431 39.3958 135.08 37.7464 137.139 37.7464C139.197 37.7464 140.859 39.3958 140.898 41.4926C140.898 41.7867 140.911 42.1703 140.923 42.5922C140.949 43.2315 140.974 43.9475 140.962 44.3694Z" fill="#393E4D"/>
<defs>
<linearGradient id="paint0_linear_431_44482" x1="-0.492582" y1="30.2437" x2="55.9635" y2="29.2121" gradientUnits="userSpaceOnUse">
<stop stop-color="#29CCB9"/>
<stop offset="0.4948" stop-color="#0091FF"/>
<stop offset="1" stop-color="#FF66B7"/>
</linearGradient>
</defs>
</svg>
