<svg width="54" height="54" viewBox="0 0 54 54" fill="none" xmlns="http://www.w3.org/2000/svg">
<g clip-path="url(#clip0_557_78874)">
<path d="M27 54C41.9117 54 54 41.9117 54 27C54 12.0883 41.9117 0 27 0C12.0883 0 0 12.0883 0 27C0 41.9117 12.0883 54 27 54Z" fill="url(#paint0_linear_557_78874)"/>
<path d="M13.7106 35.0995V22.3915L23.3478 29.6446V35.0995H25.8075V29.1325C25.807 28.9108 25.7552 28.6922 25.656 28.4939C25.5569 28.2956 25.4131 28.1229 25.236 27.9895L13.5486 19.1902C13.3348 19.0315 13.0812 18.9351 12.816 18.9118C12.5507 18.8885 12.2842 18.9392 12.046 19.0583C11.8078 19.1774 11.6073 19.3602 11.4668 19.5863C11.3263 19.8125 11.2512 20.0733 11.25 20.3395V35.0995H13.7106ZM40.3632 35.0995V22.3915L30.726 29.6446V35.0995H28.2663V29.1325C28.2668 28.9108 28.3186 28.6922 28.4178 28.4939C28.5169 28.2956 28.6607 28.1229 28.8378 27.9895L40.5252 19.1938C40.7387 19.0352 40.992 18.9389 41.257 18.9154C41.5219 18.892 41.7882 18.9424 42.0262 19.0611C42.2643 19.1797 42.4648 19.362 42.6056 19.5876C42.7464 19.8133 42.8219 20.0736 42.8238 20.3395V35.0995H40.3632Z" fill="white"/>
</g>
<defs>
<linearGradient id="paint0_linear_557_78874" x1="27" y1="0" x2="27" y2="54" gradientUnits="userSpaceOnUse">
<stop stop-color="#4FA89B"/>
<stop offset="1" stop-color="#6ACEBB"/>
</linearGradient>
<clipPath id="clip0_557_78874">
<rect width="54" height="54" fill="white"/>
</clipPath>
</defs>
</svg>
