<svg width="54" height="54" viewBox="0 0 54 54" fill="none" xmlns="http://www.w3.org/2000/svg">
<path d="M21 10H33L29.7273 42H24.2727L21 10Z" fill="#FF7E00"/>
<path d="M6.05469 4L20.9138 10.0438L23.1269 17.7664L6.05469 4Z" fill="#F27000"/>
<path d="M6.05498 4L23.4433 17.9343L17.4364 23.8102L7.31959 27.1679L5.2646 24.3138L6.05498 23.8102L4.6323 22.2992L5.58076 21.1241L4 20.2847L5.2646 19.1095L4 11.5547L6.05498 4Z" fill="#7E3B0E"/>
<path d="M17.4362 23.8105L23.4431 17.9346L24.0754 28.5112H14.5908L17.4362 23.8105Z" fill="#F27000"/>
<path d="M24.3925 37.9125L24.0764 29.1826L23.1279 34.5549L24.3925 37.9125Z" fill="#F26E00"/>
<path d="M4.1582 37.9127L18.0689 38.5842L23.2854 42.2777L24.3919 41.9419V37.9127L23.1273 34.5551L17.4366 23.8105L7.31972 27.1682L4.1582 37.9127Z" fill="#FF7D00"/>
<path d="M7.31971 48.3209L17.4366 45.299L23.2853 42.2771L18.385 37.9121H4.1582L7.31971 48.3209Z" fill="#F27000"/>
<path d="M23.1275 50.0004H27.3955V45.9713L17.7529 45.1318L23.1275 50.0004Z" fill="#C5AB9C"/>
<path d="M23.1275 48.321L23.4437 42.1094L17.7529 45.1313L23.1275 48.321Z" fill="#D9BDAF"/>
<path d="M17.752 44.9632L18.3843 37.9121H13.0098L17.752 44.9632Z" fill="#DB5A07"/>
<path d="M18.3846 36.9049L14.5908 28.5107L18.3846 33.2115V36.9049Z" fill="#F26E01"/>
<path d="M14.5908 28.5107H24.0754L23.1269 34.5545L18.3846 33.2115L14.5908 28.5107Z" fill="#DC5B07"/>
<path d="M19.9121 28.5107H24.0754V29.1823L23.1269 34.5545L19.9121 28.5107Z" fill="#DC5B07"/>
<path d="M23.127 34.5551L21.7044 31.5332L18.3848 33.212L23.127 34.5551Z" fill="#1F3449"/>
<path d="M47.9453 4L33.0862 10.0438L30.8731 17.7664L47.9453 4Z" fill="#F27000"/>
<path d="M47.945 4L30.5567 17.9343L36.5636 23.8102L46.6804 27.1679L48.7354 24.3138L47.945 23.8102L49.3677 22.2992L48.4192 21.1241L50 20.2847L48.7354 19.1095L50 11.5547L47.945 4Z" fill="#7E3B0E"/>
<path d="M36.5638 23.8105L30.5569 17.9346L29.9246 28.5112H39.4092L36.5638 23.8105Z" fill="#F27000"/>
<path d="M29.6084 37.9125L29.9246 29.1826L30.873 34.5549L29.6084 37.9125Z" fill="#F26E00"/>
<path d="M49.8418 37.9127L35.9311 38.5842L30.7146 42.2777L29.6081 41.9419V37.9127L30.8727 34.5551L36.5634 23.8105L46.6803 27.1682L49.8418 37.9127Z" fill="#FF7D00"/>
<path d="M46.6803 48.3209L36.5634 45.299L30.7146 42.2771L35.615 37.9121H49.8418L46.6803 48.3209Z" fill="#F27000"/>
<path d="M30.8725 50.0004H26.6045V45.9713L36.2471 45.1318L30.8725 50.0004Z" fill="#C5AB9C"/>
<path d="M30.8725 48.321L30.5563 42.1094L36.2471 45.1313L30.8725 48.321Z" fill="#D9BDAF"/>
<path d="M36.248 44.9632L35.6157 37.9121H40.9902L36.248 44.9632Z" fill="#DB5A07"/>
<path d="M35.6154 36.9049L39.4092 28.5107L35.6154 33.2115V36.9049Z" fill="#F26E01"/>
<path d="M39.4092 28.5107H29.9246L30.8731 34.5545L35.6154 33.2115L39.4092 28.5107Z" fill="#DC5B07"/>
<path d="M34.0879 28.5107H29.9246V29.1823L30.8731 34.5545L34.0879 28.5107Z" fill="#DC5B07"/>
<path d="M30.873 34.5551L32.2956 31.5332L35.6152 33.212L30.873 34.5551Z" fill="#1F3449"/>
<path d="M23.127 46.3061L23.9135 46.0277C24.0206 45.9897 24.1335 45.9703 24.2472 45.9703H30.0368C30.1711 45.9703 30.3041 45.9974 30.4278 46.0499L31.0307 46.3061L30.8968 44.2431C30.7943 42.665 29.4845 41.4375 27.9031 41.4375H26.2546C24.6732 41.4375 23.3634 42.665 23.2609 44.2431L23.127 46.3061Z" fill="currentColor"/>
</svg>
