<svg width="54" height="54" viewBox="0 0 54 54" fill="none" xmlns="http://www.w3.org/2000/svg">
<path d="M37.6744 5.84012C43.8292 8.45123 47.9324 14.8858 47.4661 21.4136C36.4621 21.4136 25.4581 21.5068 14.4541 21.3203C14.4541 16.9374 15.9462 12.4612 19.1168 9.38378C23.7795 4.62782 31.5196 3.13575 37.6744 5.84012Z" fill="#5FC0C1"/>
<path d="M37.2099 47.8047C37.8627 47.8047 38.4222 48.1777 38.4222 48.644C38.4222 49.1103 37.8627 49.4833 37.2099 49.4833H19.4916C18.8388 49.4833 18.2793 49.1103 18.2793 48.644C18.2793 48.1777 18.8388 47.8047 19.4916 47.8047H37.2099Z" fill="#E1177C"/>
<path d="M15.6664 49.4832C16.3359 49.4832 16.8787 48.9404 16.8787 48.2709C16.8787 47.6013 16.3359 47.0586 15.6664 47.0586C14.9969 47.0586 14.4541 47.6013 14.4541 48.2709C14.4541 48.9404 14.9969 49.4832 15.6664 49.4832Z" fill="#E1177C"/>
<path d="M26.3041 45.0076C26.9736 45.0076 27.5164 44.4649 27.5164 43.7953C27.5164 43.1258 26.9736 42.583 26.3041 42.583C25.6346 42.583 25.0918 43.1258 25.0918 43.7953C25.0918 44.4649 25.6346 45.0076 26.3041 45.0076Z" fill="#E1177C"/>
<path d="M47.0947 42.583C47.7475 42.583 48.307 43.1425 48.307 43.7953C48.307 44.4481 47.7475 45.0076 47.0947 45.0076H29.7494C29.0966 45.0076 28.5371 44.4481 28.5371 43.7953C28.5371 43.1425 29.0966 42.583 29.7494 42.583H47.0947Z" fill="#E1177C"/>
<path d="M3.54336 40.5311C4.2129 40.5311 4.75566 39.9883 4.75566 39.3188C4.75566 38.6492 4.2129 38.1064 3.54336 38.1064C2.87382 38.1064 2.33105 38.6492 2.33105 39.3188C2.33105 39.9883 2.87382 40.5311 3.54336 40.5311Z" fill="#E1177C"/>
<path d="M20.7986 38.1064C21.4513 38.1064 22.0109 38.666 22.0109 39.3188C22.0109 39.9715 21.4513 40.5311 20.7986 40.5311H6.53067C5.87789 40.5311 5.31836 39.9715 5.31836 39.3188C5.31836 38.666 5.87789 38.1064 6.53067 38.1064H20.7986Z" fill="#E1177C"/>
<path d="M52.7872 38.1064C53.4399 38.1064 53.9995 38.666 53.9995 39.3188C53.9995 39.9715 53.4399 40.5311 52.7872 40.5311H24.4379C23.7851 40.5311 23.2256 39.9715 23.2256 39.3188C23.2256 38.666 23.7851 38.1064 24.4379 38.1064H52.7872Z" fill="#E1177C"/>
<path d="M47.4707 33.6289C48.1235 33.6289 48.683 34.1884 48.683 34.8412C48.683 35.494 48.1235 36.0535 47.4707 36.0535H12.6869C12.0341 36.0535 11.4746 35.494 11.4746 34.8412C11.4746 34.1884 12.0341 33.6289 12.6869 33.6289H47.4707Z" fill="#E1177C"/>
<path d="M8.86172 36.0535C9.53126 36.0535 10.074 35.5108 10.074 34.8412C10.074 34.1717 9.53126 33.6289 8.86172 33.6289C8.19218 33.6289 7.64941 34.1717 7.64941 34.8412C7.64941 35.5108 8.19218 36.0535 8.86172 36.0535Z" fill="#E1177C"/>
<path d="M40.1924 29.2471C40.8452 29.2471 41.4047 29.8066 41.4047 30.4594C41.4047 31.1122 40.8452 31.6717 40.1924 31.6717H5.4086C4.75582 31.6717 4.19629 31.1122 4.19629 30.4594C4.19629 29.8066 4.75582 29.2471 5.4086 29.2471H40.1924Z" fill="#E1177C"/>
<path d="M1.21231 31.6717C1.88184 31.6717 2.4246 31.1289 2.4246 30.4594C2.4246 29.7898 1.88184 29.2471 1.21231 29.2471C0.54277 29.2471 0 29.7898 0 30.4594C0 31.1289 0.54277 31.6717 1.21231 31.6717Z" fill="#E1177C"/>
<path d="M8.86172 27.1951C9.53126 27.1951 10.074 26.6524 10.074 25.9828C10.074 25.3133 9.53126 24.7705 8.86172 24.7705C8.19218 24.7705 7.64941 25.3133 7.64941 25.9828C7.64941 26.6524 8.19218 27.1951 8.86172 27.1951Z" fill="#E1177C"/>
<path d="M50.8255 24.7705C51.4782 24.7705 52.0378 25.33 52.0378 25.9828C52.0378 26.6356 51.4782 27.1951 50.8255 27.1951H12.9643C12.3115 27.1951 11.752 26.6356 11.752 25.9828C11.752 25.33 12.3115 24.7705 12.9643 24.7705H50.8255Z" fill="#E1177C"/>
</svg>
