<svg width="54" height="54" viewBox="0 0 54 54" fill="none" xmlns="http://www.w3.org/2000/svg">
<g clip-path="url(#clip0_557_78875)">
<path d="M27.0009 13.0638C32.1402 13.0638 36.3064 10.643 36.3064 7.6569C36.3064 4.67075 32.1402 2.25 27.0009 2.25C21.8615 2.25 17.6953 4.67075 17.6953 7.6569C17.6953 10.643 21.8615 13.0638 27.0009 13.0638Z" fill="#E6007A"/>
<path d="M27.0009 53.804C32.1402 53.804 36.3064 51.3833 36.3064 48.3971C36.3064 45.411 32.1402 42.9902 27.0009 42.9902C21.8615 42.9902 17.6953 45.411 17.6953 48.3971C17.6953 51.3833 21.8615 53.804 27.0009 53.804Z" fill="#E6007A"/>
<path d="M14.0328 20.5481C16.6025 16.1017 16.5858 11.286 13.9956 9.79196C11.4053 8.29787 7.22242 10.6912 4.65277 15.1376C2.08312 19.584 2.09979 24.3997 4.69002 25.8938C7.28025 27.3878 11.4632 24.9945 14.0328 20.5481Z" fill="#E6007A"/>
<path d="M49.3439 40.9156C51.9135 36.4692 51.8983 31.6543 49.3098 30.1612C46.7213 28.6681 42.5398 31.0623 39.9702 35.5087C37.4005 39.9551 37.4158 44.7699 40.0042 46.263C42.5927 47.7561 46.7742 45.362 49.3439 40.9156Z" fill="#E6007A"/>
<path d="M13.9956 46.2627C16.5858 44.7686 16.6025 39.9529 14.0328 35.5066C11.4632 31.0602 7.28025 28.6669 4.69002 30.1609C2.09979 31.655 2.08312 36.4707 4.65277 40.9171C7.22242 45.3635 11.4053 47.7568 13.9956 46.2627Z" fill="#E6007A"/>
<path d="M49.3127 25.8954C51.9012 24.4023 51.9164 19.5875 49.3468 15.1411C46.7771 10.6947 42.5956 8.30055 40.0072 9.79362C37.4187 11.2867 37.4034 16.1016 39.9731 20.548C42.5427 24.9944 46.7242 27.3885 49.3127 25.8954Z" fill="#E6007A"/>
</g>
<defs>
<clipPath id="clip0_557_78875">
<rect width="54" height="54" fill="white"/>
</clipPath>
</defs>
</svg>
