<svg width="54" height="54" viewBox="0 0 54 54" fill="none" xmlns="http://www.w3.org/2000/svg">
<path opacity="0.6" fill-rule="evenodd" clip-rule="evenodd" d="M30.2234 21.6579C33.3493 18.4771 38.574 16.1931 40.9577 15.3076L40.9335 15.3385C38.9191 17.9289 33.4941 24.9052 32.3166 26.5591C31.7449 27.3623 30.5995 29.195 29.4747 31.129C28.4353 32.9156 27.4071 34.8001 26.8632 36.0466C26.174 34.8107 25.4271 32.9596 25.5568 30.6404C25.6961 28.1466 26.8502 25.0903 30.2234 21.6579Z" fill="url(#paint0_linear_547_52192)"/>
<path fill-rule="evenodd" clip-rule="evenodd" d="M41.5376 15.0656L41.8443 14.6709L41.3519 14.8422C41.3517 14.8423 41.3514 14.8424 41.3511 14.8425V14.8425L41.3505 14.8427V14.8427C39.2791 15.5638 33.4184 17.9683 29.9983 21.4483C26.5837 24.923 25.3898 28.0453 25.2456 30.6245C25.1016 33.2011 26.0125 35.233 26.7559 36.49H26.7559H26.756C26.7614 36.4905 27.0729 36.5239 27.1572 36.5217C27.8447 36.5008 29.7759 36.4406 32.2841 35.2028C35.4214 33.6536 37.3003 31.1275 38.4343 28.9459C39.318 27.2459 39.8483 24.9758 40.0075 22.7124C40.1651 20.4812 40.4679 17.446 41.5201 15.1044L41.5376 15.0656ZM40.9575 15.3083C38.5737 16.1939 33.3494 18.4778 30.2235 21.6585C26.8504 25.0909 25.6962 28.1472 25.5568 30.641C25.4272 32.9602 26.174 34.8111 26.8632 36.0472C27.396 34.8265 28.3931 32.9937 29.4104 31.2404C29.4341 31.1997 29.4575 31.1592 29.4811 31.1186C29.4953 31.0941 29.5098 31.0696 29.524 31.0451C29.6481 30.8319 29.7726 30.6201 29.8964 30.4109C30.7098 29.0363 31.4947 27.7761 32.0244 26.9851C32.1333 26.8225 32.2312 26.6796 32.3167 26.5597C32.4241 26.4087 32.5672 26.2134 32.7395 25.9811C34.4149 23.7241 38.8816 17.9779 40.7969 15.5149C40.8428 15.4557 40.8874 15.3985 40.9305 15.3432L40.9333 15.3395C40.9333 15.3394 40.9336 15.3393 40.9336 15.3391L40.9575 15.3083ZM39.3592 17.8683C38.4899 18.9882 37.4962 20.2704 36.5356 21.5153C34.7915 23.7756 33.1565 25.9131 32.5728 26.7329C32.018 27.5124 30.9038 29.2927 29.7965 31.1927C29.7817 31.218 29.767 31.2433 29.7522 31.2685C29.75 31.2722 29.7481 31.2758 29.7458 31.2795C29.6757 31.4004 29.6053 31.5216 29.5354 31.643C29.3127 32.0294 29.0923 32.4173 28.8791 32.7995C28.7574 33.0177 28.6377 33.2341 28.5214 33.4473C27.9444 34.5045 27.4449 35.4828 27.1275 36.2184C27.1341 36.2184 27.1408 36.2181 27.1475 36.2178H27.1491C27.8174 36.1975 29.6955 36.14 32.1433 34.9318C35.2012 33.4222 37.0397 30.9562 38.1562 28.8086C39.0155 27.1558 39.539 24.9286 39.6966 22.6915C39.8335 20.7525 40.0815 18.1637 40.8537 15.9451C40.437 16.481 39.9243 17.1404 39.3592 17.8683Z" fill="url(#paint1_linear_547_52192)"/>
<path opacity="0.6" fill-rule="evenodd" clip-rule="evenodd" d="M40.8534 15.9443C38.6316 18.8019 33.6864 25.1678 32.5724 26.7324C32.0102 27.5223 30.8737 29.3397 29.7519 31.2681C28.6945 33.0856 27.6568 34.9899 27.127 36.2179C27.1285 36.2179 27.13 36.2179 27.1317 36.2179L27.1471 36.2173H27.1492C27.8179 36.1967 29.6957 36.1392 32.1427 34.9313C35.2009 33.4217 37.0394 30.9557 38.1559 28.8081C39.0151 27.1553 39.5387 24.9282 39.6963 22.6911C39.8332 20.752 40.0812 18.163 40.8534 15.9443Z" fill="url(#paint2_linear_547_52192)"/>
<path opacity="0.6" fill-rule="evenodd" clip-rule="evenodd" d="M23.7831 21.6579C20.6572 18.4771 15.4326 16.1931 13.0488 15.3076L13.0728 15.3385C15.0873 17.9289 20.5123 24.9052 21.6897 26.5591C22.2615 27.3623 23.407 29.195 24.5319 31.129C25.5712 32.9156 26.5994 34.8001 27.1433 36.0466C27.8325 34.8107 28.5793 32.9596 28.4496 30.6404C28.3104 28.1466 27.1562 25.0903 23.7831 21.6579Z" fill="url(#paint3_linear_547_52192)"/>
<path fill-rule="evenodd" clip-rule="evenodd" d="M12.4686 15.0652L12.1621 14.6709L12.6544 14.8422C12.6547 14.8423 12.655 14.8424 12.6552 14.8425L12.6559 14.8427L12.6558 14.8428C14.7277 15.5638 20.5881 17.9683 24.008 21.4483C27.4228 24.923 28.6168 28.0453 28.761 30.6245C28.9049 33.2011 27.9938 35.233 27.2505 36.49C27.2505 36.49 27.2505 36.49 27.2505 36.49C27.2456 36.4905 26.9336 36.5239 26.8492 36.5217C26.1616 36.5008 24.2305 36.4406 21.7224 35.2028C18.585 33.6536 16.7062 31.1275 15.5723 28.9459C14.6884 27.2459 14.1583 24.9758 13.9988 22.7124C13.8406 20.4692 13.5352 17.4133 12.4693 15.0667L12.4686 15.0652ZM13.1526 15.9448C14.4692 17.6381 16.7429 20.5643 18.6085 22.9929C19.8387 24.5943 20.8915 25.9793 21.3755 26.6518C21.3958 26.6801 21.4152 26.7072 21.4335 26.7329C21.6448 27.0297 21.9371 27.4715 22.2792 28.0097C22.8495 28.9068 23.5581 30.0717 24.2606 31.2795C25.3158 33.0937 26.3502 34.9928 26.8789 36.2184C26.8723 36.2184 26.8657 36.2181 26.8589 36.2178H26.8573C26.189 36.1975 24.3111 36.14 21.8633 34.9318C18.8052 33.4222 16.9667 30.9562 15.8502 28.8086C14.9909 27.1558 14.4674 24.9286 14.3097 22.6915C14.1729 20.7525 13.9248 18.1635 13.1526 15.9448ZM24.6457 31.3259C25.6455 33.0531 26.6191 34.8463 27.1432 36.0472C27.8324 34.8111 28.5792 32.9602 28.4495 30.641C28.3103 28.1472 27.1561 25.0909 23.7829 21.6585C20.6571 18.4778 15.4326 16.1938 13.0488 15.3083L13.0731 15.3395L13.0792 15.3474C14.3401 16.9689 16.9264 20.2947 18.9769 22.9657C20.2093 24.5708 21.2481 25.9395 21.6896 26.5597C22.1899 27.2625 23.1295 28.7535 24.1101 30.4109C24.2481 30.6441 24.3869 30.8806 24.5254 31.1186C24.5655 31.1876 24.6056 31.2567 24.6457 31.3259Z" fill="url(#paint4_linear_547_52192)"/>
<path opacity="0.6" fill-rule="evenodd" clip-rule="evenodd" d="M13.1523 15.9443C15.3742 18.8019 20.3194 25.1678 21.4333 26.7324C21.9955 27.5223 23.1321 29.3397 24.254 31.2681C25.3113 33.0856 26.349 34.9899 26.8788 36.2179C26.8773 36.2179 26.8758 36.2179 26.8741 36.2179L26.8587 36.2173H26.8565C26.1878 36.1967 24.3102 36.1392 21.863 34.9313C18.8049 33.4217 16.9665 30.9557 15.8499 28.8081C14.9906 27.1553 14.4672 24.9282 14.3095 22.6911C14.1727 20.752 13.9246 18.163 13.1523 15.9443Z" fill="url(#paint5_linear_547_52192)"/>
<path fill-rule="evenodd" clip-rule="evenodd" d="M3.55129 23.5196C3.31912 23.3957 2.456 22.9774 1.87305 22.6961C2.31986 22.6835 2.92191 22.7103 3.39823 22.8765C4.11061 23.125 4.475 23.4661 4.66152 23.7854C4.77854 23.9858 4.82934 24.184 4.84779 24.3568C4.68707 24.2384 4.49125 24.105 4.30067 23.9801C3.99788 23.7817 3.69653 23.5972 3.55129 23.5196Z" fill="url(#paint6_linear_547_52192)"/>
<path fill-rule="evenodd" clip-rule="evenodd" d="M3.49221 22.6209C2.72206 22.3522 1.68571 22.4196 1.33453 22.461L0.871094 22.5156L1.27342 22.7095C1.57617 22.957 1.83145 23.3513 2.01707 23.6589C2.21054 23.9795 2.46179 24.28 2.72847 24.473C3.0616 24.714 3.53816 24.9578 4.1325 24.9611C4.53115 24.9633 4.90472 24.7645 5.0761 24.6734C5.108 24.6564 5.13289 24.6432 5.14964 24.6357C5.16459 24.3924 5.12771 24.0347 4.90358 23.6511C4.67831 23.2654 4.25508 22.8871 3.49221 22.6209ZM3.66055 23.5807C3.61816 23.5561 3.58133 23.5354 3.5515 23.5195C3.31916 23.3955 2.45595 22.9771 1.87331 22.6959C2.32012 22.6833 2.92214 22.7102 3.3984 22.8763C4.11078 23.1249 4.4752 23.466 4.6617 23.7853C4.77871 23.9856 4.82949 24.1838 4.84797 24.3565C4.5348 24.126 4.08301 23.8341 3.78233 23.6528C3.73827 23.6262 3.69738 23.602 3.66055 23.5807ZM1.93321 23.0277C2.06039 23.2012 2.1692 23.3759 2.25699 23.5213C2.43823 23.8216 2.66665 24.0903 2.89439 24.2551C3.19963 24.476 3.61947 24.6869 4.13408 24.6897C4.39217 24.6912 4.58841 24.647 4.72143 24.6037C4.56288 24.4849 4.3549 24.3423 4.14555 24.2051C3.84413 24.0076 3.55144 23.8288 3.4178 23.7574C3.21335 23.6483 2.4986 23.301 1.93321 23.0277Z" fill="currentColor"/>
<path fill-rule="evenodd" clip-rule="evenodd" d="M1.93262 23.0273C2.05983 23.2009 2.16866 23.3756 2.25646 23.5211C2.4377 23.8214 2.66612 24.09 2.89385 24.2548C3.19909 24.4757 3.61893 24.6867 4.13354 24.6895C4.39168 24.6909 4.58792 24.6467 4.72097 24.6034C4.32978 24.3103 3.64863 23.8807 3.41726 23.7572C3.21295 23.6481 2.49824 23.3007 1.93262 23.0273Z" fill="url(#paint7_linear_547_52192)"/>
<path fill-rule="evenodd" clip-rule="evenodd" d="M49.9606 23.5626C50.1928 23.4387 51.0559 23.0204 51.6388 22.739C51.192 22.7264 50.59 22.7533 50.1137 22.9195C49.4014 23.168 49.0371 23.5091 48.8503 23.8284C48.7334 24.0287 48.6827 24.227 48.6641 24.3997C48.8249 24.2814 49.0206 24.148 49.2113 24.0231C49.5141 23.8246 49.8153 23.6401 49.9606 23.5626Z" fill="url(#paint8_linear_547_52192)"/>
<path fill-rule="evenodd" clip-rule="evenodd" d="M50.0206 22.6639C50.7908 22.3951 51.8271 22.4625 52.1784 22.5039L52.6418 22.5585L52.2393 22.7524C51.9368 23 51.6812 23.3943 51.4959 23.7019C51.3024 24.0224 51.051 24.3229 50.7844 24.5159C50.4512 24.757 49.9747 25.0007 49.3804 25.004C48.9818 25.0062 48.608 24.8075 48.4368 24.7164C48.4048 24.6994 48.38 24.6862 48.3633 24.6786C48.3483 24.4353 48.385 24.0777 48.6094 23.694C48.8345 23.3083 49.2576 22.93 50.0206 22.6639ZM49.8522 23.6236C49.8948 23.5991 49.9315 23.5784 49.9613 23.5624C50.1937 23.4384 51.0569 23.0201 51.6395 22.7389C51.1927 22.7263 50.5907 22.7531 50.1144 22.9193C49.4021 23.1679 49.0377 23.509 48.8512 23.8283C48.7341 24.0286 48.6834 24.2268 48.6647 24.3995C48.9779 24.169 49.4299 23.877 49.7306 23.6958C49.7745 23.6692 49.8155 23.645 49.8522 23.6236ZM51.5796 23.0707C51.4524 23.2442 51.3436 23.4188 51.2559 23.5643C51.0747 23.8646 50.8462 24.1333 50.6185 24.2981C50.3131 24.5189 49.8934 24.7299 49.3787 24.7327C49.1207 24.7342 48.9244 24.69 48.7914 24.6467C48.9501 24.5279 49.158 24.3853 49.3673 24.2481C49.6688 24.0506 49.9613 23.8718 50.0949 23.8004C50.2995 23.6913 51.0143 23.3439 51.5796 23.0707Z" fill="currentColor"/>
<path fill-rule="evenodd" clip-rule="evenodd" d="M51.5793 23.0713C51.452 23.2448 51.3432 23.4195 51.2555 23.565C51.074 23.8653 50.8458 24.134 50.6181 24.2988C50.3128 24.5196 49.893 24.7306 49.3783 24.7334C49.1203 24.7348 48.9241 24.6906 48.791 24.6474C49.1821 24.3542 49.8632 23.9246 50.0945 23.8011C50.2988 23.692 51.0136 23.3447 51.5793 23.0713Z" fill="url(#paint9_linear_547_52192)"/>
<path fill-rule="evenodd" clip-rule="evenodd" d="M26.827 9.94663C26.8329 9.68869 26.8929 8.75093 26.9344 8.11816C26.6998 8.48904 26.4226 9.01068 26.3321 9.49584C26.1968 10.2215 26.3176 10.6996 26.508 11.0167C26.6275 11.2157 26.7783 11.3577 26.9225 11.4596C26.8977 11.2648 26.8771 11.0328 26.8614 10.8094C26.8365 10.4546 26.8232 10.108 26.827 9.94663Z" fill="url(#paint10_linear_547_52192)"/>
<path fill-rule="evenodd" clip-rule="evenodd" d="M26.0583 9.44789C26.2046 8.66342 26.7826 7.82228 26.995 7.54652L27.2752 7.18262L27.2463 7.61919C27.3149 7.99852 27.5376 8.41118 27.718 8.72166C27.9061 9.04526 28.0475 9.4076 28.0856 9.72923C28.1332 10.1309 28.1115 10.6551 27.8173 11.1585C27.6199 11.4961 27.2565 11.7121 27.0899 11.8112C27.0589 11.8296 27.0346 11.844 27.0196 11.8544C26.7959 11.7453 26.4966 11.5354 26.2678 11.1544C26.0378 10.7714 25.9133 10.225 26.0583 9.44789ZM26.8268 10.0699C26.8261 10.0218 26.8262 9.98039 26.8269 9.94724C26.8329 9.6891 26.8929 8.75124 26.9343 8.11882C26.6997 8.48969 26.4226 9.0113 26.3321 9.49643C26.1967 10.2221 26.3176 10.7002 26.508 11.0173C26.6275 11.2162 26.7782 11.3582 26.9224 11.4602C26.8742 11.0805 26.8407 10.5532 26.83 10.2088C26.8284 10.1583 26.8273 10.1117 26.8268 10.0699ZM27.1992 8.33527C27.2897 8.52937 27.3905 8.70856 27.4758 8.85539C27.6521 9.15855 27.7765 9.4857 27.8091 9.76035C27.8526 10.1284 27.8302 10.5883 27.5754 11.0241C27.4476 11.2428 27.3103 11.3863 27.2053 11.477C27.179 11.2837 27.1563 11.0368 27.1391 10.7915C27.1143 10.4383 27.1018 10.1018 27.1052 9.95337C27.1105 9.72622 27.1592 8.94917 27.1992 8.33527Z" fill="currentColor"/>
<path fill-rule="evenodd" clip-rule="evenodd" d="M27.199 8.33496C27.2895 8.5291 27.3903 8.70833 27.4757 8.85518C27.6519 9.15834 27.7764 9.48549 27.8089 9.76014C27.8524 10.1282 27.8301 10.5881 27.5753 11.0239C27.4474 11.2426 27.3101 11.3861 27.2051 11.4768C27.1402 11 27.0991 10.2102 27.1051 9.95315C27.1103 9.72614 27.159 8.94912 27.199 8.33496Z" fill="url(#paint11_linear_547_52192)"/>
<path opacity="0.6" fill-rule="evenodd" clip-rule="evenodd" d="M22.0907 23.8605C22.8125 19.9905 25.5509 15.7814 26.8795 13.9775L26.8772 14.0121C26.6851 16.9088 26.1678 24.7098 26.1261 26.5071C26.1059 27.3799 26.1784 29.295 26.3174 31.2758C26.4458 33.1056 26.6317 35.0031 26.8562 36.1928C25.7184 35.6027 24.2269 34.5823 23.1518 32.7922C21.9958 30.8675 21.3117 28.0367 22.0907 23.8605Z" fill="url(#paint12_linear_547_52192)"/>
<path fill-rule="evenodd" clip-rule="evenodd" d="M27.1889 13.5176L27.218 13.0771L26.9378 13.4411C25.7592 14.9716 22.6068 19.5769 21.8168 23.8119C21.0282 28.0395 21.716 30.9385 22.9116 32.9292C24.1059 34.9178 25.811 35.9944 26.9997 36.5739C26.9997 36.5739 27.2527 36.4475 27.3149 36.4049C27.8165 36.0593 29.2249 35.0877 30.468 32.9617C32.0229 30.3018 32.1462 27.518 31.889 25.3486C31.6886 23.6578 30.9367 21.7122 29.9121 19.9494C28.8964 18.202 27.5798 15.778 27.1889 13.5176ZM27.1395 36.1933C27.1406 36.1927 27.1417 36.1919 27.1429 36.1911L27.1542 36.1832L27.1557 36.1822C27.6436 35.846 29.0133 34.9018 30.2261 32.8274C31.7417 30.235 31.8656 27.5155 31.6126 25.3797C31.4177 23.7359 30.6826 21.8255 29.67 20.0832C28.7923 18.5729 27.6692 16.5251 27.1237 14.5016C26.912 17.6968 26.4438 24.8129 26.4045 26.5132C26.3846 27.3715 26.456 29.2709 26.5943 31.246C26.7247 33.1074 26.9138 35.0242 27.1395 36.1933ZM22.0907 23.8604C22.8125 19.9905 25.5509 15.7813 26.8795 13.9775L26.8772 14.012V14.0122C26.685 16.9091 26.1678 24.7098 26.1261 26.507C26.1059 27.3799 26.1784 29.295 26.3174 31.2757C26.4458 33.1056 26.6317 35.003 26.8562 36.1927C25.7184 35.6026 24.2268 34.5822 23.1518 32.7921C21.9958 30.8674 21.3117 28.0366 22.0907 23.8604Z" fill="url(#paint13_linear_547_52192)"/>
<path opacity="0.6" fill-rule="evenodd" clip-rule="evenodd" d="M27.1239 14.501C26.9122 17.6962 26.444 24.8122 26.4046 26.5125C26.3848 27.3709 26.4561 29.2703 26.5945 31.2454C26.7249 33.1068 26.914 35.0236 27.1397 36.1927C27.1408 36.1922 27.1419 36.1913 27.1431 36.1905L27.1544 36.1827L27.1559 36.1816C27.6438 35.8454 29.0135 34.9012 30.2263 32.8268C31.7419 30.2344 31.8658 27.5149 31.6128 25.3791C31.4179 23.7353 30.6828 21.8249 29.6701 20.0826C28.7925 18.5723 27.6694 16.5245 27.1239 14.501Z" fill="url(#paint14_linear_547_52192)"/>
<path opacity="0.6" fill-rule="evenodd" clip-rule="evenodd" d="M18.0344 26.1839C14.2185 24.9045 9.1126 25.1735 6.84863 25.4206L6.88067 25.4355C9.56656 26.6892 16.7999 30.0656 18.4285 30.9093C19.2193 31.3191 20.8976 32.3176 22.6019 33.4047C24.1764 34.4089 25.7833 35.4952 26.7379 36.2679C26.7666 35.012 26.5831 33.2448 25.5073 31.4553C24.3505 29.531 22.1522 27.5646 18.0344 26.1839Z" fill="url(#paint15_linear_547_52192)"/>
<path fill-rule="evenodd" clip-rule="evenodd" d="M6.2856 25.4586L5.87695 25.2678L6.33968 25.2076C6.33993 25.2076 6.34018 25.2076 6.34043 25.2075L6.34102 25.2074V25.2075C8.28828 24.9542 13.9496 24.5274 18.1245 25.9272C22.293 27.3249 24.5506 29.3278 25.747 31.318C26.9422 33.3061 27.0713 35.2823 27.0084 36.5765C27.0084 36.5765 26.7716 36.7296 26.7031 36.7616C26.1484 37.0191 24.5901 37.741 22.0797 37.7579C18.939 37.7785 16.3877 36.5217 14.5724 35.2417C13.1575 34.2443 11.7844 32.6533 10.7083 30.9199C9.64184 29.2021 8.11742 26.8977 6.28677 25.4596C6.28638 25.4593 6.28599 25.4589 6.2856 25.4586ZM7.19764 25.8844C8.74143 27.338 10.0244 29.2946 10.9464 30.7795C12.0101 32.4927 13.3599 34.0522 14.7355 35.0219C16.5227 36.2819 19.0168 37.5069 22.0778 37.4865C24.5276 37.4703 26.0425 36.7675 26.5819 36.5174L26.5834 36.5166C26.5888 36.5141 26.5942 36.5117 26.5995 36.509C25.6657 35.7468 24.0478 34.6513 22.449 33.6315C22.0233 33.36 21.5996 33.0943 21.1914 32.8421C19.9669 32.0857 18.8818 31.4516 18.2974 31.1488C16.7565 30.3504 10.1596 27.2671 7.19764 25.8844ZM26.7733 36.6539L26.773 36.6536L26.7733 36.6539ZM22.7314 33.4875C24.2638 34.4681 25.8091 35.5162 26.7375 36.2678C26.7662 35.0118 26.5826 33.2447 25.5068 31.4551C24.3501 29.5308 22.1518 27.5644 18.0339 26.1838C14.218 24.9044 9.11219 25.1734 6.8482 25.4204L6.88021 25.4354L6.88066 25.4356L6.88419 25.4372C7.2191 25.5936 7.62449 25.7828 8.08077 25.9959C11.2869 27.4936 17.003 30.1709 18.428 30.9092C18.5269 30.9604 18.6396 31.0208 18.7645 31.0895C19.6193 31.5592 21.0446 32.414 22.5013 33.3407C22.5314 33.3599 22.5616 33.3791 22.5918 33.3983C22.6383 33.428 22.6848 33.4577 22.7314 33.4875Z" fill="url(#paint16_linear_547_52192)"/>
<path opacity="0.6" fill-rule="evenodd" clip-rule="evenodd" d="M7.19824 25.8848C10.1609 27.2678 16.7572 30.3508 18.2979 31.1491C19.0757 31.5521 20.7403 32.542 22.4399 33.6258C24.0417 34.6473 25.6644 35.7456 26.6002 36.5094C26.5989 36.5099 26.5977 36.5104 26.5964 36.5113L26.5839 36.517L26.5822 36.5178C26.0427 36.7679 24.5279 37.4706 22.0783 37.4869C19.0173 37.5073 16.5233 36.2823 14.736 35.0223C13.3604 34.0525 12.0106 32.4931 10.947 30.7799C10.025 29.2949 8.742 27.3384 7.19824 25.8848Z" fill="url(#paint17_linear_547_52192)"/>
<path opacity="0.6" fill-rule="evenodd" clip-rule="evenodd" d="M35.4631 26.1839C39.279 24.9045 44.3848 25.1735 46.6489 25.4206L46.6169 25.4355C43.9308 26.6892 36.6976 30.0656 35.069 30.9093C34.2782 31.3191 32.6 32.3176 30.8957 33.4047C29.321 34.4089 27.7142 35.4952 26.7596 36.2679C26.7309 35.012 26.9144 33.2448 27.9902 31.4553C29.1471 29.531 31.3452 27.5646 35.4631 26.1839Z" fill="url(#paint18_linear_547_52192)"/>
<path fill-rule="evenodd" clip-rule="evenodd" d="M47.2113 25.4586L47.6199 25.2678L47.1573 25.2076C47.157 25.2076 47.1567 25.2076 47.1565 25.2075L47.1559 25.2074V25.2075C45.2086 24.9542 39.5475 24.5274 35.3725 25.9272C31.2039 27.3249 28.9462 29.3278 27.7499 31.318C26.5547 33.3061 26.4256 35.2823 26.4885 36.5765C26.4885 36.5765 26.7253 36.7296 26.7938 36.7616C27.3485 37.0191 28.9067 37.741 31.4171 37.7579C34.558 37.7785 37.1091 36.5217 38.9245 35.2417C40.3394 34.2443 41.7125 32.6533 42.7886 30.9199C43.855 29.2021 45.3795 26.8977 47.2102 25.4596C47.2105 25.4593 47.211 25.4589 47.2113 25.4586ZM46.2991 25.8844C44.7554 27.338 43.4725 29.2946 42.5506 30.7795C41.4867 32.4927 40.137 34.0522 38.7614 35.0219C36.9741 36.2819 34.4801 37.5069 31.4191 37.4865C28.9693 37.4703 27.4544 36.7675 26.915 36.5174L26.9135 36.5166C26.9081 36.5141 26.9027 36.5117 26.8974 36.509C27.8312 35.7468 29.4492 34.6513 31.048 33.6315C31.4736 33.36 31.8973 33.0943 32.3054 32.8421C33.5301 32.0857 34.6151 31.4516 35.1996 31.1488C36.7406 30.3504 43.3372 27.2671 46.2991 25.8844ZM26.7236 36.6539L26.7239 36.6536L26.7236 36.6539ZM30.7655 33.4875C29.2332 34.4681 27.6879 35.5162 26.7594 36.2678C26.7307 35.0118 26.9143 33.2447 27.9901 31.4551C29.1469 29.5308 31.345 27.5644 35.463 26.1838C39.2789 24.9044 44.3847 25.1734 46.6488 25.4204L46.6167 25.4354L46.6162 25.4356L46.6129 25.4372C46.2777 25.5936 45.8724 25.7828 45.4162 25.9959C42.2102 27.4936 36.494 30.1709 35.0688 30.9092C34.97 30.9604 34.8573 31.0208 34.7323 31.0895C33.8778 31.5592 32.4523 32.414 30.9957 33.3407C30.9654 33.3599 30.9353 33.3791 30.9053 33.3983C30.8588 33.428 30.812 33.4577 30.7655 33.4875Z" fill="currentColor"/>
<path opacity="0.6" fill-rule="evenodd" clip-rule="evenodd" d="M46.2984 25.8848C43.3359 27.2678 36.7393 30.3508 35.1986 31.1491C34.4209 31.5521 32.7564 32.542 31.0568 33.6258C29.4549 34.6473 27.8322 35.7456 26.8965 36.5094C26.8977 36.5099 26.899 36.5104 26.9002 36.5113L26.9127 36.517L26.9144 36.5178C27.454 36.7679 28.9689 37.4706 31.4183 37.4869C34.4794 37.5073 36.9734 36.2823 38.7607 35.0223C40.1363 34.0525 41.486 32.4931 42.5496 30.7799C43.4718 29.2949 44.7547 27.3384 46.2984 25.8848Z" fill="url(#paint19_linear_547_52192)"/>
<path opacity="0.6" fill-rule="evenodd" clip-rule="evenodd" d="M12.5252 31.0265C8.0817 31.8698 3.27606 34.9228 1.21875 36.4006L1.25848 36.3977C4.58929 36.147 13.5595 35.4725 15.6272 35.4019C16.6314 35.3675 18.8364 35.4201 21.1177 35.5444C23.2253 35.6591 25.4115 35.836 26.7836 36.0648C26.0888 34.8289 24.8935 33.2124 22.8186 32.062C20.5875 30.825 17.3202 30.1165 12.5252 31.0265Z" fill="url(#paint20_linear_547_52192)"/>
<path fill-rule="evenodd" clip-rule="evenodd" d="M0.694409 36.7458L0.1875 36.7838L0.602403 36.4723C2.34725 35.1624 7.60305 31.6512 12.4657 30.7284C17.3197 29.8071 20.6656 30.5187 22.9731 31.7981C25.2783 33.0762 26.541 34.9255 27.2247 36.2172H27.2246C27.2246 36.2172 27.0827 36.4953 27.0345 36.564C26.6438 37.1172 25.5453 38.6708 23.116 40.0596C20.0767 41.7966 16.8749 41.9705 14.3746 41.7196C12.4261 41.5242 10.1767 40.7293 8.13375 39.6334C6.11463 38.5508 3.31737 37.15 0.717301 36.7493C0.709705 36.7482 0.702111 36.7469 0.69452 36.7458C0.694481 36.7458 0.694448 36.7458 0.694409 36.7458ZM1.82523 36.6609C4.16155 37.229 6.53396 38.4282 8.28423 39.367C10.3035 40.4498 12.5122 41.2269 14.4066 41.4168C16.8681 41.664 19.996 41.4903 22.9581 39.797C25.329 38.4415 26.3963 36.9305 26.7762 36.3928L26.7772 36.3914L26.7886 36.3752C25.7859 36.204 24.3077 36.0604 22.734 35.9503C22.1913 35.9123 21.6373 35.8781 21.0875 35.8483C18.8126 35.7245 16.6258 35.673 15.6383 35.7066C13.6821 35.7734 5.49928 36.3849 1.82523 36.6609ZM6.76675 35.9885C9.46964 35.791 12.369 35.5853 14.1963 35.476C14.8105 35.4394 15.3036 35.4136 15.6274 35.4025C15.7479 35.3984 15.8857 35.3954 16.0388 35.3938C16.2195 35.3919 16.4215 35.3916 16.6417 35.3933C17.0126 35.3954 17.435 35.4027 17.8937 35.4141C18.1746 35.4215 18.4692 35.4302 18.7738 35.4407C19.5123 35.466 20.3103 35.501 21.1179 35.5449C23.2254 35.6597 25.4116 35.8366 26.7838 36.0653C26.0889 34.8295 24.8937 33.2131 22.8187 32.0626C20.5876 30.8256 17.3204 30.1171 12.5253 31.0271C8.08187 31.8705 3.2762 34.9233 1.21888 36.4012C1.23202 36.4001 1.24528 36.399 1.25861 36.3982L1.29861 36.3952C2.55937 36.3005 4.59993 36.147 6.76675 35.9885Z" fill="currentColor"/>
<path opacity="0.8" fill-rule="evenodd" clip-rule="evenodd" d="M1.8252 36.6606C5.49932 36.3844 13.6819 35.7731 15.6381 35.7064C16.6255 35.6727 18.8124 35.7243 21.0873 35.848C23.2313 35.9646 25.4398 36.1443 26.7884 36.3749C26.7875 36.376 26.7866 36.3771 26.7858 36.3787L26.777 36.3912L26.7758 36.3928C26.3956 36.9308 25.3283 38.4418 22.9579 39.7967C19.9957 41.49 16.8679 41.6634 14.4064 41.4165C12.512 41.2266 10.3032 40.4495 8.28405 39.3667C6.53381 38.4279 4.16148 37.2287 1.8252 36.6606Z" fill="url(#paint21_linear_547_52192)"/>
<path opacity="0.6" fill-rule="evenodd" clip-rule="evenodd" d="M41.3297 31.0265C45.7733 31.8698 50.5787 34.9228 52.6363 36.4006L52.5965 36.3977C49.2658 36.147 40.2954 35.4725 38.2278 35.4019C37.2235 35.3675 35.0187 35.4201 32.7373 35.5444C30.6296 35.6591 28.4435 35.836 27.0713 36.0648C27.7662 34.8289 28.9615 33.2124 31.0363 32.062C33.2676 30.825 36.5348 30.1165 41.3297 31.0265Z" fill="url(#paint22_linear_547_52192)"/>
<path fill-rule="evenodd" clip-rule="evenodd" d="M53.1613 36.7458L53.6681 36.7838L53.2531 36.4723C51.5084 35.1624 46.2526 31.6512 41.3898 30.7284C36.5359 29.8071 33.1899 30.5187 30.8824 31.7981C28.5773 33.0762 27.3145 34.9255 26.6309 36.2172H26.6309C26.6309 36.2172 26.7729 36.4953 26.821 36.564C27.2118 37.1172 28.3104 38.6708 30.7396 40.0596C33.7789 41.7966 36.9807 41.9705 39.4809 41.7196C41.4293 41.5242 43.679 40.7293 45.7218 39.6334C47.7409 38.5508 50.5381 37.15 53.1382 36.7493L53.1613 36.7458ZM52.0303 36.6609C49.6938 37.229 47.3215 38.4282 45.5712 39.367C43.552 40.4498 41.3433 41.2269 39.4489 41.4168C36.9874 41.664 33.8596 41.4903 30.8974 39.797C28.5264 38.4415 27.4592 36.9305 27.0793 36.3928L27.0784 36.3914L27.0669 36.3752C28.0688 36.204 29.5452 36.0607 31.1173 35.9505C31.6612 35.9123 32.2168 35.8781 32.7679 35.8483C35.0429 35.7245 37.2299 35.673 38.2172 35.7066C40.1734 35.7734 48.3564 36.3849 52.0303 36.6609ZM35.5325 35.4261C34.6735 35.4519 33.7126 35.4917 32.7376 35.5449C30.6302 35.6597 28.444 35.8366 27.0718 36.0653C27.7666 34.8295 28.9617 33.2131 31.0368 32.0626C33.2678 30.8256 36.5351 30.1171 41.3302 31.0271C45.7736 31.8705 50.5793 34.9233 52.6366 36.4012C52.6235 36.4001 52.6101 36.399 52.597 36.3982L52.5572 36.3952C49.1956 36.1424 40.2878 35.4727 38.228 35.4025C37.653 35.3829 36.684 35.3916 35.5325 35.4261Z" fill="currentColor"/>
<path opacity="0.8" fill-rule="evenodd" clip-rule="evenodd" d="M52.0296 36.6606C48.3554 36.3844 40.1727 35.7731 38.2168 35.7064C37.2292 35.6727 35.0425 35.7243 32.7675 35.848C30.6234 35.9646 28.4149 36.1443 27.0664 36.3749C27.0673 36.376 27.0682 36.3771 27.069 36.3787L27.0778 36.3912L27.079 36.3928C27.4592 36.9308 28.5265 38.4418 30.897 39.7967C33.8592 41.49 36.987 41.6634 39.4485 41.4165C41.3429 41.2266 43.5516 40.4495 45.5708 39.3667C47.3211 38.4279 49.6934 37.2287 52.0296 36.6606Z" fill="url(#paint23_linear_547_52192)"/>
<path opacity="0.6" fill-rule="evenodd" clip-rule="evenodd" d="M27.9597 24.9971C29.9279 22.2862 33.5456 20.01 35.2694 19.0586C34.0319 21.2638 30.7688 27.0785 30.0737 28.451C29.7341 29.1216 29.08 30.6331 28.4537 32.2183C27.8826 33.6636 27.3299 35.1805 27.0587 36.1841C26.402 35.327 25.6428 34.0246 25.4753 32.2846C25.2928 30.3903 25.8097 27.9585 27.9597 24.9971Z" fill="url(#paint24_linear_547_52192)"/>
<path fill-rule="evenodd" clip-rule="evenodd" d="M35.7502 18.7676L35.9673 18.3809L35.5556 18.5954C34.0737 19.3675 29.9179 21.8305 27.7325 24.8407C25.5515 27.8447 25.0084 30.3399 25.1982 32.3103C25.3877 34.2784 26.2966 35.7042 27.005 36.574C27.0323 36.5691 27.0631 36.564 27.0973 36.558C27.7127 36.4524 29.4146 36.1608 31.0781 35.0112C33.2745 33.4927 34.4041 31.3729 35.0098 29.5975C35.4821 28.2124 35.6202 26.436 35.4791 24.7063C35.3393 22.9937 35.2171 20.6542 35.7502 18.7676ZM35.2695 19.0589C33.5454 20.0103 29.9279 22.2865 27.9597 24.9974C25.8097 27.9588 25.2928 30.3906 25.4753 32.2849C25.6429 34.0249 26.402 35.3273 27.0587 36.1847C27.1943 35.6827 27.4003 35.0524 27.6437 34.3671C27.887 33.6818 28.1682 32.9412 28.4538 32.2186C29.0801 30.6334 29.7342 29.122 30.0738 28.4513C30.7421 27.1321 33.7825 21.7086 35.1166 19.3314C35.1704 19.2354 35.2216 19.1445 35.2695 19.0589ZM28.3455 33.2652C28.4666 32.9465 28.5916 32.6245 28.7176 32.3054C29.3423 30.7257 29.9903 29.229 30.3234 28.5715C30.7229 27.7828 31.978 25.5135 33.206 23.3112C33.9801 21.9229 34.7437 20.5613 35.2753 19.614C34.9736 21.3488 35.0832 23.2802 35.2015 24.7278C35.341 26.4341 35.2027 28.1717 34.7456 29.5119C34.151 31.2552 33.0485 33.3164 30.9169 34.7898C29.2265 35.9581 27.8278 36.2137 27.3143 36.3046C27.3294 36.2473 27.3456 36.1885 27.3627 36.1277C27.468 35.7533 27.6091 35.3135 27.7737 34.8359C27.8567 34.5953 27.9458 34.3448 28.039 34.0883C28.137 33.8192 28.2397 33.5435 28.3455 33.2652Z" fill="url(#paint25_linear_547_52192)"/>
<path opacity="0.8" fill-rule="evenodd" clip-rule="evenodd" d="M35.2754 19.6133C33.9004 22.0639 30.9749 27.2851 30.3236 28.571C29.9904 29.2286 29.3424 30.7252 28.7178 32.305C28.1344 33.7805 27.576 35.3176 27.3145 36.3041C27.828 36.2132 29.2266 35.9577 30.917 34.7894C33.0486 33.3159 34.1512 31.2547 34.7457 29.5114C35.2028 28.1712 35.3411 26.4336 35.2017 24.7274C35.0837 23.2797 34.9737 21.3482 35.2754 19.6133Z" fill="url(#paint26_linear_547_52192)"/>
<path opacity="0.7" fill-rule="evenodd" clip-rule="evenodd" d="M26.0539 24.9971C24.0858 22.2862 20.4681 20.01 18.7441 19.0586C19.9818 21.2638 23.2447 27.0785 23.9399 28.451C24.2795 29.1216 24.9335 30.6331 25.5599 32.2183C26.1311 33.6636 26.6837 35.1805 26.9549 36.1841C27.6116 35.327 28.3707 34.0246 28.5382 32.2846C28.7208 30.3903 28.2039 27.9585 26.0539 24.9971Z" fill="url(#paint27_linear_547_52192)"/>
<path fill-rule="evenodd" clip-rule="evenodd" d="M18.2639 18.7676L18.0469 18.3809L18.4586 18.5954C19.9404 19.3675 24.0963 21.8305 26.2816 24.8407C28.4625 27.8447 29.0058 30.3399 28.816 32.3103C28.6264 34.2784 27.7175 35.7042 27.0091 36.574C26.9818 36.5691 26.951 36.564 26.9168 36.558C26.3015 36.4524 24.5995 36.1608 22.936 35.0112C20.7395 33.4927 19.61 31.3729 19.0043 29.5975C18.5319 28.2124 18.3939 26.436 18.535 24.7063C18.6749 22.9937 18.7971 20.6542 18.2639 18.7676ZM18.7447 19.0589C20.4686 20.0103 24.0863 22.2865 26.0544 24.9974C28.2044 27.9588 28.7213 30.3906 28.5387 32.2849C28.3712 34.0249 27.6121 35.3273 26.9554 36.1847C26.8198 35.6827 26.6139 35.0524 26.3704 34.3671C26.127 33.6818 25.846 32.9412 25.5604 32.2186C24.9339 30.6334 24.2799 29.122 23.9404 28.4513C23.2722 27.1321 20.2316 21.7086 18.8976 19.3314C18.8437 19.2354 18.7927 19.1445 18.7447 19.0589ZM25.6687 33.2652C25.5476 32.9465 25.4226 32.6245 25.2964 32.3054C24.6718 30.7257 24.0238 29.229 23.6906 28.5715C23.2912 27.7828 22.0362 25.5135 20.8081 23.3112C20.0339 21.9229 19.2704 20.5613 18.7389 19.614C19.0404 21.3488 18.9307 23.2802 18.8125 24.7278C18.6731 26.4341 18.8114 28.1717 19.2684 29.5119C19.863 31.2552 20.9655 33.3164 23.0972 34.7898C24.7876 35.9581 26.1863 36.2137 26.6999 36.3046C26.6847 36.2473 26.6686 36.1885 26.6515 36.1277C26.5462 35.7533 26.405 35.3135 26.2404 34.8359C26.1574 34.5953 26.0685 34.3448 25.9752 34.0883C25.8772 33.8192 25.7745 33.5435 25.6687 33.2652Z" fill="url(#paint28_linear_547_52192)"/>
<path opacity="0.8" fill-rule="evenodd" clip-rule="evenodd" d="M18.7393 19.6133C20.1142 22.0639 23.0399 27.2851 23.691 28.571C24.0242 29.2286 24.6722 30.7252 25.2968 32.305C25.8803 33.7805 26.4388 35.3176 26.7003 36.3041C26.1868 36.2132 24.788 35.9577 23.0976 34.7894C20.966 33.3159 19.8634 31.2547 19.2689 29.5114C18.8118 28.1712 18.6735 26.4336 18.8129 24.7274C18.9312 23.2797 19.0409 21.3482 18.7393 19.6133Z" fill="url(#paint29_linear_547_52192)"/>
<path opacity="0.8" fill-rule="evenodd" clip-rule="evenodd" d="M16.6094 30.7207C16.1707 29.6368 15.5553 28.2151 14.7217 27.0488C16.703 28.4133 20.6909 31.1637 21.6368 31.8748C22.1269 32.2432 23.1602 33.1193 24.2098 34.0674C25.1855 34.9486 26.1669 35.8847 26.7357 36.5271C26.2944 36.6478 25.1789 36.9298 23.5365 36.6688C21.4075 36.3309 19.8219 35.1926 18.7306 34.1092C17.8928 33.2775 17.1424 32.0372 16.6094 30.7207Z" fill="url(#paint30_linear_547_52192)"/>
<path opacity="0.7" fill-rule="evenodd" clip-rule="evenodd" d="M21.8047 31.6589C20.7878 30.8945 16.293 27.7988 14.4999 26.5643C16.1706 26.6688 19.6303 27.0855 22.0607 28.3786C24.7619 29.8158 26.0503 31.4371 26.6199 32.9046C27.1337 34.2285 27.0683 35.4418 26.9069 36.307C26.3255 35.6574 25.3653 34.7428 24.4187 33.887C23.3604 32.9304 22.3087 32.0378 21.8047 31.6589Z" fill="url(#paint31_linear_547_52192)"/>
<path fill-rule="evenodd" clip-rule="evenodd" d="M14.0304 26.2699L13.5638 26.2537L13.9318 26.5072L13.9685 26.5479C15.0468 27.7573 15.8169 29.5114 16.3466 30.8198C16.8885 32.1583 17.6564 33.4334 18.5281 34.2987C19.6438 35.4062 21.2801 36.5854 23.4879 36.9363C25.2518 37.2165 26.6396 36.8615 27.0609 36.7455C27.2634 35.8447 27.4748 34.346 26.8784 32.8091C26.2811 31.2701 24.9405 29.6033 22.1922 28.1411C19.437 26.6752 15.4214 26.3183 14.0304 26.2699ZM26.559 36.3362C26.6201 36.402 26.6778 36.4657 26.7318 36.5266C26.2904 36.6474 25.175 36.9293 23.5326 36.6684C21.4036 36.3305 19.818 35.1921 18.7267 34.1087C17.889 33.2771 17.1385 32.0368 16.6055 30.7202C16.1668 29.6364 15.5514 28.2147 14.7178 27.0484C15.2167 27.392 15.8429 27.8234 16.5157 28.2881C17.6047 29.0403 18.816 29.8795 19.8075 30.5736C20.6358 31.1535 21.3107 31.6322 21.6328 31.8743C21.6945 31.9207 21.7648 31.9751 21.8427 32.0367C22.3834 32.4644 23.2884 33.2382 24.2059 34.067C24.2131 34.0735 24.2203 34.08 24.2275 34.0865C24.492 34.3256 24.7567 34.5687 25.0132 34.8084L26.559 36.3362ZM26.9051 36.3073C27.0664 35.4421 27.1318 34.2289 26.618 32.9052C26.0484 31.4376 24.7601 29.8164 22.0588 28.3792C19.6284 27.0861 16.1688 26.6694 14.498 26.5648C14.9087 26.8476 15.4612 27.228 16.0812 27.6557C17.1528 28.395 18.4261 29.2756 19.5174 30.037C20.5511 30.7583 21.4215 31.3728 21.8028 31.6594C22.0972 31.8807 22.5783 32.2771 23.1384 32.7592C23.4775 33.0511 23.8455 33.3743 24.2186 33.7091C24.2845 33.7682 24.3507 33.8278 24.4168 33.8876C24.476 33.9411 24.5352 33.9948 24.5943 34.0487C24.792 34.2284 24.9892 34.4101 25.1823 34.5904C25.2783 34.6801 25.3733 34.7694 25.4668 34.8581C26.0304 35.3921 26.5418 35.9014 26.9051 36.3073Z" fill="url(#paint32_linear_547_52192)"/>
<path opacity="0.7" fill-rule="evenodd" clip-rule="evenodd" d="M19.6357 35.8177C18.3519 35.8459 12.8597 36.191 10.6689 36.3288C12.036 35.3868 14.9959 33.5919 17.7202 33.1091C20.748 32.5725 22.7954 33.0445 24.1845 33.8372C25.4377 34.5522 26.169 35.536 26.6012 36.3079C25.7302 36.159 24.3937 36.0355 23.1056 35.9498C21.6656 35.8537 20.2721 35.8036 19.6357 35.8177Z" fill="url(#paint33_linear_547_52192)"/>
<path d="M10.1924 36.631L10.2471 36.6403C11.8656 36.9205 13.5955 37.8134 14.8511 38.5067C16.1354 39.2159 17.5549 39.7376 18.7909 39.8768C20.3727 40.0548 22.406 39.9701 24.3495 38.8906C25.9023 38.0281 26.753 36.9021 27.0059 36.5537L26.8303 36.627C26.761 36.6129 26.687 36.5987 26.6087 36.5849C26.3433 36.9493 25.6573 37.8517 24.2117 38.6548C22.3374 39.6958 20.3702 39.7816 18.8228 39.6074C17.635 39.4736 16.2517 38.9684 14.9883 38.2706C13.9482 37.6962 12.5531 36.9675 11.1527 36.5708C10.9391 36.5841 10.7447 36.5963 10.5736 36.6072L10.2085 36.6302L10.1924 36.631Z" fill="url(#paint34_linear_547_52192)"/>
<path opacity="0.6" d="M10.6699 36.3299C12.8597 36.1921 18.3526 35.847 19.6367 35.8188C20.2688 35.8047 21.6476 35.8541 23.077 35.9487C24.3746 36.0348 25.7247 36.159 26.6021 36.3091C26.6022 36.3091 26.6021 36.3091 26.6021 36.3091C25.7311 36.1601 24.3947 36.0367 23.1065 35.9509C21.6666 35.8549 20.2731 35.8047 19.6367 35.8188C18.3529 35.847 12.8607 36.1921 10.6699 36.3299Z" fill="currentColor"/>
<path opacity="0.7" fill-rule="evenodd" clip-rule="evenodd" d="M26.6267 29.3781C26.7038 28.1287 27.2639 22.7921 27.4877 20.6632C26.4706 21.9597 24.5192 24.7751 23.9219 27.4108C23.2582 30.3397 23.6652 32.3518 24.4257 33.7345C25.1118 34.9822 26.093 35.7314 26.8681 36.1814C26.7478 35.3272 26.6717 34.0209 26.6319 32.7629C26.5875 31.3568 26.5886 29.9974 26.6267 29.3781Z" fill="url(#paint35_linear_547_52192)"/>
<path fill-rule="evenodd" clip-rule="evenodd" d="M29.3159 24.9419C28.7661 23.9071 28.071 22.5209 27.717 21.1419C27.47 23.4942 26.9763 28.2316 26.9045 29.3937C26.8673 29.996 26.8657 31.3309 26.9092 32.7251C26.9495 34.0211 27.0283 35.3574 27.1511 36.1974C27.5346 35.9525 28.4858 35.3182 29.3634 33.9401C30.5008 32.1537 30.6626 30.2408 30.5421 28.7268C30.4496 27.5649 29.9836 26.1984 29.3159 24.9419Z" fill="url(#paint36_linear_547_52192)"/>
<path opacity="0.8" fill-rule="evenodd" clip-rule="evenodd" d="M32.0582 31.6442C33.0829 30.8899 37.61 27.8391 39.416 26.6224C37.744 26.7104 34.2802 27.0927 31.8365 28.3616C29.1204 29.7719 27.8151 31.3802 27.2302 32.842C26.7025 34.1607 26.7553 35.3747 26.9075 36.2414C27.4958 35.5977 28.4653 34.6926 29.4209 33.8463C30.4892 32.9001 31.5503 32.018 32.0582 31.6442Z" fill="url(#paint37_linear_547_52192)"/>
<path fill-rule="evenodd" clip-rule="evenodd" d="M39.8866 26.3319L40.3533 26.3203L39.9832 26.5697L39.9455 26.6105C38.8546 27.809 38.0662 29.5554 37.5229 30.8585C36.9673 32.1915 36.1858 33.459 35.3049 34.3157C34.178 35.4121 32.5294 36.575 30.3181 36.9039C28.5512 37.1665 27.1673 36.7981 26.7472 36.6775C26.7472 36.6775 26.7472 36.6775 26.7472 36.6775C26.5541 35.7747 26.3584 34.2739 26.9709 32.7431C27.5841 31.2102 28.9421 29.5567 31.7054 28.1218C34.476 26.6834 38.495 26.3664 39.8866 26.3319ZM28.8914 34.3199C28.1194 35.0184 27.3868 35.7165 26.9075 36.2408C26.7553 35.3741 26.7026 34.1603 27.2302 32.8417C27.8152 31.3799 29.1201 29.7716 31.8365 28.3613C34.2803 27.0924 37.7438 26.7101 39.4157 26.6221C38.0976 27.5102 35.3278 29.3769 33.5301 30.6132C32.8659 31.0698 32.3346 31.4404 32.058 31.6439C31.6833 31.9199 31.007 32.4727 30.2491 33.1237C29.9799 33.3547 29.7007 33.5982 29.4209 33.846C29.2441 34.0026 29.0667 34.1612 28.8914 34.3199ZM28.2294 35.3056C27.7748 35.7361 27.3725 36.1367 27.0785 36.4619C27.5186 36.587 28.6312 36.88 30.276 36.6355C32.4086 36.3186 34.0061 35.1962 35.1084 34.1237C35.955 33.3003 36.7183 32.0675 37.265 30.7564C37.715 29.6769 38.3452 28.2614 39.1911 27.1034C38.8205 27.3531 38.3802 27.6499 37.9031 27.9721C35.8098 29.3854 33.0023 31.289 32.2258 31.8604C32.1635 31.9062 32.0929 31.9599 32.0144 32.0207C31.869 32.1332 31.6979 32.27 31.5071 32.4257C30.9763 32.859 30.2951 33.4384 29.6083 34.0468C29.1336 34.4672 28.6582 34.8996 28.2294 35.3056Z" fill="url(#paint38_linear_547_52192)"/>
<path opacity="0.8" fill-rule="evenodd" clip-rule="evenodd" d="M37.2652 30.7568C37.7152 29.6773 38.3453 28.2619 39.1912 27.1038C37.1957 28.4486 33.1793 31.1593 32.2259 31.8609C31.732 32.2244 30.6897 33.0902 29.63 34.0278C28.6452 34.8995 27.6542 35.8255 27.0787 36.4624C27.5187 36.5874 28.6313 36.8805 30.2762 36.636C32.4088 36.3188 34.0062 35.1964 35.1085 34.1239C35.9551 33.3007 36.7185 32.068 37.2652 30.7568Z" fill="url(#paint39_linear_547_52192)"/>
<path fill-rule="evenodd" clip-rule="evenodd" d="M9.74219 36.66L10.1156 36.3868C11.2288 35.5723 14.5827 33.3902 17.6709 32.8429C20.7515 32.297 22.8689 32.7725 24.3257 33.6038C25.7804 34.4339 26.5821 35.7294 27.0054 36.5542L26.8298 36.6275C26.0077 36.4587 24.5267 36.3171 23.0871 36.2213C21.6488 36.1253 20.2656 36.0759 19.6425 36.0897C18.3427 36.1182 12.6835 36.4747 10.5732 36.6077C10.4357 36.6164 10.3132 36.6239 10.2081 36.6307L9.74219 36.66ZM10.6695 36.3296C12.8603 36.1917 18.3525 35.8466 19.6363 35.8184C20.2727 35.8043 21.6661 35.8545 23.1061 35.9505C24.3943 36.0363 25.7307 36.1597 26.6017 36.3087C26.1695 35.5368 25.4383 34.553 24.1851 33.838C22.7959 33.0453 20.7485 32.5733 17.7207 33.1099C14.9964 33.5927 12.0366 35.3876 10.6695 36.3296Z" fill="currentColor"/>
<path opacity="0.8" fill-rule="evenodd" clip-rule="evenodd" d="M14.988 38.2708C13.9479 37.6964 12.5528 36.9674 11.1523 36.5707C13.5732 36.4188 18.4486 36.1155 19.6428 36.0892C20.2616 36.0756 21.6301 36.1242 23.0579 36.2188C24.385 36.3068 25.7519 36.4337 26.6085 36.5851C26.343 36.9492 25.6571 37.8519 24.2114 38.655C22.3372 39.6961 20.3699 39.7818 18.8225 39.6073C17.6347 39.4736 16.2514 38.9687 14.988 38.2708Z" fill="url(#paint40_linear_547_52192)"/>
<path opacity="0.8" fill-rule="evenodd" clip-rule="evenodd" d="M34.1464 35.841C35.4301 35.8692 40.9222 36.2143 43.1131 36.3524C41.7459 35.4104 38.7862 33.6153 36.0617 33.1325C33.0341 32.596 30.9865 33.068 29.5976 33.8606C28.3441 34.5758 27.6129 35.5596 27.1807 36.3315C28.0519 36.1823 29.3882 36.0591 30.6764 35.9731C32.1163 35.877 33.51 35.8271 34.1464 35.841Z" fill="url(#paint41_linear_547_52192)"/>
<path fill-rule="evenodd" clip-rule="evenodd" d="M43.6674 36.4092L44.0407 36.6824L43.5909 36.6542L43.536 36.6634C41.9177 36.9434 40.1877 37.8363 38.9321 38.5298C37.6478 39.2391 36.2285 39.7605 34.9923 39.8997C33.4105 40.078 31.3774 39.993 29.4337 38.9135C27.881 38.051 27.0303 36.925 26.7773 36.5766H26.7774C27.2007 35.7518 28.0024 34.4565 29.4571 33.6263C30.9139 32.795 33.0314 32.3195 36.1119 32.8654C39.2002 33.4127 42.554 35.5947 43.6674 36.4092ZM42.6305 36.5937C40.2103 36.4415 35.3347 36.1384 34.1403 36.1121C33.5171 36.0983 32.134 36.1477 30.6957 36.2437C29.3774 36.3316 28.0247 36.4578 27.1745 36.6078C27.44 36.9722 28.126 37.8749 29.5717 38.6777C31.4459 39.7187 33.413 39.8045 34.9603 39.6303C36.1483 39.4965 37.5317 38.9913 38.7949 38.2938C39.8351 37.7194 41.2302 36.9904 42.6305 36.5937ZM27.1811 36.3311C27.6133 35.5594 28.3445 34.5756 29.5976 33.8604C30.9869 33.0677 33.0344 32.5958 36.062 33.1323C38.7865 33.6151 41.7462 35.4102 43.1132 36.3522C40.9237 36.2141 35.4307 35.869 34.1464 35.8408C33.5146 35.827 32.1356 35.8763 30.7063 35.971C29.4086 36.057 28.0586 36.181 27.1811 36.3311Z" fill="currentColor"/>
<path opacity="0.8" fill-rule="evenodd" clip-rule="evenodd" d="M38.7952 38.2933C39.8354 37.7189 41.2305 36.9899 42.6309 36.5932C40.2101 36.441 35.3348 36.1379 34.1406 36.1116C33.5219 36.0981 32.1532 36.1466 30.7256 36.2413C29.3984 36.3292 28.0314 36.4562 27.1748 36.6073C27.4403 36.9717 28.1263 37.8744 29.5721 38.6775C31.4462 39.7182 33.4133 39.804 34.9609 39.6298C36.1487 39.496 37.5321 38.9908 38.7952 38.2933Z" fill="url(#paint42_linear_547_52192)"/>
<path fill-rule="evenodd" clip-rule="evenodd" d="M24.5505 33.9508C24.508 33.8805 24.4664 33.8085 24.4258 33.7347C23.6653 32.3518 23.2583 30.3396 23.9221 27.4107C24.5194 24.7751 26.4708 21.9596 27.4879 20.6635C27.2641 22.791 26.704 28.1284 26.6269 29.3783C26.589 29.9933 26.5878 31.3383 26.6312 32.7341C26.6442 33.1495 26.6611 33.5705 26.6822 33.9791L26.797 33.6605L26.9302 33.3086C26.9228 33.1242 26.9162 32.939 26.9104 32.7546C26.8659 31.3501 26.8672 30.001 26.9048 29.3945C26.9766 28.2321 27.4704 23.4944 27.7173 21.1427C28.0714 22.5216 28.7664 23.9078 29.3162 24.9426C29.9839 26.1992 30.4499 27.5656 30.5424 28.7278C30.5483 28.8012 30.5534 28.8755 30.5579 28.9507L30.8226 28.7426C30.8217 28.7306 30.8208 28.7187 30.8198 28.7068C30.7235 27.4975 30.2422 26.0954 29.5633 24.8178C28.8995 23.5687 28.0491 21.8501 27.8228 20.2633L27.8154 20.2095L27.8612 19.7725L27.5671 20.1258C26.6903 21.1797 24.3273 24.3646 23.6503 27.3522C23.0073 30.1896 23.3464 32.2113 24.0687 33.6502L24.0777 33.6605L24.5505 33.9508ZM26.784 36.4051L26.5133 35.9621C26.5739 36.0019 26.6337 36.04 26.6927 36.0764L26.8227 36.4275C26.8098 36.4201 26.7969 36.4127 26.784 36.4051Z" fill="currentColor"/>
<defs>
<linearGradient id="paint0_linear_547_52192" x1="37.7784" y1="15.0091" x2="26.1598" y2="33.2902" gradientUnits="userSpaceOnUse">
<stop stop-color="#FF1C1A"/>
<stop offset="1" stop-color="#FED471"/>
</linearGradient>
<linearGradient id="paint1_linear_547_52192" x1="42.2775" y1="14.7003" x2="27.6506" y2="35.5566" gradientUnits="userSpaceOnUse">
<stop offset="0.306018"/>
<stop offset="1" stop-opacity="0"/>
</linearGradient>
<linearGradient id="paint2_linear_547_52192" x1="38.913" y1="20.4227" x2="25.1809" y2="49.2797" gradientUnits="userSpaceOnUse">
<stop stop-color="#860F99"/>
<stop offset="0.986179" stop-color="#020103"/>
</linearGradient>
<linearGradient id="paint3_linear_547_52192" x1="16.2279" y1="15.0091" x2="27.8466" y2="33.2902" gradientUnits="userSpaceOnUse">
<stop stop-color="#FF1C1A"/>
<stop offset="1" stop-color="#FED471"/>
</linearGradient>
<linearGradient id="paint4_linear_547_52192" x1="12.0788" y1="14.7003" x2="26.6994" y2="36.2542" gradientUnits="userSpaceOnUse">
<stop offset="0.253931"/>
<stop offset="1" stop-opacity="0"/>
</linearGradient>
<linearGradient id="paint5_linear_547_52192" x1="15.0928" y1="20.4227" x2="28.8249" y2="49.2797" gradientUnits="userSpaceOnUse">
<stop stop-color="#860F99"/>
<stop offset="0.986179" stop-color="#020103"/>
</linearGradient>
<linearGradient id="paint6_linear_547_52192" x1="1.6465" y1="22.6109" x2="4.80386" y2="24.8625" gradientUnits="userSpaceOnUse">
<stop stop-color="#FF1C1A"/>
<stop offset="1" stop-color="#FED471"/>
</linearGradient>
<linearGradient id="paint7_linear_547_52192" x1="2.04654" y1="23.1746" x2="6.23764" y2="26.4731" gradientUnits="userSpaceOnUse">
<stop stop-color="#860F99"/>
<stop offset="0.986179" stop-color="#020103"/>
</linearGradient>
<linearGradient id="paint8_linear_547_52192" x1="51.8654" y1="22.6539" x2="48.7081" y2="24.9055" gradientUnits="userSpaceOnUse">
<stop stop-color="#FF1C1A"/>
<stop offset="1" stop-color="#FED471"/>
</linearGradient>
<linearGradient id="paint9_linear_547_52192" x1="51.4654" y1="23.2185" x2="47.2743" y2="26.517" gradientUnits="userSpaceOnUse">
<stop stop-color="#860F99"/>
<stop offset="0.986179" stop-color="#020103"/>
</linearGradient>
<linearGradient id="paint10_linear_547_52192" x1="26.972" y1="7.88437" x2="27.2833" y2="11.6845" gradientUnits="userSpaceOnUse">
<stop stop-color="#FF1C1A"/>
<stop offset="1" stop-color="#FED471"/>
</linearGradient>
<linearGradient id="paint11_linear_547_52192" x1="27.2728" y1="8.50476" x2="27.9407" y2="13.7133" gradientUnits="userSpaceOnUse">
<stop stop-color="#860F99"/>
<stop offset="0.986179" stop-color="#020103"/>
</linearGradient>
<linearGradient id="paint12_linear_547_52192" x1="25.2241" y1="15.8686" x2="25.5858" y2="33.1685" gradientUnits="userSpaceOnUse">
<stop stop-color="#860F99"/>
<stop offset="1" stop-color="#020103"/>
</linearGradient>
<linearGradient id="paint13_linear_547_52192" x1="26.7368" y1="13.0771" x2="26.7368" y2="36.5739" gradientUnits="userSpaceOnUse">
<stop offset="0.153557"/>
<stop offset="1" stop-opacity="0"/>
</linearGradient>
<linearGradient id="paint14_linear_547_52192" x1="27.835" y1="16.9028" x2="27.5705" y2="34.6743" gradientUnits="userSpaceOnUse">
<stop stop-color="#FF1C1A"/>
<stop offset="1" stop-color="#FED471"/>
</linearGradient>
<linearGradient id="paint15_linear_547_52192" x1="9.24729" y1="23.9165" x2="26.1488" y2="33.7845" gradientUnits="userSpaceOnUse">
<stop stop-color="#FF1C1A"/>
<stop offset="1" stop-color="#FED471"/>
</linearGradient>
<linearGradient id="paint16_linear_547_52192" x1="6.03793" y1="25.1994" x2="24.037" y2="34.8716" gradientUnits="userSpaceOnUse">
<stop offset="0.209259"/>
<stop offset="1" stop-opacity="0"/>
</linearGradient>
<linearGradient id="paint17_linear_547_52192" x1="10.6174" y1="28.6668" x2="33.5398" y2="46.2138" gradientUnits="userSpaceOnUse">
<stop stop-color="#860F99"/>
<stop offset="0.986179" stop-color="#020103"/>
</linearGradient>
<linearGradient id="paint18_linear_547_52192" x1="44.2501" y1="23.9165" x2="27.3487" y2="33.7845" gradientUnits="userSpaceOnUse">
<stop stop-color="#FF1C1A"/>
<stop offset="1" stop-color="#FED471"/>
</linearGradient>
<linearGradient id="paint19_linear_547_52192" x1="42.8791" y1="28.6667" x2="19.9568" y2="46.2138" gradientUnits="userSpaceOnUse">
<stop stop-color="#860F99"/>
<stop offset="0.986179" stop-color="#020103"/>
</linearGradient>
<linearGradient id="paint20_linear_547_52192" x1="2.68357" y1="33.6279" x2="24.779" y2="33.4872" gradientUnits="userSpaceOnUse">
<stop stop-color="#FF1C1A"/>
<stop offset="1" stop-color="#FED471"/>
</linearGradient>
<linearGradient id="paint21_linear_547_52192" x1="6.74783" y1="37.4938" x2="39.1859" y2="41.4201" gradientUnits="userSpaceOnUse">
<stop stop-color="#860F99"/>
<stop offset="0.986179" stop-color="#020103"/>
</linearGradient>
<linearGradient id="paint22_linear_547_52192" x1="51.1714" y1="33.6279" x2="29.0759" y2="33.4872" gradientUnits="userSpaceOnUse">
<stop stop-color="#FF1C1A"/>
<stop offset="1" stop-color="#FED471"/>
</linearGradient>
<linearGradient id="paint23_linear_547_52192" x1="47.107" y1="37.4938" x2="14.669" y2="41.4201" gradientUnits="userSpaceOnUse">
<stop stop-color="#860F99"/>
<stop offset="0.986179" stop-color="#020103"/>
</linearGradient>
<linearGradient id="paint24_linear_547_52192" x1="34.5059" y1="19.5651" x2="28.3361" y2="36.7886" gradientUnits="userSpaceOnUse">
<stop stop-color="#FF1C1A"/>
<stop offset="1" stop-color="#FED471"/>
</linearGradient>
<linearGradient id="paint25_linear_547_52192" x1="34.461" y1="19.6004" x2="26.8361" y2="36.4866" gradientUnits="userSpaceOnUse">
<stop/>
<stop offset="1" stop-opacity="0"/>
</linearGradient>
<linearGradient id="paint26_linear_547_52192" x1="34.5245" y1="22.8492" x2="27.1355" y2="46.9125" gradientUnits="userSpaceOnUse">
<stop stop-color="#860F99"/>
<stop offset="0.986179" stop-color="#020103"/>
</linearGradient>
<linearGradient id="paint27_linear_547_52192" x1="19.5076" y1="19.5651" x2="25.6774" y2="36.7886" gradientUnits="userSpaceOnUse">
<stop stop-color="#FF1C1A"/>
<stop offset="1" stop-color="#FED471"/>
</linearGradient>
<linearGradient id="paint28_linear_547_52192" x1="19.5401" y1="18.2004" x2="26.4626" y2="36.4696" gradientUnits="userSpaceOnUse">
<stop/>
<stop offset="1" stop-opacity="0"/>
</linearGradient>
<linearGradient id="paint29_linear_547_52192" x1="19.4902" y1="22.8492" x2="26.8793" y2="46.9125" gradientUnits="userSpaceOnUse">
<stop stop-color="#860F99"/>
<stop offset="0.986179" stop-color="#020103"/>
</linearGradient>
<linearGradient id="paint30_linear_547_52192" x1="23.7862" y1="36.6667" x2="11.943" y2="28.7684" gradientUnits="userSpaceOnUse">
<stop stop-color="#FECC57"/>
<stop offset="1" stop-color="#FF0502"/>
</linearGradient>
<linearGradient id="paint31_linear_547_52192" x1="16.4382" y1="27.0586" x2="24.5419" y2="24.8846" gradientUnits="userSpaceOnUse">
<stop stop-color="#860F99"/>
<stop offset="0.986179" stop-color="#020103"/>
</linearGradient>
<linearGradient id="paint32_linear_547_52192" x1="14.2103" y1="26.6001" x2="26.1831" y2="35.1488" gradientUnits="userSpaceOnUse">
<stop/>
<stop offset="1" stop-opacity="0"/>
</linearGradient>
<linearGradient id="paint33_linear_547_52192" x1="17.4027" y1="41.756" x2="24.2805" y2="32.4874" gradientUnits="userSpaceOnUse">
<stop stop-color="#FF1C1A"/>
<stop offset="1" stop-color="#FED471"/>
</linearGradient>
<linearGradient id="paint34_linear_547_52192" x1="17.4087" y1="39.1999" x2="26.6314" y2="37.0396" gradientUnits="userSpaceOnUse">
<stop/>
<stop offset="1" stop-opacity="0"/>
</linearGradient>
<linearGradient id="paint35_linear_547_52192" x1="32.7988" y1="27.4261" x2="23.3677" y2="34.2338" gradientUnits="userSpaceOnUse">
<stop stop-color="#FF1C1A"/>
<stop offset="1" stop-color="#FED471"/>
</linearGradient>
<linearGradient id="paint36_linear_547_52192" x1="26.8639" y1="25.0552" x2="35.9481" y2="35.7624" gradientUnits="userSpaceOnUse">
<stop stop-color="#A010B7"/>
<stop offset="0.986179" stop-color="#020103"/>
</linearGradient>
<linearGradient id="paint37_linear_547_52192" x1="37.5893" y1="34.951" x2="26.261" y2="31.9734" gradientUnits="userSpaceOnUse">
<stop stop-color="#FF1C1A"/>
<stop offset="1" stop-color="#FED471"/>
</linearGradient>
<linearGradient id="paint38_linear_547_52192" x1="27.278" y1="30.9254" x2="29.6728" y2="38.3438" gradientUnits="userSpaceOnUse">
<stop offset="0.234843"/>
<stop offset="1" stop-opacity="0"/>
</linearGradient>
<linearGradient id="paint39_linear_547_52192" x1="35.5844" y1="29.0131" x2="33.5894" y2="42.7668" gradientUnits="userSpaceOnUse">
<stop stop-color="#860F99"/>
<stop offset="0.986179" stop-color="#020103"/>
</linearGradient>
<linearGradient id="paint40_linear_547_52192" x1="15.1963" y1="35.887" x2="25.3367" y2="45.6522" gradientUnits="userSpaceOnUse">
<stop stop-color="#860F99"/>
<stop offset="0.986179" stop-color="#020103"/>
</linearGradient>
<linearGradient id="paint41_linear_547_52192" x1="38.7212" y1="46.2006" x2="32.6376" y2="31.3729" gradientUnits="userSpaceOnUse">
<stop stop-color="#FF1C1A"/>
<stop offset="1" stop-color="#FED471"/>
<stop offset="1" stop-color="#FED471"/>
</linearGradient>
<linearGradient id="paint42_linear_547_52192" x1="38.587" y1="35.9092" x2="28.4467" y2="45.6744" gradientUnits="userSpaceOnUse">
<stop stop-color="#A010B7"/>
<stop offset="0.986179" stop-color="#020103"/>
</linearGradient>
</defs>
</svg>
