<svg width="176" height="60" viewBox="0 0 176 60" fill="none" xmlns="http://www.w3.org/2000/svg">
<g clip-path="url(#clip0_431_44387)">
<path d="M6.60167 17.0371L31.1631 33.8075L25.0888 42.787L0.527344 25.8845L6.60167 17.0371Z" fill="url(#paint0_linear_431_44387)"/>
<path d="M31.1641 33.8078C29.0513 36.845 21.9206 35.6565 15.186 30.9027C8.31934 26.2809 4.62192 20.0746 6.60268 17.0374C8.71549 14.0002 15.8462 15.1887 22.5808 19.9425C29.4474 24.4322 33.1449 30.7707 31.1641 33.8078Z" fill="url(#paint1_linear_431_44387)"/>
<path d="M25.0893 42.6557C22.9764 45.6929 15.8457 44.5044 9.11113 39.7506C2.37655 34.9968 -1.45292 28.9224 0.659887 25.7532C2.7727 22.7161 9.90343 23.9045 16.638 28.6583C23.3726 33.4122 27.07 39.6185 25.0893 42.6557Z" fill="url(#paint2_linear_431_44387)"/>
<path d="M31.1639 33.8082L25.0896 42.7876C22.9768 45.8248 15.8461 44.5043 9.11148 39.8825C7.79097 38.9582 6.60252 38.0338 5.41406 36.9774C6.33842 36.8454 7.52687 36.3172 8.71533 34.9967C10.8281 32.7518 11.8845 32.2236 12.8089 32.3556C13.7333 32.3556 14.7897 33.28 16.5063 35.5249C18.223 37.7697 20.5999 38.43 22.0524 37.2415C22.1845 37.1095 22.3165 37.1095 22.4486 36.9774C23.6371 36.0531 24.0332 35.6569 26.2781 31.4313C26.8063 30.3749 28.655 28.6582 31.1639 29.4505C31.8242 31.1672 31.8242 32.6197 31.1639 33.8082Z" fill="#0E0F23"/>
<path fill-rule="evenodd" clip-rule="evenodd" d="M30.2401 33.2797C28.3914 35.9207 21.9209 34.6002 15.7145 30.2425C9.37608 25.8849 5.67867 20.3387 7.52737 17.6977C9.37608 15.0567 15.8466 16.3772 22.0529 20.7349C28.2593 25.0926 31.9567 30.6387 30.2401 33.2797ZM24.4299 29.3182C23.5055 30.6387 20.3363 29.9784 17.1671 27.8656C14.1299 25.7528 12.2812 22.9798 13.2056 21.6593C14.1299 20.3387 17.2991 20.999 20.4683 23.1118C23.5055 25.2246 25.3542 27.9977 24.4299 29.3182Z" fill="white"/>
<path d="M6.07508 20.0744C6.07508 19.9424 5.94303 19.8103 5.81098 19.9424C5.67893 20.0744 5.54688 20.0744 5.54688 20.2065C5.67893 20.6026 5.81098 20.8667 5.81098 21.1308C5.81098 21.2629 5.94303 21.3949 6.07508 21.2629C6.20713 21.2629 6.33918 21.1308 6.20713 20.9988C6.20713 20.7347 6.20713 20.4706 6.07508 20.0744Z" fill="white"/>
<path d="M6.736 22.1877C6.736 22.0557 6.60394 21.9236 6.47189 22.0557C6.33984 22.1877 6.33984 22.1877 6.33984 22.3198C7.7924 25.621 10.8296 29.1864 14.7911 31.8274C14.9231 31.9595 15.0552 31.8274 15.1872 31.8274C15.3193 31.6954 15.1872 31.5633 15.1872 31.4313C11.0937 28.7903 8.18855 25.3569 6.736 22.1877Z" fill="white"/>
<path d="M22.7133 35.1279C22.5813 35.1279 22.4492 35.1279 22.4492 35.26C22.4492 35.392 22.4492 35.5241 22.5813 35.5241C22.9774 35.6561 23.5056 35.7882 23.9018 35.9202C24.0338 35.9202 24.1659 35.9202 24.1659 35.7882C24.1659 35.6561 24.1659 35.5241 24.0338 35.5241C23.6377 35.392 23.1095 35.26 22.7133 35.1279Z" fill="white"/>
<path d="M25.0883 35.6562C24.9563 35.6562 24.8242 35.7883 24.8242 35.9204C24.8242 36.0524 24.9563 36.1845 25.0883 36.1845C26.1447 36.3165 27.3332 36.4486 28.2575 36.3165C28.3896 36.3165 28.5216 36.1845 28.5216 36.0524C28.5216 35.9204 28.3896 35.7883 28.2575 35.7883C27.2011 35.9204 26.1447 35.7883 25.0883 35.6562Z" fill="white"/>
<path d="M54.8005 34.837C54.8005 34.4381 54.7385 34.0835 54.6144 33.7732C54.4991 33.463 54.2908 33.1793 53.9894 32.9222C53.688 32.6652 53.2625 32.4169 52.7129 32.1776C52.1722 31.9294 51.4808 31.6768 50.6386 31.4197C49.7167 31.136 48.8657 30.8213 48.0857 30.4756C47.3144 30.121 46.6407 29.7133 46.0645 29.2523C45.4883 28.7825 45.0407 28.2462 44.7216 27.6434C44.4024 27.0318 44.2429 26.327 44.2429 25.5292C44.2429 24.7403 44.4069 24.0223 44.7349 23.3751C45.0717 22.728 45.546 22.1696 46.1576 21.6998C46.7781 21.2211 47.5095 20.8532 48.3516 20.5961C49.1937 20.3302 50.1245 20.1972 51.1439 20.1972C52.58 20.1972 53.8166 20.4632 54.8537 20.995C55.8997 21.5269 56.702 22.2405 57.2604 23.1358C57.8277 24.0311 58.1114 25.0195 58.1114 26.101H54.8005C54.8005 25.4627 54.6631 24.8998 54.3883 24.4123C54.1224 23.9159 53.7146 23.5258 53.165 23.2422C52.6243 22.9585 51.9373 22.8167 51.104 22.8167C50.3151 22.8167 49.6591 22.9364 49.1361 23.1757C48.6131 23.415 48.2231 23.7386 47.966 24.1464C47.7089 24.5541 47.5804 25.0151 47.5804 25.5292C47.5804 25.8927 47.6646 26.2251 47.833 26.5265C48.0014 26.819 48.2585 27.0938 48.6042 27.3509C48.9499 27.5991 49.3843 27.834 49.9073 28.0556C50.4303 28.2772 51.0464 28.49 51.7556 28.6939C52.8282 29.013 53.7634 29.3676 54.5612 29.7576C55.359 30.1388 56.0238 30.5731 56.5557 31.0607C57.0876 31.5482 57.4865 32.1023 57.7524 32.7228C58.0183 33.3344 58.1513 34.0303 58.1513 34.8104C58.1513 35.6259 57.9873 36.3617 57.6593 37.0176C57.3313 37.6647 56.8615 38.2188 56.2499 38.6797C55.6471 39.1318 54.9202 39.482 54.0692 39.7302C53.2271 39.9695 52.2874 40.0892 51.2503 40.0892C50.3195 40.0892 49.402 39.9651 48.4979 39.7169C47.6025 39.4687 46.787 39.0919 46.0512 38.5866C45.3155 38.0725 44.7304 37.4343 44.2961 36.6719C43.8617 35.9007 43.6445 35.001 43.6445 33.9727H46.982C46.982 34.602 47.0884 35.1384 47.3011 35.5816C47.5228 36.0248 47.8286 36.3882 48.2186 36.6719C48.6087 36.9467 49.0607 37.1506 49.5749 37.2836C50.0979 37.4165 50.6564 37.483 51.2503 37.483C52.0304 37.483 52.6819 37.3722 53.2049 37.1506C53.7368 36.929 54.1357 36.6187 54.4016 36.2198C54.6676 35.8209 54.8005 35.36 54.8005 34.837Z" fill="#0E0F23"/>
<path d="M69.4403 36.4326V25.4361H72.6581V39.8232H69.6264L69.4403 36.4326ZM69.8923 33.4408L70.9694 33.4142C70.9694 34.3804 70.863 35.2713 70.6503 36.0869C70.4375 36.8935 70.1095 37.5983 69.6663 38.201C69.2231 38.795 68.6557 39.2603 67.9643 39.5972C67.2729 39.9252 66.4441 40.0892 65.4778 40.0892C64.7775 40.0892 64.1348 39.9872 63.5498 39.7834C62.9647 39.5795 62.4595 39.2648 62.034 38.8393C61.6173 38.4138 61.2938 37.8598 61.0633 37.1772C60.8328 36.4946 60.7176 35.6791 60.7176 34.7306V25.4361H63.9221V34.7572C63.9221 35.2802 63.9841 35.719 64.1083 36.0736C64.2324 36.4193 64.4008 36.6985 64.6135 36.9113C64.8263 37.124 65.0745 37.2747 65.3581 37.3633C65.6418 37.452 65.9432 37.4963 66.2623 37.4963C67.1754 37.4963 67.8934 37.319 68.4164 36.9644C68.9483 36.601 69.325 36.1134 69.5466 35.5018C69.7771 34.8901 69.8923 34.2031 69.8923 33.4408Z" fill="#0E0F23"/>
<path d="M84.0135 35.9273C84.0135 35.6082 83.9337 35.3201 83.7742 35.063C83.6146 34.7971 83.3088 34.5577 82.8567 34.345C82.4135 34.1322 81.7575 33.9372 80.8888 33.7599C80.1264 33.5915 79.4261 33.392 78.7879 33.1616C78.1585 32.9222 77.6178 32.6341 77.1657 32.2973C76.7136 31.9604 76.3634 31.5615 76.1152 31.1006C75.867 30.6396 75.7429 30.1077 75.7429 29.505C75.7429 28.9199 75.8715 28.3659 76.1285 27.8429C76.3856 27.3199 76.7535 26.8589 77.2322 26.46C77.7108 26.0611 78.2915 25.7464 78.974 25.5159C79.6655 25.2854 80.4367 25.1702 81.2877 25.1702C82.4932 25.1702 83.526 25.3741 84.3858 25.7819C85.2545 26.1808 85.9194 26.7259 86.3803 27.4174C86.8413 28.0999 87.0718 28.8711 87.0718 29.731H83.8672C83.8672 29.3498 83.7697 28.9952 83.5747 28.6673C83.3886 28.3304 83.1049 28.06 82.7237 27.8562C82.3426 27.6434 81.8639 27.537 81.2877 27.537C80.7381 27.537 80.2816 27.6257 79.9181 27.803C79.5635 27.9714 79.2976 28.193 79.1203 28.4678C78.9519 28.7426 78.8677 29.044 78.8677 29.372C78.8677 29.6113 78.912 29.8285 79.0006 30.0235C79.0981 30.2097 79.2577 30.3825 79.4793 30.5421C79.7009 30.6928 80.0023 30.8346 80.3835 30.9676C80.7735 31.1006 81.2611 31.2291 81.8461 31.3532C82.9453 31.5837 83.8894 31.8806 84.6783 32.2441C85.4762 32.5987 86.0878 33.0596 86.5133 33.627C86.9388 34.1854 87.1516 34.8946 87.1516 35.7544C87.1516 36.3927 87.0141 36.9777 86.7393 37.5096C86.4734 38.0326 86.0834 38.4891 85.5692 38.8792C85.0551 39.2604 84.439 39.5573 83.721 39.7701C83.0118 39.9828 82.214 40.0892 81.3276 40.0892C80.0245 40.0892 78.9209 39.8587 78.0167 39.3977C77.1125 38.9279 76.4255 38.3296 75.9557 37.6027C75.4947 36.8669 75.2642 36.1046 75.2642 35.3156H78.3624C78.3978 35.9096 78.5618 36.3838 78.8544 36.7384C79.1558 37.0841 79.5281 37.3368 79.9713 37.4963C80.4234 37.647 80.8888 37.7224 81.3675 37.7224C81.9436 37.7224 82.4268 37.647 82.8168 37.4963C83.2068 37.3368 83.5038 37.124 83.7077 36.8581C83.9116 36.5833 84.0135 36.273 84.0135 35.9273Z" fill="#0E0F23"/>
<path d="M93.1218 19.3994V39.8232H89.9306V19.3994H93.1218ZM92.5633 32.0978L91.5262 32.0845C91.5351 31.0917 91.6725 30.1742 91.9384 29.3321C92.2132 28.49 92.5944 27.7586 93.0819 27.1381C93.5783 26.5088 94.1722 26.0256 94.8637 25.6888C95.5551 25.3431 96.3219 25.1702 97.164 25.1702C97.8732 25.1702 98.5114 25.2677 99.0788 25.4627C99.6549 25.6578 100.151 25.9724 100.568 26.4068C100.985 26.8323 101.299 27.3908 101.512 28.0822C101.734 28.7648 101.844 29.598 101.844 30.582V39.8232H98.6267V30.5554C98.6267 29.864 98.5247 29.3144 98.3208 28.9066C98.1258 28.4988 97.8377 28.2063 97.4565 28.029C97.0754 27.8429 96.61 27.7498 96.0604 27.7498C95.4842 27.7498 94.9745 27.865 94.5313 28.0955C94.0969 28.326 93.7334 28.6407 93.4409 29.0396C93.1484 29.4385 92.9268 29.8994 92.7761 30.4224C92.6343 30.9454 92.5633 31.5039 92.5633 32.0978Z" fill="#0E0F23"/>
<path d="M108.519 25.4361V39.8232H105.302V25.4361H108.519ZM105.089 21.6599C105.089 21.1723 105.248 20.769 105.568 20.4499C105.896 20.1219 106.348 19.9579 106.924 19.9579C107.491 19.9579 107.939 20.1219 108.267 20.4499C108.595 20.769 108.759 21.1723 108.759 21.6599C108.759 22.1385 108.595 22.5375 108.267 22.8566C107.939 23.1757 107.491 23.3353 106.924 23.3353C106.348 23.3353 105.896 23.1757 105.568 22.8566C105.248 22.5375 105.089 22.1385 105.089 21.6599Z" fill="#0E0F23"/>
<path d="M122.534 34.837C122.534 34.4381 122.472 34.0835 122.348 33.7732C122.233 33.463 122.025 33.1793 121.723 32.9222C121.422 32.6652 120.996 32.4169 120.447 32.1776C119.906 31.9294 119.214 31.6768 118.372 31.4197C117.45 31.136 116.599 30.8213 115.819 30.4756C115.048 30.121 114.374 29.7133 113.798 29.2523C113.222 28.7825 112.774 28.2462 112.455 27.6434C112.136 27.0318 111.977 26.327 111.977 25.5292C111.977 24.7403 112.141 24.0223 112.469 23.3751C112.805 22.728 113.28 22.1696 113.891 21.6998C114.512 21.2211 115.243 20.8532 116.085 20.5961C116.927 20.3302 117.858 20.1972 118.878 20.1972C120.314 20.1972 121.55 20.4632 122.587 20.995C123.633 21.5269 124.436 22.2405 124.994 23.1358C125.561 24.0311 125.845 25.0195 125.845 26.101H122.534C122.534 25.4627 122.397 24.8998 122.122 24.4123C121.856 23.9159 121.448 23.5258 120.899 23.2422C120.358 22.9585 119.671 22.8167 118.838 22.8167C118.049 22.8167 117.393 22.9364 116.87 23.1757C116.347 23.415 115.957 23.7386 115.7 24.1464C115.443 24.5541 115.314 25.0151 115.314 25.5292C115.314 25.8927 115.398 26.2251 115.567 26.5265C115.735 26.819 115.992 27.0938 116.338 27.3509C116.684 27.5991 117.118 27.834 117.641 28.0556C118.164 28.2772 118.78 28.49 119.489 28.6939C120.562 29.013 121.497 29.3676 122.295 29.7576C123.093 30.1388 123.758 30.5731 124.289 31.0607C124.821 31.5482 125.22 32.1023 125.486 32.7228C125.752 33.3344 125.885 34.0303 125.885 34.8104C125.885 35.6259 125.721 36.3617 125.393 37.0176C125.065 37.6647 124.595 38.2188 123.984 38.6797C123.381 39.1318 122.654 39.482 121.803 39.7302C120.961 39.9695 120.021 40.0892 118.984 40.0892C118.053 40.0892 117.136 39.9651 116.232 39.7169C115.336 39.4687 114.521 39.0919 113.785 38.5866C113.049 38.0725 112.464 37.4343 112.03 36.6719C111.595 35.9007 111.378 35.001 111.378 33.9727H114.716C114.716 34.602 114.822 35.1384 115.035 35.5816C115.256 36.0248 115.562 36.3882 115.952 36.6719C116.342 36.9467 116.794 37.1506 117.309 37.2836C117.832 37.4165 118.39 37.483 118.984 37.483C119.764 37.483 120.416 37.3722 120.939 37.1506C121.471 36.929 121.869 36.6187 122.135 36.2198C122.401 35.8209 122.534 35.36 122.534 34.837Z" fill="#0E0F23"/>
<path d="M132.427 36.632L135.751 25.4361H137.799L137.24 28.7869L133.89 39.8232H132.055L132.427 36.632ZM130.472 25.4361L133.065 36.6852L133.278 39.8232H131.23L127.334 25.4361H130.472ZM140.91 36.5522L143.423 25.4361H146.548L142.666 39.8232H140.618L140.91 36.5522ZM138.145 25.4361L141.429 36.4991L141.841 39.8232H140.006L136.616 28.7736L136.057 25.4361H138.145Z" fill="#0E0F23"/>
<path d="M156.84 36.9378V30.0767C156.84 29.5626 156.747 29.1194 156.561 28.747C156.375 28.3747 156.091 28.0866 155.71 27.8828C155.337 27.6789 154.868 27.5769 154.3 27.5769C153.777 27.5769 153.325 27.6656 152.944 27.8429C152.563 28.0202 152.266 28.2595 152.053 28.5609C151.84 28.8623 151.734 29.2036 151.734 29.5847H148.543C148.543 29.0174 148.68 28.4678 148.955 27.9359C149.23 27.4041 149.629 26.9298 150.152 26.5132C150.675 26.0966 151.3 25.7686 152.026 25.5292C152.753 25.2899 153.569 25.1702 154.473 25.1702C155.555 25.1702 156.512 25.3519 157.345 25.7154C158.187 26.0788 158.848 26.6284 159.326 27.3642C159.814 28.0911 160.058 29.0041 160.058 30.1033V36.4991C160.058 37.155 160.102 37.7445 160.191 38.2675C160.288 38.7817 160.426 39.2293 160.603 39.6105V39.8232H157.319C157.168 39.4775 157.048 39.0387 156.96 38.5069C156.88 37.9661 156.84 37.4431 156.84 36.9378ZM157.305 31.074L157.332 33.0552H155.032C154.438 33.0552 153.915 33.1128 153.463 33.2281C153.01 33.3344 152.634 33.494 152.332 33.7067C152.031 33.9195 151.805 34.1766 151.654 34.4779C151.503 34.7793 151.428 35.1206 151.428 35.5018C151.428 35.883 151.517 36.2331 151.694 36.5522C151.871 36.8625 152.128 37.1063 152.465 37.2836C152.811 37.4609 153.228 37.5495 153.715 37.5495C154.371 37.5495 154.943 37.4165 155.43 37.1506C155.927 36.8758 156.317 36.5434 156.601 36.1533C156.884 35.7544 157.035 35.3777 157.053 35.0231L158.09 36.4459C157.983 36.8093 157.802 37.1994 157.545 37.616C157.288 38.0326 156.951 38.4315 156.534 38.8127C156.126 39.185 155.634 39.4908 155.058 39.7302C154.491 39.9695 153.835 40.0892 153.09 40.0892C152.151 40.0892 151.313 39.903 150.577 39.5307C149.841 39.1495 149.265 38.6398 148.849 38.0016C148.432 37.3545 148.224 36.6232 148.224 35.8076C148.224 35.0453 148.365 34.3716 148.649 33.7865C148.942 33.1926 149.367 32.6962 149.926 32.2973C150.493 31.8984 151.184 31.597 152 31.3931C152.815 31.1803 153.746 31.074 154.792 31.074H157.305Z" fill="#0E0F23"/>
<path d="M166.626 28.2019V45.3547H163.422V25.4361H166.374L166.626 28.2019ZM176.001 32.4967V32.776C176.001 33.822 175.876 34.7926 175.628 35.688C175.389 36.5744 175.03 37.35 174.551 38.0149C174.081 38.6709 173.501 39.1806 172.809 39.544C172.118 39.9075 171.32 40.0892 170.416 40.0892C169.521 40.0892 168.736 39.9252 168.062 39.5972C167.398 39.2603 166.835 38.7861 166.374 38.1744C165.913 37.5628 165.54 36.8448 165.257 36.0204C164.982 35.1871 164.787 34.2741 164.672 33.2812V32.2042C164.787 31.1493 164.982 30.192 165.257 29.3321C165.54 28.4722 165.913 27.7321 166.374 27.1115C166.835 26.491 167.398 26.0123 168.062 25.6755C168.727 25.3386 169.503 25.1702 170.389 25.1702C171.293 25.1702 172.096 25.3475 172.796 25.7021C173.496 26.0478 174.086 26.5442 174.564 27.1913C175.043 27.8296 175.402 28.6008 175.642 29.505C175.881 30.4003 176.001 31.3975 176.001 32.4967ZM172.796 32.776V32.4967C172.796 31.8319 172.734 31.2158 172.61 30.6485C172.486 30.0723 172.291 29.567 172.025 29.1326C171.759 28.6983 171.418 28.3614 171.001 28.1221C170.593 27.8739 170.101 27.7498 169.525 27.7498C168.958 27.7498 168.47 27.8473 168.062 28.0423C167.655 28.2285 167.313 28.49 167.039 28.8268C166.764 29.1637 166.551 29.5581 166.4 30.0102C166.25 30.4535 166.143 30.9366 166.081 31.4596V34.0392C166.188 34.6774 166.369 35.2625 166.626 35.7943C166.883 36.3262 167.247 36.7517 167.717 37.0708C168.195 37.3811 168.807 37.5362 169.552 37.5362C170.128 37.5362 170.62 37.4121 171.028 37.1639C171.435 36.9157 171.768 36.5744 172.025 36.14C172.291 35.6968 172.486 35.1871 172.61 34.6109C172.734 34.0347 172.796 33.4231 172.796 32.776Z" fill="#0E0F23"/>
</g>
<defs>
<linearGradient id="paint0_linear_431_44387" x1="11.4139" y1="14.6527" x2="16.2847" y2="31.3785" gradientUnits="userSpaceOnUse">
<stop stop-color="#03B8FF"/>
<stop offset="1" stop-color="#FA52A0"/>
</linearGradient>
<linearGradient id="paint1_linear_431_44387" x1="15.426" y1="13.4847" x2="20.297" y2="30.2106" gradientUnits="userSpaceOnUse">
<stop stop-color="#03B8FF"/>
<stop offset="1" stop-color="#FA52A0"/>
</linearGradient>
<linearGradient id="paint2_linear_431_44387" x1="7.4156" y1="15.8179" x2="12.2866" y2="32.5438" gradientUnits="userSpaceOnUse">
<stop stop-color="#03B8FF"/>
<stop offset="1" stop-color="#FA52A0"/>
</linearGradient>
<clipPath id="clip0_431_44387">
<rect width="176" height="60" fill="white"/>
</clipPath>
</defs>
</svg>
