<svg width="54" height="54" viewBox="0 0 54 54" fill="none" xmlns="http://www.w3.org/2000/svg">
<path d="M22.8734 12.289C22.2917 12.1986 22.2671 12.1879 22.5409 12.1458C23.0656 12.0649 24.3045 12.1752 25.1583 12.3784C27.1514 12.853 28.965 14.0685 30.9009 16.2273L31.4152 16.8008L32.1509 16.6824C35.2505 16.1835 38.4037 16.5799 41.041 17.8002C41.7666 18.1359 42.9105 18.8042 43.0534 18.976C43.099 19.0306 43.1827 19.383 43.2392 19.7589C43.4351 21.0594 43.3371 22.0564 42.9399 22.8009C42.7238 23.2061 42.7118 23.3344 42.857 23.6812C42.973 23.958 43.2964 24.1627 43.6166 24.1623C44.2721 24.1614 44.9775 23.1003 45.3043 21.6238L45.4341 21.0374L45.6914 21.3291C47.1022 22.93 48.2103 25.1133 48.4006 26.6674L48.4502 27.0725L48.2131 26.7042C47.8049 26.0704 47.3949 25.6388 46.8698 25.2908C45.9232 24.6635 44.9223 24.4501 42.2717 24.3102C39.8777 24.1838 38.5229 23.979 37.1793 23.5402C34.8936 22.7938 33.7413 21.7997 31.0261 18.2317C29.8201 16.6471 29.0746 15.7702 28.3332 15.0641C26.6483 13.4596 24.9927 12.6182 22.8734 12.289Z" fill="#FF007A"/>
<path d="M43.5917 15.8283C43.6519 14.7664 43.7957 14.0659 44.0848 13.4263C44.1992 13.1731 44.3065 12.9658 44.323 12.9658C44.3395 12.9658 44.2898 13.1527 44.2125 13.3811C44.0023 14.002 43.9678 14.851 44.1125 15.839C44.2963 17.0924 44.4008 17.2733 45.7236 18.6273C46.3441 19.2625 47.0657 20.0634 47.3273 20.4073L47.803 21.0326L47.3273 20.5857C46.7456 20.0393 45.4077 18.9735 45.1122 18.8211C44.9141 18.719 44.8846 18.7207 44.7623 18.8426C44.6497 18.9549 44.626 19.1235 44.6104 19.9211C44.5861 21.1641 44.4169 21.962 44.0086 22.7598C43.7879 23.1912 43.753 23.0991 43.9529 22.6121C44.102 22.2485 44.1172 22.0886 44.1161 20.8852C44.1138 18.4676 43.8272 17.8863 42.1465 16.8906C41.7207 16.6383 41.0192 16.2745 40.5876 16.0821C40.1559 15.8897 39.8131 15.7221 39.8255 15.7096C39.8731 15.6621 41.5122 16.1413 42.1719 16.3954C43.1532 16.7735 43.3152 16.8225 43.4344 16.7769C43.5142 16.7464 43.5529 16.5133 43.5917 15.8283Z" fill="#FF007A"/>
<path d="M24.0046 19.9635C22.8235 18.3349 22.0928 15.8378 22.2509 13.9712L22.2999 13.3936L22.5687 13.4427C23.0736 13.535 23.9441 13.8595 24.3517 14.1075C25.4703 14.7878 25.9545 15.6837 26.4473 17.984C26.5916 18.6577 26.7809 19.4202 26.868 19.6784C27.0083 20.0939 27.5383 21.0644 27.9691 21.6948C28.2795 22.1487 28.0734 22.3638 27.3873 22.3017C26.3395 22.207 24.9202 21.226 24.0046 19.9635Z" fill="#FF007A"/>
<path d="M42.1599 32.0851C36.6403 29.8592 34.6963 27.9271 34.6963 24.6672C34.6963 24.1875 34.7128 23.7949 34.7328 23.7949C34.7529 23.7949 34.9665 23.9533 35.2074 24.1468C36.3267 25.0459 37.5801 25.43 41.0499 25.9369C43.0917 26.2353 44.2407 26.4763 45.3006 26.8283C48.6696 27.9474 50.754 30.2183 51.251 33.3115C51.3955 34.2103 51.3107 35.8957 51.0765 36.784C50.8917 37.4857 50.3276 38.7503 50.1779 38.7988C50.1364 38.8122 50.0958 38.6531 50.0851 38.4363C50.0284 37.2749 49.4423 36.1441 48.4582 35.2971C47.3392 34.3341 45.8358 33.5673 42.1599 32.0851Z" fill="#FF007A"/>
<path d="M38.2849 33.0099C38.2157 32.5978 38.0958 32.0714 38.0183 31.8402L37.8775 31.4199L38.1391 31.714C38.5011 32.121 38.7871 32.6418 39.0296 33.3353C39.2146 33.8647 39.2354 34.0221 39.2341 34.8824C39.2327 35.727 39.2096 35.904 39.0387 36.3804C38.7692 37.1318 38.4348 37.6646 37.8737 38.2365C36.8655 39.2642 35.5691 39.8332 33.6986 40.0693C33.3733 40.1103 32.4256 40.1794 31.5925 40.2228C29.4926 40.3321 28.1107 40.5581 26.8689 40.9948C26.6904 41.0577 26.531 41.0958 26.5148 41.0796C26.4645 41.0295 27.3101 40.5247 28.0084 40.1878C28.9931 39.7127 29.9732 39.4535 32.1694 39.0872C33.2543 38.9062 34.3747 38.6867 34.6592 38.5993C37.3458 37.7743 38.7268 35.6453 38.2849 33.0099Z" fill="#FF007A"/>
<path d="M40.8189 37.5105C40.0856 35.9315 39.9173 34.4071 40.319 32.9852C40.362 32.8334 40.4311 32.709 40.4727 32.709C40.5142 32.709 40.6873 32.8027 40.8572 32.9172C41.1952 33.1451 41.8729 33.5288 43.6787 34.5149C45.9319 35.7453 47.2166 36.6981 48.0903 37.7866C48.8554 38.7399 49.3289 39.8256 49.5568 41.1496C49.6858 41.8996 49.6102 43.7041 49.4181 44.4593C48.8122 46.8405 47.4042 48.7108 45.3959 49.8022C45.1016 49.9621 44.8376 50.0934 44.809 50.094C44.7804 50.0945 44.8875 49.8215 45.0472 49.4872C45.7228 48.0728 45.7997 46.6969 45.2889 45.1655C44.9762 44.2278 44.3386 43.0837 43.0511 41.1499C41.5542 38.9017 41.1872 38.3033 40.8189 37.5105Z" fill="#FF007A"/>
<path d="M20.0835 46.0301C22.1318 44.298 24.6803 43.0674 27.0019 42.6897C28.0024 42.5269 29.669 42.5915 30.5955 42.829C32.0806 43.2097 33.409 44.0622 34.0999 45.078C34.7751 46.0707 35.0648 46.9358 35.3664 48.8607C35.4853 49.62 35.6148 50.3825 35.6539 50.5551C35.8804 51.5526 36.3212 52.35 36.8673 52.7505C37.7348 53.3864 39.2286 53.426 40.698 52.8519C40.9474 52.7545 41.1639 52.687 41.1792 52.7023C41.2324 52.7552 40.4926 53.2514 39.9705 53.5125C39.2681 53.8639 38.7096 53.9998 37.9674 53.9998C36.6216 53.9998 35.5042 53.3141 34.5719 51.9159C34.3885 51.6407 33.976 50.8165 33.6555 50.0845C32.6711 47.8356 32.185 47.1506 31.042 46.4009C30.0473 45.7485 28.7645 45.6317 27.7995 46.1056C26.5319 46.7281 26.1782 48.3506 27.0861 49.3788C27.4469 49.7874 28.1199 50.1399 28.6701 50.2084C29.6995 50.3367 30.5842 49.5524 30.5842 48.5114C30.5842 47.8355 30.3247 47.4499 29.6718 47.1548C28.78 46.7517 27.8214 47.2228 27.826 48.0619C27.828 48.4197 27.9835 48.6444 28.3416 48.8067C28.5714 48.9108 28.5767 48.9191 28.3893 48.8801C27.5711 48.7101 27.3794 47.7221 28.0373 47.0662C28.8272 46.2788 30.4606 46.6263 31.0215 47.7011C31.2571 48.1525 31.2845 49.0516 31.0791 49.5946C30.6192 50.8097 29.2786 51.4487 27.9185 51.1009C26.9926 50.8642 26.6156 50.6079 25.4993 49.4561C23.5594 47.4548 22.8062 47.0669 20.0096 46.6297L19.4736 46.5459L20.0835 46.0301Z" fill="#FF007A"/>
<path fill-rule="evenodd" clip-rule="evenodd" d="M5.45408 1.19712C11.9325 9.07223 21.9201 21.3333 22.416 22.0198C22.8254 22.5866 22.6714 23.0961 21.97 23.4955C21.58 23.7176 20.7781 23.9426 20.3766 23.9426C19.9225 23.9426 19.4109 23.7236 19.0384 23.3696C18.775 23.1195 17.7123 21.5301 15.259 17.7174C13.3818 14.8002 11.8109 12.3801 11.7681 12.3397C11.669 12.2459 11.6707 12.2491 15.0676 18.3366C17.2006 22.1591 17.9206 23.5105 17.9206 23.6912C17.9206 24.0589 17.8206 24.252 17.3678 24.7579C16.613 25.6013 16.2756 26.5488 16.032 28.51C15.7589 30.7085 14.9911 32.2614 12.8633 34.9193C11.6178 36.4751 11.414 36.7603 11.0997 37.3874C10.7038 38.177 10.5949 38.6193 10.5508 39.6164C10.5042 40.6707 10.595 41.3518 10.9167 42.3598C11.1982 43.2424 11.492 43.825 12.2434 44.9906C12.8917 45.9964 13.2651 46.7439 13.2651 47.0362C13.2651 47.2689 13.3094 47.2692 14.3142 47.042C16.7185 46.4981 18.671 45.5417 19.769 44.3696C20.4486 43.6441 20.6081 43.2435 20.6133 42.2493C20.6166 41.5991 20.5938 41.4629 20.4184 41.0888C20.1327 40.4799 19.6126 39.9737 18.4662 39.1889C16.9643 38.1605 16.3228 37.3326 16.1456 36.1941C16.0002 35.2598 16.1689 34.6007 16.9997 32.8565C17.8598 31.0511 18.0729 30.2818 18.2171 28.462C18.3102 27.2863 18.4392 26.8226 18.7764 26.4505C19.1281 26.0623 19.4448 25.931 20.3153 25.8118C21.7345 25.6176 22.6382 25.2499 23.3811 24.5643C24.0254 23.9696 24.2951 23.3965 24.3365 22.5338L24.3679 21.88L24.0078 21.4595C22.7037 19.9365 4.58076 0 4.5005 0C4.48336 0 4.91248 0.538744 5.45408 1.19712ZM13.9971 40.8094C14.292 40.2865 14.1354 39.6141 13.6421 39.2856C13.1761 38.9753 12.4522 39.1215 12.4522 39.5259C12.4522 39.6493 12.5204 39.7391 12.6739 39.8183C12.9324 39.9516 12.9513 40.1014 12.7478 40.4076C12.5418 40.7178 12.5584 40.9905 12.7947 41.1758C13.1756 41.4745 13.7147 41.3102 13.9971 40.8094Z" fill="#FF007A"/>
<path fill-rule="evenodd" clip-rule="evenodd" d="M25.2661 26.1551C24.6 26.3601 23.9523 27.0673 23.7517 27.8089C23.6295 28.2613 23.6989 29.0549 23.8821 29.3C24.178 29.6958 24.4642 29.8001 25.2393 29.7946C26.7564 29.7841 28.0755 29.1323 28.2288 28.3175C28.3546 27.6496 27.7752 26.724 26.9773 26.3177C26.5655 26.1081 25.6899 26.0249 25.2661 26.1551ZM27.0398 27.5442C27.2739 27.2113 27.1715 26.8514 26.7736 26.608C26.0158 26.1446 24.8697 26.528 24.8697 27.2451C24.8697 27.6021 25.4673 27.9914 26.0152 27.9914C26.3797 27.9914 26.8787 27.7737 27.0398 27.5442Z" fill="#FF007A"/>
</svg>
