<svg width="54" height="54" viewBox="0 0 54 54" fill="none" xmlns="http://www.w3.org/2000/svg">
<path d="M11.0614 19.0308C19.8649 11.534 34.1351 11.534 42.95 19.0308L44.0092 19.932C44.4533 20.3083 44.4533 20.9124 44.0092 21.2888L40.3875 24.3786C40.1711 24.5668 39.8067 24.5668 39.5903 24.3786L38.1325 23.1407C31.994 17.9117 22.0288 17.9117 15.8902 23.1407L14.33 24.4677C14.1136 24.6559 13.7491 24.6559 13.5327 24.4677L9.89972 21.3779C9.45555 21.0016 9.45555 20.3975 9.89972 20.0211L11.0614 19.0308ZM50.4438 25.4085L53.6669 28.1517C54.111 28.5281 54.111 29.1322 53.6669 29.5085L39.1234 41.8975C38.6792 42.2739 37.9731 42.2739 37.5289 41.8975L27.1993 33.1034C27.0854 33.0143 26.9146 33.0143 26.8007 33.1034L16.4824 41.8975C16.0383 42.2739 15.3322 42.2739 14.888 41.8975L0.333122 29.5184C-0.111041 29.1421 -0.111041 28.538 0.333122 28.1616L3.55615 25.4184C4.00032 25.0421 4.70642 25.0421 5.15058 25.4184L15.4802 34.2126C15.5941 34.3017 15.7649 34.3017 15.8788 34.2126L26.1971 25.4184C26.6412 25.0421 27.3474 25.0421 27.7915 25.4184L38.1212 34.2126C38.2351 34.3017 38.4059 34.3017 38.5198 34.2126L48.8494 25.4184C49.2822 25.0322 49.9997 25.0322 50.4438 25.4085Z" fill="#3A99FB"/>
</svg>
